#define _width 40
#define _height 40
static char _bits[] = {
  0xFF, 0xFF, 0xFF, 0x7F, 0x00, 0xFF, 0xFF, 0xFF, 0xFF, 0x00, 0xFF, 0xFF, 
  0xFF, 0xFF, 0x01, 0xFF, 0xFF, 0xFF, 0xFF, 0x03, 0xFF, 0xFF, 0xFF, 0xFF, 
  0x03, 0xFF, 0xFF, 0xFF, 0xFF, 0x03, 0xFF, 0xFF, 0xFF, 0xFF, 0x03, 0xFF, 
  0xFF, 0xFF, 0xFF, 0x03, 0xFF, 0xFF, 0xFF, 0xFF, 0x03, 0xFF, 0xFF, 0xFF, 
  0xFF, 0x01, 0xFF, 0xFF, 0xFF, 0xFF, 0x00, 0xFF, 0xFF, 0xFF, 0x7F, 0x00, 
  0xFF, 0xFF, 0x1F, 0x00, 0x00, 0xFF, 0xFF, 0x3F, 0x00, 0x00, 0xFF, 0xFF, 
  0x7F, 0x00, 0x00, 0xFF, 0xFF, 0xFF, 0x00, 0x00, 0xFF, 0xFF, 0xFF, 0x01, 
  0x00, 0xFF, 0xFF, 0xFF, 0x03, 0x00, 0xFF, 0xFF, 0xFF, 0x07, 0x00, 0xFF, 
  0xFF, 0xFF, 0x0F, 0x00, 0xFF, 0xFF, 0xFF, 0x1F, 0x00, 0xFF, 0xEF, 0xFF, 
  0x3F, 0x00, 0xFF, 0xCF, 0xFF, 0x7F, 0x00, 0xFF, 0x8F, 0xFF, 0xFF, 0x00, 
  0xFF, 0x0F, 0xFF, 0xFF, 0x01, 0xFF, 0x0F, 0xFE, 0xFF, 0x03, 0xFF, 0x0F, 
  0xFC, 0xFF, 0x07, 0xFF, 0x0F, 0xF8, 0xFF, 0x07, 0xFF, 0x0F, 0xF0, 0xFF, 
  0x0F, 0xFF, 0x0F, 0xE0, 0xFF, 0x07, 0xFF, 0x0F, 0xC0, 0xFF, 0x0F, 0xFE, 
  0x07, 0x80, 0xFF, 0x07, 0xFC, 0x03, 0x00, 0xFF, 0x07, 0xF8, 0x01, 0x00, 
  0xFE, 0x03, 0x00, 0x00, 0x00, 0xFC, 0x01, 0x00, 0x00, 0x00, 0x50, 0x00, 
  0x00, 0x00, 0x00, 0x00, 0x00, 0x00, 0x00, 0x00, 0x00, 0x00, 0x00, 0x00, 
  0x00, 0x00, 0x00, 0x00, 0x00, 0x00, 0x00, 0x00, };
