#define _width 40
#define _height 40
static char _bits[] = {
  0x00, 0x00, 0x00, 0x00, 0x00, 0x00, 0x00, 0x00, 0x00, 0x00, 0xFC, 0xFF, 
  0xFF, 0x3F, 0x00, 0xFC, 0xFF, 0xFF, 0x7F, 0x00, 0xFC, 0xFF, 0xFF, 0xFF, 
  0x00, 0xFC, 0xFF, 0xFF, 0xFF, 0x00, 0xFC, 0xFF, 0xFF, 0xFF, 0x00, 0xFC, 
  0xFF, 0xFF, 0xFF, 0x00, 0xFC, 0xFF, 0xFF, 0x7F, 0x00, 0xFC, 0xFF, 0xFF, 
  0x3F, 0x00, 0xFC, 0xFF, 0x00, 0x00, 0x00, 0xFC, 0xFF, 0x01, 0x00, 0x00, 
  0xFC, 0xFF, 0x03, 0x00, 0x00, 0xFC, 0xFF, 0x07, 0x00, 0x00, 0xFC, 0xFF, 
  0x0F, 0x00, 0x00, 0xFC, 0xFF, 0x1F, 0x00, 0x00, 0xFC, 0xFB, 0x3F, 0x00, 
  0x00, 0xFC, 0xF3, 0x7F, 0x00, 0x00, 0xFC, 0xE3, 0xFF, 0x00, 0x00, 0xFC, 
  0xC3, 0xFF, 0x01, 0x00, 0xFC, 0x83, 0xFF, 0x03, 0x00, 0xFC, 0x03, 0xFF, 
  0x07, 0x00, 0xFC, 0x03, 0xFE, 0x0F, 0x00, 0xFC, 0x03, 0xFC, 0x1F, 0x00, 
  0xFC, 0x03, 0xF8, 0x3F, 0x00, 0xFC, 0x03, 0xF0, 0x7F, 0x00, 0xFC, 0x03, 
  0xE0, 0xFF, 0x00, 0xFC, 0x03, 0xC0, 0xFF, 0x01, 0xFC, 0x03, 0x80, 0xFF, 
  0x01, 0xFC, 0x03, 0x00, 0xFF, 0x03, 0xF8, 0x01, 0x00, 0xFE, 0x01, 0xF0, 
  0x00, 0x00, 0xFC, 0x01, 0x00, 0x00, 0x00, 0xF8, 0x00, 0x00, 0x00, 0x00, 
  0x10, 0x00, 0x00, 0x00, 0x00, 0x00, 0x00, 0x00, 0x00, 0x00, 0x00, 0x00, 
  0x00, 0x00, 0x00, 0x00, 0x00, 0x00, 0x00, 0x00, 0x00, 0x00, 0x00, 0x00, 
  0x00, 0x00, 0x00, 0x00, 0x00, 0x00, 0x00, 0x00, };
