<?xml version="1.0" encoding="UTF-8" standalone="no"?>
<!-- Created with Inkscape (http://www.inkscape.org/) -->

<svg
   xmlns:dc="http://purl.org/dc/elements/1.1/"
   xmlns:cc="http://creativecommons.org/ns#"
   xmlns:rdf="http://www.w3.org/1999/02/22-rdf-syntax-ns#"
   xmlns:svg="http://www.w3.org/2000/svg"
   xmlns="http://www.w3.org/2000/svg"
   version="1.1"
   width="55"
   height="55"
   viewBox="0 571.25 55 55"
   id="svg2"
   xml:space="preserve"><metadata
     id="metadata10"><rdf:RDF><cc:Work
         rdf:about=""><dc:format>image/svg+xml</dc:format><dc:type
           rdf:resource="http://purl.org/dc/dcmitype/StillImage" /><dc:title></dc:title></cc:Work></rdf:RDF></metadata><defs
     id="defs8" /><rect
     width="53.012661"
     height="53.012657"
     ry="5.6125684"
     x="0.99367082"
     y="572.24365"
     id="rect2987"
     style="fill:#a0a0a0;fill-opacity:1;fill-rule:nonzero;stroke:#a0a0a0;stroke-width:1.98734164;stroke-linecap:round;stroke-linejoin:round;stroke-miterlimit:4;stroke-opacity:1;stroke-dasharray:none;stroke-dashoffset:0" /><path
     d="m 46.054237,595.6636 v 1.30505 c -0.37406,0.57984 -1.025278,0.96536 -1.766103,0.96536 -0.687165,0 -1.297747,-0.33343 -1.680663,-0.84502 v -1.92969 h -28.24618 v 0.50482 H 1.5 v 0.64497 c 0.4845061,6.10374 6.0881047,10.08606 11.207719,10.4273 0.115135,0.009 0.231312,0.013 0.346447,0.0172 1.920311,0.18234 3.408735,1.8208 3.408735,3.78905 0,1.05237 -0.430325,2.00419 -1.123741,2.69031 H 14.158632 V 622.25 h 28.331099 v -9.01702 h -1.180528 c -1.309729,-0.61892 -2.215703,-1.95157 -2.215703,-3.49678 0,-2.136 1.731719,-3.86771 3.868233,-3.86771 1.263363,0 2.386583,0.60745 3.093024,1.54625 v 0.10107 H 53.5 v -11.85217 h -7.445763 l 0,0 z"
     id="path4"
     style="fill:#ffffff" /></svg>