<?xml version="1.0" encoding="UTF-8" standalone="no"?>
<!-- Created with Inkscape (http://www.inkscape.org/) -->

<svg
   xmlns:dc="http://purl.org/dc/elements/1.1/"
   xmlns:cc="http://creativecommons.org/ns#"
   xmlns:rdf="http://www.w3.org/1999/02/22-rdf-syntax-ns#"
   xmlns:svg="http://www.w3.org/2000/svg"
   xmlns="http://www.w3.org/2000/svg"
   version="1.1"
   width="55"
   height="55"
   viewBox="0 571.25 55 55"
   id="Layer_1"
   xml:space="preserve"><metadata
     id="metadata9"><rdf:RDF><cc:Work
         rdf:about=""><dc:format>image/svg+xml</dc:format><dc:type
           rdf:resource="http://purl.org/dc/dcmitype/StillImage" /><dc:title></dc:title></cc:Work></rdf:RDF></metadata><defs
     id="defs7" /><path
     d="m 46.767861,590.64105 v 1.35524 c -0.388446,0.60214 -1.064711,1.00249 -1.83403,1.00249 -0.713594,0 -1.34766,-0.34625 -1.745303,-0.87752 v -2.00391 H 13.855956 v 0.52424 H 0.5 v 0.66977 c 0.5031409,6.3385 6.3222626,10.47399 11.638785,10.82835 0.119563,0.009 0.240209,0.0135 0.359772,0.0179 1.994169,0.18935 3.53984,1.89083 3.53984,3.93478 0,1.09284 -0.446876,2.08127 -1.166962,2.79378 H 13.645502 V 618.25 h 29.420757 v -9.36383 h -1.225933 c -1.360103,-0.64272 -2.300922,-2.02663 -2.300922,-3.63127 0,-2.21815 1.798323,-4.01647 4.017011,-4.01647 1.311954,0 2.478375,0.63082 3.211987,1.60572 v 0.10496 H 54.5 v -12.30802 h -7.732139 l 0,0 z"
     id="path3"
     style="fill:#ffffff;fill-opacity:1" /></svg>