<?xml version="1.0" encoding="UTF-8" standalone="no"?>
<!-- Created with Inkscape (http://www.inkscape.org/) -->

<svg
   xmlns:dc="http://purl.org/dc/elements/1.1/"
   xmlns:cc="http://creativecommons.org/ns#"
   xmlns:rdf="http://www.w3.org/1999/02/22-rdf-syntax-ns#"
   xmlns:svg="http://www.w3.org/2000/svg"
   xmlns="http://www.w3.org/2000/svg"
   version="1.1"
   width="55"
   height="55"
   viewBox="0 0 55 55"
   id="Layer_1"
   xml:space="preserve"><metadata
     id="metadata23"><rdf:RDF><cc:Work
         rdf:about=""><dc:format>image/svg+xml</dc:format><dc:type
           rdf:resource="http://purl.org/dc/dcmitype/StillImage" /><dc:title></dc:title></cc:Work></rdf:RDF></metadata><defs
     id="defs21" /><g
     transform="matrix(0.52,0,0,0.52,2,1)"
     id="g2989"><path
       d="m 34.096,87.131 c 0.733,3.924 1.772,7.68 3.125,11.215 4.081,1.075 8.362,1.654 12.78,1.654 5.802,0 11.368,-0.999 16.548,-2.816 -7.291,-1.649 -12.67,-3.692 -17.502,-5.533 -4.974,-1.895 -9.419,-3.585 -14.951,-4.52 z"
       id="path3"
       style="fill:#ffffff;fill-opacity:1" /><path
       d="m 16.133,86.771 c 5.212,4.804 11.446,8.506 18.341,10.756 -1.199,-3.428 -2.121,-7.026 -2.791,-10.745 -4.277,-0.516 -9.25,-0.593 -15.55,-0.011 z"
       id="path5"
       style="fill:#ffffff;fill-opacity:1" /><path
       d="m 31.297,84.459 c -0.35,-2.314 -0.606,-4.67 -0.78,-7.052 -12.685,-2.49 -22.74,-7.078 -28.392,-12.974 2.32,7.705 6.451,14.619 11.895,20.265 7.016,-0.759 12.567,-0.755 17.277,-0.239 z"
       id="path7"
       style="fill:#ffffff;fill-opacity:1" /><path
       d="m 26.386,62.896 c 1.147,0.599 2.469,1.125 3.967,1.49 C 31.544,36.795 41.811,8.892 50.14,0.004 50.093,0.003 50.049,0 50.001,0 35.055,0 21.646,6.568 12.483,16.967 7.823,29.952 12.04,55.42 26.386,62.896 z"
       id="path9"
       style="fill:#ffffff;fill-opacity:1" /><path
       d="M 30.372,75.027 C 30.236,72.273 30.207,69.494 30.275,66.704 28.387,66.296 26.739,65.654 25.332,64.921 11.51,57.719 6.447,36.023 8.99,21.413 3.33,29.516 0,39.367 0,50 0,52.982 0.276,55.898 0.777,58.738 4.521,66.052 15.61,72 30.372,75.027 z"
       id="path11"
       style="fill:#ffffff;fill-opacity:1" /><path
       d="M 32.713,64.798 C 43.482,65.949 61.635,58.419 87.904,17.415 79.42,7.554 67.164,1.044 53.369,0.126 45.312,5.787 33.938,35.678 32.713,64.798 z"
       id="path13"
       style="fill:#ffffff;fill-opacity:1" /><path
       d="m 45.622,79.277 c -4.445,-0.256 -8.703,-0.741 -12.724,-1.432 0.179,2.346 0.442,4.656 0.796,6.926 6.188,0.946 10.987,2.772 16.163,4.744 5.467,2.082 11.645,4.428 20.527,6.137 C 83.036,89.994 92.903,79.234 97.372,65.984 85.82,77.213 63.209,80.294 45.622,79.277 z"
       id="path15"
       style="fill:#ffffff;fill-opacity:1" /><path
       d="m 32.64,67.068 c -0.066,2.826 -0.034,5.639 0.11,8.414 4.106,0.735 8.462,1.254 13.003,1.517 C 64.637,78.09 89.428,74.436 98.82,60.781 99.584,57.309 100,53.704 100,50 100,38.409 96.043,27.749 89.424,19.268 62.98,60.32 44.125,68.164 32.64,67.068 z"
       id="path17"
       style="fill:#ffffff;fill-opacity:1" /></g></svg>