<?xml version="1.0" encoding="UTF-8" standalone="no"?>
<!-- Generator: Adobe Illustrator 15.1.0, SVG Export Plug-In . SVG Version: 6.00 Build 0)  -->

<svg
   xmlns:dc="http://purl.org/dc/elements/1.1/"
   xmlns:cc="http://creativecommons.org/ns#"
   xmlns:rdf="http://www.w3.org/1999/02/22-rdf-syntax-ns#"
   xmlns:svg="http://www.w3.org/2000/svg"
   xmlns="http://www.w3.org/2000/svg"
   xmlns:sodipodi="http://sodipodi.sourceforge.net/DTD/sodipodi-0.dtd"
   xmlns:inkscape="http://www.inkscape.org/namespaces/inkscape"
   version="1.1"
   id="Layer_1"
   x="0px"
   y="0px"
   width="100px"
   height="100px"
   viewBox="0 0 100 100"
   enable-background="new 0 0 100 100"
   xml:space="preserve"
   inkscape:version="0.48.3.1 r9886"
   sodipodi:docname="icon_3016.svg"><metadata
   id="metadata23"><rdf:RDF><cc:Work
       rdf:about=""><dc:format>image/svg+xml</dc:format><dc:type
         rdf:resource="http://purl.org/dc/dcmitype/StillImage" /><dc:title></dc:title></cc:Work></rdf:RDF></metadata><defs
   id="defs21" /><sodipodi:namedview
   pagecolor="#ffffff"
   bordercolor="#666666"
   borderopacity="1"
   objecttolerance="10"
   gridtolerance="10"
   guidetolerance="10"
   inkscape:pageopacity="0"
   inkscape:pageshadow="2"
   inkscape:window-width="761"
   inkscape:window-height="480"
   id="namedview19"
   showgrid="false"
   inkscape:zoom="2.36"
   inkscape:cx="50"
   inkscape:cy="50"
   inkscape:window-x="0"
   inkscape:window-y="27"
   inkscape:window-maximized="0"
   inkscape:current-layer="Layer_1" />
<path
   fill="#010101"
   d="M34.096,87.131c0.733,3.924,1.772,7.68,3.125,11.215c4.081,1.075,8.362,1.654,12.78,1.654  c5.802,0,11.368-0.999,16.548-2.816c-7.291-1.649-12.67-3.692-17.502-5.533C44.073,89.756,39.628,88.066,34.096,87.131z"
   id="path3"
   style="fill:#ffffff;fill-opacity:1" />
<path
   fill="#010101"
   d="M16.133,86.771c5.212,4.804,11.446,8.506,18.341,10.756c-1.199-3.428-2.121-7.026-2.791-10.745  C27.406,86.266,22.433,86.189,16.133,86.771z"
   id="path5"
   style="fill:#ffffff;fill-opacity:1" />
<path
   fill="#010101"
   d="M31.297,84.459c-0.35-2.314-0.606-4.67-0.78-7.052c-12.685-2.49-22.74-7.078-28.392-12.974  c2.32,7.705,6.451,14.619,11.895,20.265C21.036,83.939,26.587,83.943,31.297,84.459z"
   id="path7"
   style="fill:#ffffff;fill-opacity:1" />
<path
   fill="#010101"
   d="M26.386,62.896c1.147,0.599,2.469,1.125,3.967,1.49C31.544,36.795,41.811,8.892,50.14,0.004  C50.093,0.003,50.049,0,50.001,0C35.055,0,21.646,6.568,12.483,16.967C7.823,29.952,12.04,55.42,26.386,62.896z"
   id="path9"
   style="fill:#ffffff;fill-opacity:1" />
<path
   fill="#010101"
   d="M30.372,75.027c-0.136-2.754-0.165-5.533-0.097-8.323c-1.888-0.408-3.536-1.05-4.943-1.783  C11.51,57.719,6.447,36.023,8.99,21.413C3.33,29.516,0,39.367,0,50c0,2.982,0.276,5.898,0.777,8.738  C4.521,66.052,15.61,72,30.372,75.027z"
   id="path11"
   style="fill:#ffffff;fill-opacity:1" />
<path
   fill="#010101"
   d="M32.713,64.798c10.769,1.151,28.922-6.379,55.191-47.383C79.42,7.554,67.164,1.044,53.369,0.126  C45.312,5.787,33.938,35.678,32.713,64.798z"
   id="path13"
   style="fill:#ffffff;fill-opacity:1" />
<path
   fill="#010101"
   d="M45.622,79.277c-4.445-0.256-8.703-0.741-12.724-1.432c0.179,2.346,0.442,4.656,0.796,6.926  c6.188,0.946,10.987,2.772,16.163,4.744c5.467,2.082,11.645,4.428,20.527,6.137c12.652-5.658,22.519-16.418,26.988-29.668  C85.82,77.213,63.209,80.294,45.622,79.277z"
   id="path15"
   style="fill:#ffffff;fill-opacity:1" />
<path
   fill="#010101"
   d="M32.64,67.068c-0.066,2.826-0.034,5.639,0.11,8.414c4.106,0.735,8.462,1.254,13.003,1.517  c18.884,1.091,43.675-2.563,53.067-16.218C99.584,57.309,100,53.704,100,50c0-11.591-3.957-22.251-10.576-30.732  C62.98,60.32,44.125,68.164,32.64,67.068z"
   id="path17"
   style="fill:#ffffff;fill-opacity:1" />
</svg>