<?xml version="1.0" encoding="UTF-8" standalone="no"?>
<!-- Created with Inkscape (http://www.inkscape.org/) -->

<svg
   xmlns:dc="http://purl.org/dc/elements/1.1/"
   xmlns:cc="http://creativecommons.org/ns#"
   xmlns:rdf="http://www.w3.org/1999/02/22-rdf-syntax-ns#"
   xmlns:svg="http://www.w3.org/2000/svg"
   xmlns="http://www.w3.org/2000/svg"
   version="1.0"
   width="55"
   height="55"
   viewBox="0 0 55 55"
   id="Layer_1"
   xml:space="preserve"><metadata
     id="metadata9"><rdf:RDF><cc:Work
         rdf:about=""><dc:format>image/svg+xml</dc:format><dc:type
           rdf:resource="http://purl.org/dc/dcmitype/StillImage" /><dc:title></dc:title></cc:Work></rdf:RDF></metadata><defs
     id="defs7" /><path
     d="M 28,1 C 13.6402,1 2,12.6402 2,27 2,41.3598 13.6402,53 28,53 42.35928,53 54,41.35876 54,26.99948 54,12.6402 42.35928,1 28,1 z m 2.81164,16.52612 c -1.70872,0 -3.09452,-1.3858 -3.09452,-3.09452 5.2e-4,-1.70924 1.3858,-3.09452 3.09504,-3.09504 1.70872,0 3.09452,1.3858 3.09452,3.09504 0,1.70924 -1.3858,3.09452 -3.09504,3.09452 z m 9.23468,9.2352 c -1.7082,0 -3.094,-1.3858 -3.094,-3.09452 0,-1.70924 1.3858,-3.09452 3.09452,-3.09452 1.70924,0 3.094,1.3858 3.094,3.09452 0,1.70872 -1.38476,3.09452 -3.09452,3.09452 z m 1.66816,-10.9018 c -1.70924,0 -3.09452,-1.3858 -3.09452,-3.09452 0,-1.70924 1.38528,-3.09452 3.09452,-3.09504 1.70872,0 3.094,1.3858 3.094,3.09504 0,1.70872 -1.38476,3.09452 -3.094,3.09452 z"
     id="path3"
     style="fill:#ffffff;fill-opacity:1" /></svg>