<?xml version="1.0" encoding="UTF-8" standalone="no"?>
<!-- Generator: Adobe Illustrator 14.0.0, SVG Export Plug-In . SVG Version: 6.00 Build 43363)  -->

<svg
   xmlns:dc="http://purl.org/dc/elements/1.1/"
   xmlns:cc="http://creativecommons.org/ns#"
   xmlns:rdf="http://www.w3.org/1999/02/22-rdf-syntax-ns#"
   xmlns:svg="http://www.w3.org/2000/svg"
   xmlns="http://www.w3.org/2000/svg"
   xmlns:sodipodi="http://sodipodi.sourceforge.net/DTD/sodipodi-0.dtd"
   xmlns:inkscape="http://www.inkscape.org/namespaces/inkscape"
   version="1.0"
   id="Layer_1"
   x="0px"
   y="0px"
   width="100px"
   height="100px"
   viewBox="0 0 100 100"
   enable-background="new 0 0 100 100"
   xml:space="preserve"
   inkscape:version="0.48.3.1 r9886"
   sodipodi:docname="icon_657.svg"><metadata
   id="metadata9"><rdf:RDF><cc:Work
       rdf:about=""><dc:format>image/svg+xml</dc:format><dc:type
         rdf:resource="http://purl.org/dc/dcmitype/StillImage" /><dc:title></dc:title></cc:Work></rdf:RDF></metadata><defs
   id="defs7" /><sodipodi:namedview
   pagecolor="#ffffff"
   bordercolor="#666666"
   borderopacity="1"
   objecttolerance="10"
   gridtolerance="10"
   guidetolerance="10"
   inkscape:pageopacity="0"
   inkscape:pageshadow="2"
   inkscape:window-width="761"
   inkscape:window-height="480"
   id="namedview5"
   showgrid="false"
   inkscape:zoom="2.36"
   inkscape:cx="50"
   inkscape:cy="50"
   inkscape:window-x="0"
   inkscape:window-y="27"
   inkscape:window-maximized="0"
   inkscape:current-layer="Layer_1" />
<path
   d="M50,0C22.385,0,0,22.385,0,50S22.385,100,50,100c27.614,0,50-22.387,50-50.001S77.614,0,50,0z M55.407,31.781  c-3.286,0-5.951-2.665-5.951-5.951c0.001-3.287,2.665-5.951,5.952-5.952c3.286,0,5.951,2.665,5.951,5.952  C61.359,29.117,58.694,31.781,55.407,31.781z M73.166,49.541c-3.285,0-5.95-2.665-5.95-5.951c0-3.287,2.665-5.951,5.951-5.951  c3.287,0,5.95,2.665,5.95,5.951C79.117,46.876,76.454,49.541,73.166,49.541z M76.374,28.576c-3.287,0-5.951-2.665-5.951-5.951  c0-3.287,2.664-5.951,5.951-5.952c3.286,0,5.95,2.665,5.95,5.952C82.324,25.911,79.661,28.576,76.374,28.576z"
   id="path3"
   style="fill:#ffffff;fill-opacity:1" />
</svg>