<?xml version="1.0" encoding="UTF-8" standalone="no"?>
<!-- Created with Inkscape (http://www.inkscape.org/) -->

<svg
   xmlns:dc="http://purl.org/dc/elements/1.1/"
   xmlns:cc="http://creativecommons.org/ns#"
   xmlns:rdf="http://www.w3.org/1999/02/22-rdf-syntax-ns#"
   xmlns:svg="http://www.w3.org/2000/svg"
   xmlns="http://www.w3.org/2000/svg"
   version="1.1"
   width="55"
   height="55"
   viewBox="0 0 55 55"
   id="svg2"
   xml:space="preserve"><metadata
     id="metadata176"><rdf:RDF><cc:Work
         rdf:about=""><dc:format>image/svg+xml</dc:format><dc:type
           rdf:resource="http://purl.org/dc/dcmitype/StillImage" /><dc:title></dc:title></cc:Work></rdf:RDF></metadata><defs
     id="defs174" /><rect
     width="53.012661"
     height="53.012657"
     ry="5.6125684"
     x="0.99366951"
     y="0.99367142"
     id="rect2987-7"
     style="fill:#a0a0a0;fill-opacity:1;fill-rule:nonzero;stroke:#a0a0a0;stroke-width:1.98734164;stroke-linecap:round;stroke-linejoin:round;stroke-miterlimit:4;stroke-opacity:1;stroke-dasharray:none;stroke-dashoffset:0" /><rect
     width="53.012661"
     height="53.012657"
     ry="5.6125684"
     x="0.99367082"
     y="527.24365"
     id="rect2987"
     style="fill:#a0a0a0;fill-opacity:1;fill-rule:nonzero;stroke:#a0a0a0;stroke-width:1.98734164;stroke-linecap:round;stroke-linejoin:round;stroke-miterlimit:4;stroke-opacity:1;stroke-dasharray:none;stroke-dashoffset:0" /><g
     transform="matrix(0.58485543,0,0,0.58485543,1.7950707,-3.6950798)"
     id="g3973"><path
       d="m 11.440678,50.635593 a 4.0254237,4.0254237 0 1 1 -8.0508474,0 4.0254237,4.0254237 0 1 1 8.0508474,0 z"
       transform="matrix(0.99494102,0,0,0.99494102,3.2621697,44.087953)"
       id="path3155"
       style="fill:#ffffff;fill-opacity:1;fill-rule:nonzero;stroke:#ffffff;stroke-width:2;stroke-linecap:round;stroke-linejoin:round;stroke-miterlimit:4;stroke-opacity:1;stroke-dasharray:none;stroke-dashoffset:0" /><path
       d="m 11.440678,50.635593 a 4.0254237,4.0254237 0 1 1 -8.0508474,0 4.0254237,4.0254237 0 1 1 8.0508474,0 z"
       transform="matrix(0.99494102,0,0,0.99494102,16.586569,27.647739)"
       id="path3155-9"
       style="fill:#ffffff;fill-opacity:1;fill-rule:nonzero;stroke:#ffffff;stroke-width:2;stroke-linecap:round;stroke-linejoin:round;stroke-miterlimit:4;stroke-opacity:1;stroke-dasharray:none;stroke-dashoffset:0" /><path
       d="m 11.440678,50.635593 a 4.0254237,4.0254237 0 1 1 -8.0508474,0 4.0254237,4.0254237 0 1 1 8.0508474,0 z"
       transform="matrix(0.99494102,0,0,0.99494102,29.910969,11.207523)"
       id="path3155-93"
       style="fill:#ffffff;fill-opacity:1;fill-rule:nonzero;stroke:#ffffff;stroke-width:2;stroke-linecap:round;stroke-linejoin:round;stroke-miterlimit:4;stroke-opacity:1;stroke-dasharray:none;stroke-dashoffset:0" /><path
       d="m 11.440678,50.635593 a 4.0254237,4.0254237 0 1 1 -8.0508474,0 4.0254237,4.0254237 0 1 1 8.0508474,0 z"
       transform="matrix(0.99494102,0,0,0.99494102,43.235368,-5.2326907)"
       id="path3155-8"
       style="fill:#ffffff;fill-opacity:1;fill-rule:nonzero;stroke:#ffffff;stroke-width:2;stroke-linecap:round;stroke-linejoin:round;stroke-miterlimit:4;stroke-opacity:1;stroke-dasharray:none;stroke-dashoffset:0" /><path
       d="m 11.440678,50.635593 a 4.0254237,4.0254237 0 1 1 -8.0508474,0 4.0254237,4.0254237 0 1 1 8.0508474,0 z"
       transform="matrix(0.99494102,0,0,0.99494102,56.55977,-21.672902)"
       id="path3155-0"
       style="fill:#ffffff;fill-opacity:1;fill-rule:nonzero;stroke:#ffffff;stroke-width:2;stroke-linecap:round;stroke-linejoin:round;stroke-miterlimit:4;stroke-opacity:1;stroke-dasharray:none;stroke-dashoffset:0" /><path
       d="m 11.440678,50.635593 a 4.0254237,4.0254237 0 1 1 -8.0508474,0 4.0254237,4.0254237 0 1 1 8.0508474,0 z"
       transform="matrix(0.99494102,0,0,0.99494102,69.884172,-38.11312)"
       id="path3155-7"
       style="fill:#ffffff;fill-opacity:1;fill-rule:nonzero;stroke:#ffffff;stroke-width:2;stroke-linecap:round;stroke-linejoin:round;stroke-miterlimit:4;stroke-opacity:1;stroke-dasharray:none;stroke-dashoffset:0" /><path
       d="M 7.876639,98.253359 C 79.910537,8.4228493 79.910537,8.4228493 79.910537,8.4228493"
       id="path3971"
       style="fill:none;stroke:#ffffff;stroke-width:2.5;stroke-linecap:butt;stroke-linejoin:miter;stroke-miterlimit:4;stroke-opacity:1;stroke-dasharray:none" /></g></svg>