<?xml version="1.0" encoding="UTF-8" standalone="no"?>
<!-- Created with Inkscape (http://www.inkscape.org/) -->

<svg
   xmlns:dc="http://purl.org/dc/elements/1.1/"
   xmlns:cc="http://creativecommons.org/ns#"
   xmlns:rdf="http://www.w3.org/1999/02/22-rdf-syntax-ns#"
   xmlns:svg="http://www.w3.org/2000/svg"
   xmlns="http://www.w3.org/2000/svg"
   version="1.1"
   width="100"
   height="100"
   viewBox="0 0 100 100"
   id="svg2"
   xml:space="preserve"><metadata
     id="metadata176"><rdf:RDF><cc:Work
         rdf:about=""><dc:format>image/svg+xml</dc:format><dc:type
           rdf:resource="http://purl.org/dc/dcmitype/StillImage" /><dc:title></dc:title></cc:Work></rdf:RDF></metadata><defs
     id="defs174" /><g
     transform="matrix(0.99477677,0.10207434,-0.10207434,0.99477677,11.726037,-7.574358)"
     id="g4028"><path
       d="M 7.876639,98.253359 C 79.910537,8.4228493 79.910537,8.4228493 79.910537,8.4228493"
       id="path3971"
       style="fill:none;stroke:#ffffff;stroke-width:2.5;stroke-linecap:butt;stroke-linejoin:miter;stroke-miterlimit:4;stroke-opacity:1;stroke-dasharray:none" /><path
       d="m 11.440678,50.635593 a 4.0254235,4.0254235 0 1 1 -8.0508474,0 4.0254235,4.0254235 0 1 1 8.0508474,0 z"
       transform="matrix(2.2386173,0,0,2.2386173,-5.9600058,-18.886332)"
       id="path3155"
       style="fill:#ffffff;fill-opacity:1;fill-rule:nonzero;stroke:#ffffff;stroke-width:2;stroke-linecap:round;stroke-linejoin:round;stroke-miterlimit:4;stroke-opacity:1;stroke-dasharray:none;stroke-dashoffset:0" /><path
       d="m 11.440678,50.635593 a 4.0254235,4.0254235 0 1 1 -8.0508474,0 4.0254235,4.0254235 0 1 1 8.0508474,0 z"
       transform="matrix(2.2386173,0,0,2.2386173,60.662002,-101.08741)"
       id="path3155-7"
       style="fill:#ffffff;fill-opacity:1;fill-rule:nonzero;stroke:#ffffff;stroke-width:2;stroke-linecap:round;stroke-linejoin:round;stroke-miterlimit:4;stroke-opacity:1;stroke-dasharray:none;stroke-dashoffset:0" /><path
       d="m 11.440678,50.635593 a 4.0254235,4.0254235 0 1 1 -8.0508474,0 4.0254235,4.0254235 0 1 1 8.0508474,0 z"
       transform="matrix(2.2386173,0,0,2.2386173,16.247331,-46.286692)"
       id="path3155-93"
       style="fill:#ffffff;fill-opacity:1;fill-rule:nonzero;stroke:#ffffff;stroke-width:2;stroke-linecap:round;stroke-linejoin:round;stroke-miterlimit:4;stroke-opacity:1;stroke-dasharray:none;stroke-dashoffset:0" /><path
       d="m 11.440678,50.635593 a 4.0254235,4.0254235 0 1 1 -8.0508474,0 4.0254235,4.0254235 0 1 1 8.0508474,0 z"
       transform="matrix(2.2386173,0,0,2.2386173,38.454669,-73.687052)"
       id="path3155-8"
       style="fill:#ffffff;fill-opacity:1;fill-rule:nonzero;stroke:#ffffff;stroke-width:2;stroke-linecap:round;stroke-linejoin:round;stroke-miterlimit:4;stroke-opacity:1;stroke-dasharray:none;stroke-dashoffset:0" /></g></svg>