<?xml version="1.0" encoding="UTF-8" standalone="no"?>
<svg
   xmlns:dc="http://purl.org/dc/elements/1.1/"
   xmlns:cc="http://creativecommons.org/ns#"
   xmlns:rdf="http://www.w3.org/1999/02/22-rdf-syntax-ns#"
   xmlns:svg="http://www.w3.org/2000/svg"
   xmlns="http://www.w3.org/2000/svg"
   version="1.1"
   x="0px"
   y="0px"
   width="100px"
   height="100px"
   viewBox="0 0 100 100"
   enable-background="new 0 0 100 100"
   xml:space="preserve">
<g
   id="g3395">
	<path
   d="m 47.791715,56.984184 c -0.07494,0.0285 -0.152418,0.05329 -0.227633,0.07717 0.07522,-0.02388 0.151974,-0.04786 0.227633,-0.07717 z"
   id="path3397"
   inkscape:connector-curvature="0"
   style="fill:#ffffff;fill-opacity:1" />
	<path
   d="m 47.146495,57.173254 c -0.172696,0.03831 -0.34287,0.0672 -0.511625,0.08132 0.168755,-0.01413 0.338929,-0.04302 0.511625,-0.08132 z"
   id="path3399"
   inkscape:connector-curvature="0"
   style="fill:#ffffff;fill-opacity:1" />
	<path
   d="m 47.456109,57.094182 c -0.07604,0.02317 -0.152981,0.04406 -0.227849,0.06097 0.07487,-0.01691 0.151815,-0.03781 0.227849,-0.06097 z"
   id="path3401"
   inkscape:connector-curvature="0"
   style="fill:#ffffff;fill-opacity:1" />
	<path
   d="m 48.628879,56.590368 c -0.07336,0.04153 -0.146818,0.08152 -0.218823,0.119885 0.07355,-0.03845 0.145461,-0.07835 0.218823,-0.119885 z"
   id="path3403"
   inkscape:connector-curvature="0"
   style="fill:#ffffff;fill-opacity:1" />
	<path
   d="m 48.304756,56.761451 c -0.16017,0.07848 -0.322354,0.149352 -0.48356,0.2109 0.161206,-0.06155 0.322665,-0.131608 0.48356,-0.2109 z"
   id="path3405"
   inkscape:connector-curvature="0"
   style="fill:#ffffff;fill-opacity:1" />
	<path
   d="m 47.4628,53.709662 c 0.09856,0.104435 0.192767,0.213778 0.283983,0.324843 -0.09203,-0.111788 -0.185426,-0.220404 -0.283983,-0.324843 z"
   id="path3407"
   inkscape:connector-curvature="0"
   style="fill:#ffffff;fill-opacity:1" />
	<path
   d="m 46.633326,57.254668 c -0.08088,0.0072 -0.159682,0.01047 -0.238483,0.01374 0.08035,-0.0034 0.158422,-0.0058 0.238483,-0.01374 z"
   id="path3409"
   inkscape:connector-curvature="0"
   style="fill:#ffffff;fill-opacity:1" />
	<path
   d="m 45.277621,57.097731 c -0.236069,-0.08603 -0.458493,-0.202249 -0.659935,-0.355262 0.202166,0.152196 0.423866,0.269226 0.659935,0.355262 z"
   id="path3411"
   inkscape:connector-curvature="0"
   style="fill:#ffffff;fill-opacity:1" />
	<path
   d="m 46.055893,57.260447 c -0.254444,-0.01927 -0.497513,-0.06782 -0.729206,-0.145622 0.230968,0.07862 0.474762,0.126348 0.729206,0.145622 z"
   id="path3413"
   inkscape:connector-curvature="0"
   style="fill:#ffffff;fill-opacity:1" />
	<path
   d="m 46.318215,57.269203 c -0.07827,-6.45e-4 -0.15653,-0.0013 -0.23426,-0.0058 0.07773,0.0046 0.156813,0.0059 0.23426,0.0058 z"
   id="path3415"
   inkscape:connector-curvature="0"
   style="fill:#ffffff;fill-opacity:1" />
	<path
   d="m 34.924335,55.129585 c 0.108619,-0.110865 0.218058,-0.221007 0.330046,-0.327443 -0.111988,0.10643 -0.222245,0.215856 -0.330046,0.327443 z"
   id="path3417"
   inkscape:connector-curvature="0"
   style="fill:#ffffff;fill-opacity:1" />
	<path
   d="m 51.502196,41.34693 c -3.77e-4,-0.0061 -7.53e-4,-0.01231 -0.0012,-0.02 4.71e-4,0.0077 8.47e-4,0.01385 0.0012,0.02 z"
   id="path3419"
   inkscape:connector-curvature="0"
   style="fill:#ffffff;fill-opacity:1" />
	<path
   d="m 47.13951,53.387981 0,0 c 0.109165,0.100707 0.213177,0.205587 0.31419,0.312194 -0.10101,-0.106604 -0.205019,-0.211488 -0.31419,-0.312194 z"
   id="path3421"
   inkscape:connector-curvature="0"
   style="fill:#ffffff;fill-opacity:1" />
	<path
   d="m 42.807745,51.009526 c -0.01244,-7.88e-4 -0.02642,-0.0015 -0.03887,-0.0023 0.01326,0.0015 0.0257,0.0023 0.03887,0.0023 z"
   id="path3423"
   inkscape:connector-curvature="0"
   style="fill:#ffffff;fill-opacity:1" />
	<path
   d="m 43.265678,51.038046 c 0.01789,0.0012 0.03341,0.0019 0.04903,0.0039 -0.02179,-0.0017 -0.04441,-0.0043 -0.06538,-0.0053 0.0046,-2.83e-4 0.01093,8.81e-4 0.01635,0.0013 z"
   id="path3425"
   inkscape:connector-curvature="0"
   style="fill:#ffffff;fill-opacity:1" />
	<polygon
   points="39.88,43.104 39.882,43.105 39.88,43.104 "
   id="polygon3427"
   transform="matrix(0.72456632,-0.81635171,0.81871633,0.72247363,-26.365457,54.340807)"
   style="fill:#ffffff;fill-opacity:1" />
	<path
   d="m 36.602144,53.689941 c 0.150665,-0.107248 0.301518,-0.21141 0.453471,-0.310238 -0.152678,0.09964 -0.303531,0.20381 -0.453471,0.310238 z"
   id="path3429"
   inkscape:connector-curvature="0"
   style="fill:#ffffff;fill-opacity:1" />
	<path
   d="m 34.512188,55.570912 c 0.118829,-0.133882 0.238665,-0.263962 0.361776,-0.391154 -0.123111,0.127192 -0.242947,0.257272 -0.361776,0.391154 z"
   id="path3431"
   inkscape:connector-curvature="0"
   style="fill:#ffffff;fill-opacity:1" />
	<polygon
   points="41.411,49.748 41.411,49.747 41.411,49.747 "
   id="polygon3433"
   transform="matrix(0.72456632,-0.81635171,0.81871633,0.72247363,-26.365457,54.340807)"
   style="fill:#ffffff;fill-opacity:1" />
	<ellipse
   fill="none"
   cx="37.974"
   cy="46.026"
   rx="0.005"
   ry="0"
   id="ellipse3435" />
	<ellipse
   fill="none"
   cx="37.492"
   cy="45.91"
   rx="0.006"
   ry="0"
   id="ellipse3437" />
	<rect
   x="-16.875923"
   y="66.572433"
   width="0.0010915248"
   height="0.0010919088"
   id="rect3439"
   transform="matrix(0.66381112,-0.74790026,0.74980293,0.66166122,0,0)"
   style="fill:#ffffff;fill-opacity:1" />
	<polygon
   points="36.983,45.828 36.993,45.829 37.001,45.83 36.993,45.829 "
   id="polygon3441"
   transform="matrix(0.72456632,-0.81635171,0.81871633,0.72247363,-26.365457,54.340807)"
   style="fill:#ffffff;fill-opacity:1" />
	<rect
   x="-17.96417"
   y="66.374794"
   width="0.0021830497"
   height="0.0021838176"
   id="rect3443"
   transform="matrix(0.66381112,-0.74790026,0.74980293,0.66166122,0,0)"
   style="fill:#ffffff;fill-opacity:1" />
	<path
   d="m 44.075052,61.671709 c -0.0495,-0.01166 -0.101184,-0.02088 -0.152334,-0.03398 -0.02979,-0.0059 -0.06069,-0.01716 -0.09058,-0.02461 -0.128461,-0.0362 -0.256291,-0.07476 -0.382042,-0.117315 -0.04188,-0.01367 -0.08469,-0.0296 -0.125845,-0.04409 -0.09186,-0.03303 -0.180106,-0.07013 -0.269891,-0.107149 -0.03098,-0.01279 -0.0627,-0.02476 -0.09369,-0.03755 0.357972,0.154304 0.731668,0.274443 1.114377,0.364688 0,0 0,0 0,0 z"
   id="path3445"
   inkscape:connector-curvature="0"
   style="fill:#ffffff;fill-opacity:1" />
	<rect
   x="-18.087511"
   y="66.362785"
   width="0.0021830497"
   height="0.003275726"
   id="rect3447"
   transform="matrix(0.66381112,-0.74790026,0.74980293,0.66166122,0,0)"
   style="fill:#ffffff;fill-opacity:1" />
	<rect
   x="41.253"
   y="48.7"
   fill="none"
   width="0.001"
   height="0"
   id="rect3449" />
	<polygon
   points="41.151,48.443 41.15,48.442 41.15,48.442 "
   id="polygon3451"
   transform="matrix(0.72456632,-0.81635171,0.81871633,0.72247363,-26.365457,54.340807)"
   style="fill:#ffffff;fill-opacity:1" />
	<rect
   x="41.355"
   y="49.068"
   fill="none"
   width="0"
   height="0"
   id="rect3453" />
	<rect
   x="41.224"
   y="48.62"
   fill="none"
   width="0"
   height="0"
   id="rect3455" />
	<path
   d="m 29.368793,65.042211 c -0.02797,-0.0014 -0.05593,-0.0027 -0.08308,-0.0035 0.02643,0.0015 0.05511,0.0021 0.08308,0.0035 z"
   id="path3457"
   inkscape:connector-curvature="0"
   style="fill:#ffffff;fill-opacity:1" />
	<path
   d="m 28.858323,65.028471 c -0.02787,1.5e-4 -0.0542,2.07e-4 -0.08135,-4.58e-4 0.02715,6.65e-4 0.05348,6.08e-4 0.08135,4.58e-4 z"
   id="path3459"
   inkscape:connector-curvature="0"
   style="fill:#ffffff;fill-opacity:1" />
	<path
   d="m 26.687464,65.283315 0,0 c 0.185473,-0.424449 0.397558,-0.84434 0.638712,-1.257504 -0.241154,0.413164 -0.454057,0.832332 -0.638712,1.257504 z"
   id="path3461"
   inkscape:connector-curvature="0"
   style="fill:#ffffff;fill-opacity:1" />
	<rect
   x="-18.246874"
   y="66.348587"
   width="0.0010915248"
   height="0.0021838176"
   id="rect3463"
   transform="matrix(0.66381112,-0.74790026,0.74980293,0.66166122,0,0)"
   style="fill:#ffffff;fill-opacity:1" />
	<path
   d="m 29.860077,65.084147 c -0.0148,-0.0014 -0.02806,-0.0029 -0.04287,-0.0044 0.0148,0.0014 0.02889,0.0036 0.04287,0.0044 z"
   id="path3465"
   inkscape:connector-curvature="0"
   style="fill:#ffffff;fill-opacity:1" />
	<path
   d="m 31.164503,64.833353 c -0.0035,0.0057 -0.0086,0.01134 -0.0144,0.01787 0.0058,-0.0065 0.01082,-0.01224 0.0144,-0.01787 z"
   id="path3467"
   inkscape:connector-curvature="0"
   style="fill:#ffffff;fill-opacity:1" />
	<polygon
   points="36.593,45.788 36.591,45.788 36.593,45.788 "
   id="polygon3469"
   transform="matrix(0.72456632,-0.81635171,0.81871633,0.72247363,-26.365457,54.340807)"
   style="fill:#ffffff;fill-opacity:1" />
	<path
   d="m 27.917979,63.115594 c 0.07051,-0.100826 0.141836,-0.200924 0.217067,-0.30049 -0.07523,0.09956 -0.146558,0.199667 -0.217067,0.30049 z"
   id="path3471"
   inkscape:connector-curvature="0"
   style="fill:#ffffff;fill-opacity:1" />
	<path
   d="m 28.273927,65.047029 c 0.01388,-8.45e-4 0.0286,-9.67e-4 0.04248,-0.0019 -0.01388,8.46e-4 -0.0286,9.68e-4 -0.04248,0.0019 z"
   id="path3473"
   inkscape:connector-curvature="0"
   style="fill:#ffffff;fill-opacity:1" />
	<path
   d="m 27.331155,64.018557 c 0.07852,-0.134519 0.16021,-0.267685 0.245718,-0.401857 -0.08479,0.133355 -0.167203,0.267338 -0.245718,0.401857 z"
   id="path3475"
   inkscape:connector-curvature="0"
   style="fill:#ffffff;fill-opacity:1" />
	<path
   d="m 27.606739,63.57318 c 0.077,-0.121297 0.157182,-0.241244 0.240545,-0.35984 -0.08409,0.119412 -0.162725,0.239265 -0.240545,0.35984 z"
   id="path3477"
   inkscape:connector-curvature="0"
   style="fill:#ffffff;fill-opacity:1" />
	<path
   d="m 47.691527,57.713901 c 0.05481,-0.01569 0.108696,-0.03364 0.164132,-0.05168 7.25e-4,-8.17e-4 0.0014,-0.0016 0.0023,-9.11e-4 -0.05616,0.01886 -0.111595,0.03691 -0.168668,0.0535 0.0015,-9.3e-5 0.0023,-9.1e-4 0.0023,-9.1e-4 z"
   id="path3479"
   inkscape:connector-curvature="0"
   style="fill:#ffffff;fill-opacity:1" />
	<path
   d="m 56.86557,41.192893 c -0.01955,-0.05365 -0.03918,-0.108829 -0.05574,-0.164193 0.01655,0.05537 0.03538,0.109828 0.05574,0.164193 z"
   id="path3481"
   inkscape:connector-curvature="0"
   style="fill:#ffffff;fill-opacity:1" />
	<path
   d="m 56.671425,40.222367 c -0.0085,-0.164748 -0.0065,-0.333231 0.0078,-0.505542 -0.01342,0.173034 -0.01478,0.3407 -0.0078,0.505542 z"
   id="path3483"
   inkscape:connector-curvature="0"
   style="fill:#ffffff;fill-opacity:1" />
	<path
   d="m 56.694111,40.466571 c -0.007,-0.06444 -0.0149,-0.129608 -0.0174,-0.195872 0.0025,0.06627 0.0089,0.131523 0.0174,0.195872 z"
   id="path3485"
   inkscape:connector-curvature="0"
   style="fill:#ffffff;fill-opacity:1" />
	<path
   d="m 56.711064,39.414472 c 0.02612,-0.180757 0.06294,-0.36371 0.109754,-0.548042 -0.04682,0.184332 -0.08364,0.367285 -0.109754,0.548042 z"
   id="path3487"
   inkscape:connector-curvature="0"
   style="fill:#ffffff;fill-opacity:1" />
	<path
   d="m 56.792549,40.974147 c -0.04073,-0.146572 -0.07238,-0.296785 -0.09215,-0.455444 0.01978,0.158659 0.05143,0.308872 0.09215,0.455444 z"
   id="path3489"
   inkscape:connector-curvature="0"
   style="fill:#ffffff;fill-opacity:1" />
	<path
   d="m 56.682315,39.678794 c 0.0054,-0.07678 0.01455,-0.154568 0.02519,-0.233987 -0.0106,0.07942 -0.01981,0.157206 -0.02519,0.233987 z"
   id="path3491"
   inkscape:connector-curvature="0"
   style="fill:#ffffff;fill-opacity:1" />
	<path
   d="m 50.1035,56.361657 c 7.24e-4,-8.16e-4 0.0022,-0.0024 0.003,-0.0033 -0.0095,0.009 -0.01912,0.0166 -0.02863,0.02568 0.0089,-0.0068 0.01685,-0.0157 0.02574,-0.02241 z"
   id="path3493"
   inkscape:connector-curvature="0"
   style="fill:#ffffff;fill-opacity:1" />
	<path
   d="m 56.825232,38.849943 c 0.02323,-0.08868 0.04873,-0.178271 0.07732,-0.268049 -0.02786,0.08897 -0.05336,0.178553 -0.07732,0.268049 z"
   id="path3495"
   inkscape:connector-curvature="0"
   style="fill:#ffffff;fill-opacity:1" />
	<path
   d="m 49.791359,56.614644 c 0,0 7.25e-4,-8.15e-4 0.0023,-9.1e-4 -0.0082,0.0059 -0.01631,0.01181 -0.02375,0.01689 0.0074,-0.0051 0.01487,-0.01014 0.02148,-0.01598 z"
   id="path3497"
   inkscape:connector-curvature="0"
   style="fill:#ffffff;fill-opacity:1" />
	<path
   d="m 50.29153,56.19422 c 0.01468,-0.01324 0.02863,-0.02568 0.04332,-0.03893 -0.01541,0.01406 -0.03081,0.02813 -0.04621,0.0422 0.0014,-0.0016 0.0022,-0.0024 0.003,-0.0033 z"
   id="path3499"
   inkscape:connector-curvature="0"
   style="fill:#ffffff;fill-opacity:1" />
	<path
   d="m 51.677292,38.53755 c -0.0075,0.04139 -0.01662,0.08287 -0.02487,0.125077 0.0083,-0.04221 0.01734,-0.08369 0.02487,-0.125077 z"
   id="path3501"
   inkscape:connector-curvature="0"
   style="fill:#ffffff;fill-opacity:1" />
	<path
   d="m 51.578905,39.094167 c -0.0036,0.03034 -0.0094,0.06158 -0.01451,0.09201 0.0051,-0.03042 0.01017,-0.06086 0.01451,-0.09201 z"
   id="path3503"
   inkscape:connector-curvature="0"
   style="fill:#ffffff;fill-opacity:1" />
	<path
   d="m 56.96029,47.196985 c -0.384187,-0.101743 -0.755643,-0.235916 -1.110463,-0.401995 0.35482,0.166079 0.726276,0.300256 1.110463,0.401995 z"
   id="path3505"
   inkscape:connector-curvature="0"
   style="fill:#ffffff;fill-opacity:1" />
	<path
   d="m 48.8888,57.205507 c 0.006,-0.0035 0.01125,-0.0061 0.01723,-0.0096 -0.0067,0.0043 -0.01423,0.0078 -0.02095,0.01209 7.25e-4,-8.16e-4 0.0023,-9.1e-4 0.0037,-0.0025 z"
   id="path3507"
   inkscape:connector-curvature="0"
   style="fill:#ffffff;fill-opacity:1" />
	<path
   d="m 51.799609,38.004961 c -0.0094,0.03687 -0.01791,0.07446 -0.02799,0.112138 0.01082,-0.0385 0.01863,-0.07527 0.02799,-0.112138 z"
   id="path3509"
   inkscape:connector-curvature="0"
   style="fill:#ffffff;fill-opacity:1" />
	<path
   d="m 55.460527,46.597028 c -0.102628,-0.05708 -0.204536,-0.114983 -0.303637,-0.177688 0.0991,0.06271 0.199463,0.120698 0.303637,0.177688 z"
   id="path3511"
   inkscape:connector-curvature="0"
   style="fill:#ffffff;fill-opacity:1" />
	<path
   d="m 55.072779,46.36113 c -0.08373,-0.05205 -0.16602,-0.105743 -0.247044,-0.164141 0.0803,0.05922 0.16331,0.112086 0.247044,0.164141 z"
   id="path3513"
   inkscape:connector-curvature="0"
   style="fill:#ffffff;fill-opacity:1" />
	<path
   d="m 54.680221,46.084594 c -0.05766,-0.0436 -0.115222,-0.08566 -0.170707,-0.131715 0.05548,0.04605 0.113774,0.0873 0.170707,0.131715 z"
   id="path3515"
   inkscape:connector-curvature="0"
   style="fill:#ffffff;fill-opacity:1" />
	<path
   d="m 56.973448,41.449677 c -0.03192,-0.06602 -0.06085,-0.133764 -0.08814,-0.200064 0.02729,0.0663 0.05622,0.134045 0.08814,0.200064 z"
   id="path3517"
   inkscape:connector-curvature="0"
   style="fill:#ffffff;fill-opacity:1" />
	<path
   d="m 55.843465,46.792288 c -0.117243,-0.05542 -0.232314,-0.113294 -0.34603,-0.174337 0.112991,0.06186 0.227243,0.119008 0.34603,0.174337 z"
   id="path3519"
   inkscape:connector-curvature="0"
   style="fill:#ffffff;fill-opacity:1" />
	<path
   d="m 45.306316,57.807252 c 8.19e-4,7.21e-4 8.19e-4,7.21e-4 0,0 -0.01263,-0.0038 -0.0268,-0.0076 -0.0418,-0.01213 0.01417,0.0038 0.02916,0.0083 0.0418,0.01213 z"
   id="path3521"
   inkscape:connector-curvature="0"
   style="fill:#ffffff;fill-opacity:1" />
	<path
   d="m 40.160397,58.920357 c -0.0025,-0.0037 -0.0051,-0.0074 -0.0084,-0.01184 -0.0841,-0.133895 -0.163653,-0.26961 -0.238865,-0.410222 -0.0096,-0.01872 -0.01933,-0.03744 -0.02899,-0.05615 -0.06837,-0.130217 -0.132223,-0.262253 -0.192349,-0.396834 -0.0054,-0.01202 -0.01159,-0.02478 -0.01787,-0.03907 0,0 -8.19e-4,-7.23e-4 -9.13e-4,-0.0023 0.162969,0.372364 0.359579,0.724918 0.585201,1.057945 -0.03224,-0.04592 -0.06684,-0.09246 -0.09773,-0.141559 z"
   id="path3523"
   inkscape:connector-curvature="0"
   style="fill:#ffffff;fill-opacity:1" />
	<path
   d="m 39.337203,57.061365 c 0,0 -8.18e-4,-7.23e-4 0,0 0.08922,0.318928 0.201212,0.630294 0.331064,0.929761 -0.130577,-0.298651 -0.241026,-0.61011 -0.331064,-0.929761 z"
   id="path3525"
   inkscape:connector-curvature="0"
   style="fill:#ffffff;fill-opacity:1" />
	<path
   d="m 47.761979,61.625056 c -0.01071,0.0022 -0.02214,0.0052 -0.0344,0.0075 -0.347472,0.0806 -0.697712,0.141293 -1.042277,0.180788 -0.02542,0.0023 -0.05074,0.0062 -0.0778,0.0071 -0.159306,0.01664 -0.3188,0.03021 -0.478765,0.03607 -0.0216,0.0013 -0.04167,0.0025 -0.06246,0.0046 -0.180942,0.0048 -0.359708,0.0072 -0.536584,0.0025 -0.0061,3.76e-4 -0.01326,-0.0015 -0.02025,-0.0019 -0.147459,-0.0049 -0.293751,-0.01611 -0.439319,-0.0281 -0.0148,-0.0014 -0.02951,-0.0013 -0.04277,-0.0028 -0.03895,-0.0038 -0.0772,-0.0084 -0.114609,-0.01234 -0.05149,-0.0061 -0.103174,-0.01535 -0.155486,-0.02221 l 0,0 c 0.967502,0.128809 1.983989,0.07084 3.004706,-0.171193 z"
   id="path3527"
   inkscape:connector-curvature="0"
   style="fill:#ffffff;fill-opacity:1" />
	<path
   d="m 40.717225,59.666483 c -0.08165,-0.09388 -0.160394,-0.191034 -0.235332,-0.289189 -0.01685,-0.02214 -0.03524,-0.04419 -0.05207,-0.06634 -8.19e-4,-7.22e-4 -0.0018,-0.0029 -0.0025,-0.0037 0.119017,0.160345 0.24846,0.313876 0.383888,0.463954 -0.03158,-0.03515 -0.06389,-0.06947 -0.09393,-0.104718 z"
   id="path3529"
   inkscape:connector-curvature="0"
   style="fill:#ffffff;fill-opacity:1" />
	<path
   d="m 45.415599,57.833812 c 0.03215,0.0065 0.06367,0.01544 0.09656,0.02116 l 0,0 c -0.03207,-0.005 -0.06513,-0.0138 -0.09656,-0.02116 -7.25e-4,8.16e-4 -7.25e-4,8.16e-4 0,0 z"
   id="path3531"
   inkscape:connector-curvature="0"
   style="fill:#ffffff;fill-opacity:1" />
	<path
   d="m 42.870074,61.269285 c -0.146596,-0.06676 -0.291206,-0.139058 -0.433831,-0.216876 -0.03691,-0.02092 -0.07382,-0.04185 -0.110817,-0.06431 -0.107547,-0.06142 -0.213006,-0.126824 -0.317838,-0.194586 -0.04038,-0.02689 -0.07828,-0.05162 -0.117114,-0.0786 0.327532,0.226432 0.673874,0.418513 1.032853,0.576617 -0.01673,-0.0075 -0.03499,-0.01486 -0.05326,-0.02225 z"
   id="path3533"
   inkscape:connector-curvature="0"
   style="fill:#ffffff;fill-opacity:1" />
	<path
   d="m 48.891344,61.285287 c -0.165206,0.05948 -0.328962,0.117319 -0.493913,0.168283 0.164132,-0.05168 0.327888,-0.10953 0.493913,-0.168283 0,0 0,0 0,0 z"
   id="path3535"
   inkscape:connector-curvature="0"
   style="fill:#ffffff;fill-opacity:1" />
	<path
   d="m 41.143383,60.112421 c -0.03376,-0.0327 -0.06597,-0.06549 -0.09891,-0.09747 0.03376,0.0327 0.06525,0.06631 0.100539,0.09892 -8.19e-4,-7.22e-4 -8.19e-4,-7.22e-4 -0.0016,-0.0014 z"
   id="path3537"
   inkscape:connector-curvature="0"
   style="fill:#ffffff;fill-opacity:1" />
	<path
   d="m 48.382187,61.457587 c -0.01144,0.0031 -0.02132,0.0059 -0.03276,0.0089 -0.08294,0.02435 -0.166051,0.04562 -0.249802,0.06926 -0.09292,0.02573 -0.185739,0.053 -0.278844,0.07566 -0.01298,0.0031 -0.0275,0.0063 -0.03965,0.01014 0.203815,-0.0487 0.408704,-0.105176 0.612396,-0.168538 -0.003,0.0017 -0.0068,0.0027 -0.01134,0.0046 z"
   id="path3539"
   inkscape:connector-curvature="0"
   style="fill:#ffffff;fill-opacity:1" />
	<path
   d="m 45.61952,57.875466 c 0.03287,0.0057 0.06812,0.01208 0.100911,0.01625 8.18e-4,7.23e-4 8.18e-4,7.23e-4 8.18e-4,7.23e-4 0,0 0,0 8.19e-4,7.21e-4 -0.03515,-0.0048 -0.07039,-0.01116 -0.105634,-0.01752 0.0015,-9.5e-5 0.0023,-9.11e-4 0.0031,-1.89e-4 z"
   id="path3541"
   inkscape:connector-curvature="0"
   style="fill:#ffffff;fill-opacity:1" />
	<polygon
   points="41.543,51.911 41.543,51.911 41.545,51.914 41.546,51.914 41.547,51.915 "
   id="polygon3543"
   transform="matrix(0.72456632,-0.81635171,0.81871633,0.72247363,-26.365457,54.340807)"
   style="fill:#ffffff;fill-opacity:1" />
	<path
   d="m 47.45933,57.779768 c 7.25e-4,-8.16e-4 7.25e-4,-8.16e-4 0,0 0.05717,-0.01507 0.112791,-0.03003 0.169864,-0.04662 7.24e-4,-8.16e-4 0.0014,-0.0016 0.003,-0.0017 8.18e-4,7.23e-4 0.0015,-9.4e-5 0.0031,-1.88e-4 -0.05934,0.01751 -0.119594,0.03276 -0.17821,0.04945 7.24e-4,-8.17e-4 0.0023,-9.1e-4 0.0023,-9.1e-4 z"
   id="path3545"
   inkscape:connector-curvature="0"
   style="fill:#ffffff;fill-opacity:1" />
	<rect
   x="41.375"
   y="49.18"
   fill="none"
   width="0.001"
   height="0"
   id="rect3547" />
	<path
   d="m 48.042187,57.596808 c 0.01443,-0.0047 0.02649,-0.01014 0.04164,-0.01566 l 0,0 c -0.01742,0.0064 -0.03257,0.01202 -0.04926,0.01767 0.0014,-0.0016 0.0045,-0.0019 0.0077,-0.002 z"
   id="path3549"
   inkscape:connector-curvature="0"
   style="fill:#ffffff;fill-opacity:1" />
	<path
   d="m 48.117845,57.567493 c 0.06432,-0.02477 0.129362,-0.05034 0.192768,-0.07737 l 0,0 c -0.06413,0.02784 -0.130717,0.05351 -0.194311,0.07747 8.19e-4,7.21e-4 0.0015,-9.4e-5 0.0015,-9.4e-5 z"
   id="path3551"
   inkscape:connector-curvature="0"
   style="fill:#ffffff;fill-opacity:1" />
	<path
   d="m 46.778378,57.903824 c 0.0046,-2.82e-4 0.01082,-6.57e-4 0.01626,-2.16e-4 0.03766,-0.0046 0.07524,-0.01079 0.112819,-0.01691 8.19e-4,7.22e-4 8.19e-4,7.22e-4 0.0024,6.29e-4 -0.04466,0.0043 -0.0875,0.01305 -0.131433,0.01649 l 0,0 z"
   id="path3553"
   inkscape:connector-curvature="0"
   style="fill:#ffffff;fill-opacity:1" />
	<polygon
   points="41.718,52.101 41.713,52.095 41.718,52.1 "
   id="polygon3555"
   transform="matrix(0.72456632,-0.81635171,0.81871633,0.72247363,-26.365457,54.340807)"
   style="fill:#ffffff;fill-opacity:1" />
	<path
   d="m 47.237813,57.830312 0,0 c 0.05499,-0.01261 0.111625,-0.02378 0.166524,-0.03794 l 0,0 c -0.05571,0.01343 -0.112255,0.02613 -0.168066,0.03802 0,0 8.19e-4,7.22e-4 0.0015,-9.4e-5 z"
   id="path3557"
   inkscape:connector-curvature="0"
   style="fill:#ffffff;fill-opacity:1" />
	<path
   d="m 48.599043,57.355964 c 0.01049,-0.0052 0.02259,-0.01068 0.0331,-0.01592 -0.01125,0.0061 -0.02259,0.01068 -0.03383,0.01673 0,0 0,0 7.24e-4,-8.16e-4 z"
   id="path3559"
   inkscape:connector-curvature="0"
   style="fill:#ffffff;fill-opacity:1" />
	<path
   d="m 45.826594,57.905345 c 0.02035,0.0034 0.03977,0.0046 0.06003,0.0064 8.19e-4,7.22e-4 8.19e-4,7.22e-4 8.19e-4,7.22e-4 -0.02179,-0.0017 -0.04287,-0.0044 -0.06394,-0.0069 0.0015,-9.4e-5 0.0031,-1.87e-4 0.0031,-1.87e-4 z"
   id="path3561"
   inkscape:connector-curvature="0"
   style="fill:#ffffff;fill-opacity:1" />
	<path
   d="m 37.819472,52.92702 c -0.03074,0.01655 -0.06139,0.03462 -0.09213,0.05117 -0.09213,0.05117 -0.183449,0.103061 -0.273853,0.157213 0.0904,-0.05416 0.181719,-0.106049 0.273853,-0.157213 0.03074,-0.01654 0.06139,-0.03462 0.09213,-0.05117 z"
   id="path3563"
   inkscape:connector-curvature="0"
   style="fill:#ffffff;fill-opacity:1" />
	<path
   d="m 30.598357,71.429051 c 0.0067,0.0073 0.0141,0.01536 0.02075,0.02268 -0.0067,-0.0073 -0.01328,-0.01464 -0.02075,-0.02268 z"
   id="path3565"
   inkscape:connector-curvature="0"
   style="fill:#ffffff;fill-opacity:1" />
	<path
   d="m 30.458017,71.274637 c 0.0025,0.0037 0.0051,0.0074 0.0084,0.01036 -0.0025,-0.0037 -0.0058,-0.0066 -0.0084,-0.01036 z"
   id="path3567"
   inkscape:connector-curvature="0"
   style="fill:#ffffff;fill-opacity:1" />
	<path
   d="m 26.726246,70.575683 c 0.08174,-0.03123 0.163662,-0.05938 0.245682,-0.08599 -0.08202,0.02661 -0.163945,0.05477 -0.245682,0.08599 z"
   id="path3569"
   inkscape:connector-curvature="0"
   style="fill:#ffffff;fill-opacity:1" />
	<polygon
   points="22.901,48.823 22.901,48.826 22.901,48.826 "
   id="polygon3571"
   transform="matrix(0.72456632,-0.81635171,0.81871633,0.72247363,-26.365457,54.340807)"
   style="fill:#ffffff;fill-opacity:1" />
	<path
   d="m 27.975818,70.276483 c 0.0078,-4.7e-4 0.0139,-8.45e-4 0.0216,-0.0013 -0.0078,4.7e-4 -0.01389,8.45e-4 -0.0216,0.0013 z"
   id="path3573"
   inkscape:connector-curvature="0"
   style="fill:#ffffff;fill-opacity:1" />
	<path
   d="m 43.790075,63.305418 c 0.01947,-0.02358 0.03812,-0.04788 0.05686,-0.07064 -0.01874,0.02276 -0.03739,0.04706 -0.05686,0.07064 z"
   id="path3575"
   inkscape:connector-curvature="0"
   style="fill:#ffffff;fill-opacity:1" />
	<path
   d="m 47.13669,62.418379 c -0.03758,0.0061 -0.07597,0.01157 -0.112725,0.01844 0.03604,-0.0061 0.07134,-0.01129 0.107372,-0.01734 0.0015,-9.4e-5 0.0038,-0.001 0.0054,-0.0011 z"
   id="path3577"
   inkscape:connector-curvature="0"
   style="fill:#ffffff;fill-opacity:1" />
	<path
   d="m 44.001215,63.034634 c 0.01711,-0.02421 0.03576,-0.04851 0.05359,-0.07354 -0.01701,0.02575 -0.03648,0.04933 -0.05359,0.07354 z"
   id="path3579"
   inkscape:connector-curvature="0"
   style="fill:#ffffff;fill-opacity:1" />
	<path
   d="m 48.224709,62.187699 c 0.0023,-9.1e-4 0.0054,-0.0011 0.0077,-0.002 -0.04945,0.0146 -0.100441,0.02928 -0.151533,0.04243 h 0 c 0.04801,-0.01296 0.09754,-0.02601 0.14391,-0.04042 z"
   id="path3581"
   inkscape:connector-curvature="0"
   style="fill:#ffffff;fill-opacity:1" />
	<path
   d="m 44.207507,62.747927 c 0.01122,-0.01922 0.02325,-0.03771 0.0361,-0.05549 -0.01286,0.01777 -0.02488,0.03627 -0.0361,0.05549 z"
   id="path3583"
   inkscape:connector-curvature="0"
   style="fill:#ffffff;fill-opacity:1" />
	<path
   d="m 46.024606,62.521552 c -0.02006,0.0012 -0.04022,9.01e-4 -0.0611,0.0014 0.01934,-4.04e-4 0.03949,-8.5e-5 0.05874,-0.0021 8.19e-4,7.23e-4 0.0015,-9.3e-5 0.0024,6.29e-4 z"
   id="path3585"
   inkscape:connector-curvature="0"
   style="fill:#ffffff;fill-opacity:1" />
	<path
   d="m 48.633761,62.075549 c -0.185837,0.507107 -0.410634,1.010403 -0.676938,1.506187 0.267029,-0.496599 0.491101,-0.99908 0.676938,-1.506187 z"
   id="path3587"
   inkscape:connector-curvature="0"
   style="fill:#ffffff;fill-opacity:1" />
	<path
   d="m 34.690159,76.847881 c -0.04843,0.107204 -0.09613,0.213591 -0.147656,0.320982 -0.02269,0.04694 -0.04691,0.09398 -0.07033,0.141743 0.09302,-0.188687 0.183668,-0.378004 0.26651,-0.568389 0,0 -7.25e-4,8.16e-4 -7.25e-4,8.16e-4 -0.0149,0.03488 -0.03136,0.06987 -0.0478,0.104849 z"
   id="path3589"
   inkscape:connector-curvature="0"
   style="fill:#ffffff;fill-opacity:1" />
	<path
   d="m 47.951939,63.590528 c -0.07975,0.152356 -0.165856,0.302009 -0.253603,0.450219 0.08857,-0.147487 0.173856,-0.297863 0.253603,-0.450219 z"
   id="path3591"
   inkscape:connector-curvature="0"
   style="fill:#ffffff;fill-opacity:1" />
	<path
   d="m 25.940773,70.940869 0,0 c 0.110907,-0.06081 0.222822,-0.117812 0.333381,-0.171646 -0.111284,0.05465 -0.223293,0.110118 -0.333381,0.171646 z"
   id="path3593"
   inkscape:connector-curvature="0"
   style="fill:#ffffff;fill-opacity:1" />
	<path
   d="m 47.323195,64.631189 c -0.07095,0.106255 -0.1459,0.21044 -0.220756,0.316161 0.07568,-0.105002 0.149806,-0.209905 0.220756,-0.316161 z"
   id="path3595"
   inkscape:connector-curvature="0"
   style="fill:#ffffff;fill-opacity:1" />
	<path
   d="m 46.654388,65.53605 c -0.116627,0.14456 -0.237159,0.288585 -0.362509,0.429813 0.12535,-0.141228 0.245157,-0.284438 0.362509,-0.429813 z"
   id="path3597"
   inkscape:connector-curvature="0"
   style="fill:#ffffff;fill-opacity:1" />
	<path
   d="m 26.375106,70.722923 c 0.07982,-0.03729 0.159822,-0.0715 0.239921,-0.104173 -0.0801,0.03267 -0.160104,0.06689 -0.239921,0.104173 z"
   id="path3599"
   inkscape:connector-curvature="0"
   style="fill:#ffffff;fill-opacity:1" />
	<path
   d="m 46.998348,65.094236 c -0.07722,0.105089 -0.159254,0.20739 -0.241195,0.311227 0.08194,-0.103836 0.163977,-0.206133 0.241195,-0.311227 z"
   id="path3601"
   inkscape:connector-curvature="0"
   style="fill:#ffffff;fill-opacity:1" />
	<path
   d="m 45.47785,62.522376 c 7.25e-4,-8.17e-4 7.25e-4,-8.17e-4 0,0 -0.02261,-0.0025 -0.04513,-0.0034 -0.0692,-0.0043 8.19e-4,7.23e-4 8.19e-4,7.23e-4 8.19e-4,7.23e-4 0.02324,1.31e-4 0.04503,0.0019 0.06837,0.0036 z"
   id="path3603"
   inkscape:connector-curvature="0"
   style="fill:#ffffff;fill-opacity:1" />
	<path
   d="m 70.472049,20.923154 c -0.09145,0.11291 -0.176548,0.228522 -0.260918,0.343316 0.08427,-0.116333 0.169463,-0.230406 0.260918,-0.343316 z"
   id="path3605"
   inkscape:connector-curvature="0"
   style="fill:#ffffff;fill-opacity:1" />
	<path
   d="m 66.832909,19.77605 c 0.02334,-0.03617 0.04669,-0.07234 0.07086,-0.107793 -0.02416,0.03545 -0.04752,0.07162 -0.07086,0.107793 z"
   id="path3607"
   inkscape:connector-curvature="0"
   style="fill:#ffffff;fill-opacity:1" />
	<path
   d="m 69.516379,22.43085 c 0.185022,-0.381175 0.405917,-0.758355 0.663973,-1.123121 -0.2596,0.364861 -0.482856,0.741411 -0.667879,1.122587 8.19e-4,7.21e-4 0.0031,-1.89e-4 0.0039,5.34e-4 z"
   id="path3609"
   inkscape:connector-curvature="0"
   style="fill:#ffffff;fill-opacity:1" />
	<path
   d="m 66.877344,30.781373 c -0.005,-0.0059 -0.01006,-0.01175 -0.01502,-0.01762 0.0058,0.0066 0.01082,0.01247 0.01502,0.01762 z"
   id="path3611"
   inkscape:connector-curvature="0"
   style="fill:#ffffff;fill-opacity:1" />
	<path
   d="m 67.176514,31.075946 c -0.01556,-0.01373 -0.02884,-0.02837 -0.04368,-0.04291 0.01483,0.01454 0.02812,0.02918 0.04368,0.04291 z"
   id="path3613"
   inkscape:connector-curvature="0"
   style="fill:#ffffff;fill-opacity:1" />
	<path
   d="m 67.175278,19.270234 c 0.03141,-0.04362 0.062,-0.08795 0.09341,-0.131563 -0.03141,0.04362 -0.062,0.08795 -0.09341,0.131563 z"
   id="path3615"
   inkscape:connector-curvature="0"
   style="fill:#ffffff;fill-opacity:1" />
	<path
   d="m 48.741677,56.522497 c 0.07399,-0.04389 0.147984,-0.08778 0.220149,-0.136183 -0.249473,-0.86213 -0.651242,-1.656304 -1.209122,-2.343674 0.55788,0.68737 0.958924,1.482359 1.209122,2.343674 -0.07217,0.04841 -0.146063,0.09384 -0.220149,0.136183 z"
   id="path3617"
   inkscape:connector-curvature="0"
   style="fill:#ffffff;fill-opacity:1" />
	<path
   d="m 70.097421,28.1173 c -0.08386,-0.06672 -0.161823,-0.138433 -0.236892,-0.213412 0,0 0,0 0,0 0.07507,0.07498 0.153035,0.146691 0.236892,0.213412 z"
   id="path3619"
   inkscape:connector-curvature="0"
   style="fill:#ffffff;fill-opacity:1" />
	<path
   d="m 27.418178,70.365236 c 0.180318,-0.04031 0.359847,-0.06822 0.535405,-0.08509 -0.289573,0.02688 -0.587877,0.08828 -0.887479,0.179094 0.11024,-0.03374 0.222937,-0.0653 0.333742,-0.08981 0.0054,-0.0011 0.01152,-0.0015 0.01834,-0.0043 z"
   id="path3621"
   inkscape:connector-curvature="0"
   style="fill:#ffffff;fill-opacity:1" />
	<path
   d="m 29.968383,70.74066 c 0.017,0.01209 0.03473,0.02337 0.05101,0.03628 0.06156,0.04414 0.123315,0.09135 0.180625,0.141923 -0.132632,-0.117041 -0.276574,-0.216404 -0.428206,-0.302169 0.01363,0.0076 0.02573,0.01542 0.03855,0.02237 0.053,0.03075 0.107001,0.06531 0.15802,0.101589 z"
   id="path3623"
   inkscape:connector-curvature="0"
   style="fill:#ffffff;fill-opacity:1" />
	<path
   d="m 29.69501,70.576577 c -0.05672,-0.02821 -0.111165,-0.05734 -0.17078,-0.08228 0.01427,0.0053 0.03016,0.01207 0.04371,0.0182 0.04309,0.02055 0.08399,0.04354 0.127069,0.06409 z"
   id="path3625"
   inkscape:connector-curvature="0"
   style="fill:#ffffff;fill-opacity:1" />
	<polygon
   points="37.359,53.395 37.36,53.395 37.36,53.396 37.359,53.395 37.354,53.395 "
   id="polygon3627"
   transform="matrix(0.72456632,-0.81635171,0.81871633,0.72247363,-26.365457,54.340807)"
   style="fill:#ffffff;fill-opacity:1" />
	<path
   d="m 29.294334,70.407881 c 0.01745,0.0066 0.0348,0.01179 0.05143,0.01773 0.01263,0.0038 0.02299,0.0086 0.0349,0.01332 -0.102136,-0.03626 -0.206435,-0.07007 -0.314081,-0.09519 l 0,0 c 0.07703,0.01848 0.152712,0.04014 0.22776,0.06414 z"
   id="path3629"
   inkscape:connector-curvature="0"
   style="fill:#ffffff;fill-opacity:1" />
	<rect
   x="40.153"
   y="56.071"
   fill="none"
   width="0"
   height="0.001"
   id="rect3631" />
	<path
   d="m 34.307891,77.625649 c -0.02089,0.03834 -0.04105,0.07586 -0.06277,0.113481 -0.01683,0.02882 -0.03283,0.05838 -0.04812,0.0871 -0.04666,0.08547 -0.09578,0.168776 -0.146445,0.252175 -0.02316,0.03926 -0.04713,0.07778 -0.07029,0.117028 -0.0056,0.0096 -0.01194,0.02004 -0.01683,0.02882 0.180847,-0.297515 0.348341,-0.59808 0.501756,-0.900877 -0.0042,0.008 -0.0091,0.01677 -0.0132,0.02475 -0.04773,0.09326 -0.09557,0.184982 -0.144119,0.27752 z"
   id="path3633"
   inkscape:connector-curvature="0"
   style="fill:#ffffff;fill-opacity:1" />
	<path
   d="m 28.829143,70.298714 c 0.01562,0.0022 0.03133,0.0058 0.04705,0.0095 -0.100998,-0.0178 -0.203169,-0.02935 -0.306692,-0.03772 0.07156,0.0049 0.140939,0.01227 0.211234,0.0219 0.01562,0.0022 0.03207,0.005 0.04841,0.0063 z"
   id="path3635"
   inkscape:connector-curvature="0"
   style="fill:#ffffff;fill-opacity:1" />
	<path
   d="m 28.27386,70.261442 c 0.08825,-7.34e-4 0.176593,7e-5 0.262951,0.0064 0.0024,6.29e-4 0.0055,4.42e-4 0.0085,2.53e-4 -0.150828,-0.0094 -0.306352,-0.0069 -0.462948,0.0035 0.05474,-0.0041 0.110298,-0.0075 0.163683,-0.0084 0.0093,-5.63e-4 0.01852,-0.0011 0.02778,-0.0016 z"
   id="path3637"
   inkscape:connector-curvature="0"
   style="fill:#ffffff;fill-opacity:1" />
	<path
   d="m 47.636458,64.143361 c -0.07338,0.117216 -0.145937,0.235155 -0.222401,0.352559 0.07646,-0.117404 0.149841,-0.23462 0.222401,-0.352559 z"
   id="path3639"
   inkscape:connector-curvature="0"
   style="fill:#ffffff;fill-opacity:1" />
	<path
   d="m 28.443343,62.42334 c -0.05768,0.06992 -0.11146,0.140385 -0.165962,0.21166 0.0545,-0.07127 0.10828,-0.141735 0.165962,-0.21166 z"
   id="path3641"
   inkscape:connector-curvature="0"
   style="fill:#ffffff;fill-opacity:1" />
	<path
   d="m 37.369791,53.185285 c 0.02013,-0.01281 0.04107,-0.0249 0.06274,-0.03779 -0.02249,0.01218 -0.04262,0.02499 -0.06274,0.03779 -0.101644,0.06024 -0.200115,0.121836 -0.299308,0.184246 -0.0014,0.0016 -0.0037,0.0025 -0.0059,0.005 0.0014,-0.0016 0.0045,-0.0034 0.0059,-0.005 0.09919,-0.06241 0.19766,-0.124004 0.299308,-0.184246 z"
   id="path3643"
   inkscape:connector-curvature="0"
   style="fill:#ffffff;fill-opacity:1" />
	<path
   d="m 36.493909,53.769119 c -0.151294,0.109599 -0.300039,0.222904 -0.447683,0.341548 -0.263566,0.211419 -0.521655,0.436406 -0.772723,0.674866 0.250343,-0.237643 0.508432,-0.46263 0.772723,-0.674866 0.146825,-0.119366 0.296389,-0.231949 0.447683,-0.341548 z"
   id="path3645"
   inkscape:connector-curvature="0"
   style="fill:#ffffff;fill-opacity:1" />
	<path
   d="m 39.389122,52.226074 c -0.275887,0.09865 -0.551116,0.208059 -0.823953,0.331229 0.272837,-0.12317 0.546804,-0.227876 0.822692,-0.326519 6.31e-4,-0.0024 5.36e-4,-0.0039 0.0013,-0.0047 z"
   id="path3647"
   inkscape:connector-curvature="0"
   style="fill:#ffffff;fill-opacity:1" />
	<path
   d="m 38.501857,52.585868 c -0.0068,0.0027 -0.01361,0.0055 -0.02041,0.0082 -0.02177,0.01136 -0.04362,0.02119 -0.06539,0.03255 0.02177,-0.01136 0.04362,-0.02119 0.06539,-0.03255 0.0068,-0.0027 0.01361,-0.0055 0.02041,-0.0082 z"
   id="path3649"
   inkscape:connector-curvature="0"
   style="fill:#ffffff;fill-opacity:1" />
	<path
   d="m 24.630431,71.019032 c -0.0045,0.0034 -0.0096,0.0075 -0.01477,0.01171 0.0051,-0.0041 0.01039,-0.0084 0.01477,-0.01171 z"
   id="path3651"
   inkscape:connector-curvature="0"
   style="fill:#ffffff;fill-opacity:1" />
	<path
   d="m 30.19971,77.268541 c 0.01082,-0.01378 0.02227,-0.02839 0.03305,-0.04217 -0.09706,0.122519 -0.195763,0.243591 -0.300825,0.361963 0.07535,-0.0849 0.147623,-0.169613 0.218254,-0.255771 0.01648,-0.02186 0.03223,-0.04289 0.04953,-0.06402 z"
   id="path3653"
   inkscape:connector-curvature="0"
   style="fill:#ffffff;fill-opacity:1" />
	<path
   d="m 33.001455,79.577889 c -0.113098,0.138939 -0.229376,0.276527 -0.348929,0.411226 0.120278,-0.135515 0.236556,-0.273102 0.348929,-0.411226 z"
   id="path3655"
   inkscape:connector-curvature="0"
   style="fill:#ffffff;fill-opacity:1" />
	<path
   d="m 30.359782,77.061873 c 0.0143,-0.01941 0.02861,-0.03881 0.04291,-0.05821 0.05422,-0.07589 0.108444,-0.151784 0.161841,-0.228398 7.23e-4,-8.17e-4 0.0022,-0.0024 0.0028,-0.0048 0.0022,-0.0024 0.0035,-0.0057 0.0057,-0.0081 l 0,0 c -0.08452,0.124845 -0.173056,0.247616 -0.267851,0.369224 h 0 c 0.01865,-0.0243 0.03667,-0.04626 0.0546,-0.06974 z"
   id="path3657"
   inkscape:connector-curvature="0"
   style="fill:#ffffff;fill-opacity:1" />
	<path
   d="m 39.890308,52.062755 c 0.0167,-0.0057 0.03267,-0.01046 0.04935,-0.01613 -0.0167,0.0057 -0.03267,0.01047 -0.04935,0.01613 -0.167407,0.04879 -0.334437,0.103748 -0.501186,0.163319 0.135723,-0.04764 0.272453,-0.09148 0.408552,-0.132972 0.03194,-0.0097 0.06214,-0.02231 0.09264,-0.03035 z"
   id="path3659"
   inkscape:connector-curvature="0"
   style="fill:#ffffff;fill-opacity:1" />
	<path
   d="m 45.320448,52.215111 0,0 c -0.07789,-0.03233 -0.15721,-0.06303 -0.236446,-0.09219 -0.03172,-0.01197 -0.06116,-0.02486 -0.09123,-0.03539 0.03008,0.01057 0.06106,0.02332 0.09123,0.03539 0.07923,0.02916 0.157746,0.05914 0.236446,0.09219 z"
   id="path3661"
   inkscape:connector-curvature="0"
   style="fill:#ffffff;fill-opacity:1" />
	<path
   d="m 23.965284,71.603948 0,0 c 0.03941,-0.03946 0.08218,-0.0745 0.122415,-0.113249 -0.04032,0.03721 -0.08146,0.07369 -0.120967,0.111616 0,0 -7.23e-4,8.16e-4 -0.0014,0.0016 z"
   id="path3663"
   inkscape:connector-curvature="0"
   style="fill:#ffffff;fill-opacity:1" />
	<path
   d="m 46.023501,52.566205 c -0.0105,-0.0063 -0.0201,-0.0119 -0.03055,-0.01822 -0.012,-0.0062 -0.024,-0.01244 -0.03681,-0.01938 0.01281,0.007 0.02482,0.01317 0.03681,0.01938 0.0096,0.0056 0.0201,0.0119 0.03055,0.01822 z"
   id="path3665"
   inkscape:connector-curvature="0"
   style="fill:#ffffff;fill-opacity:1" />
	<path
   d="m 45.660719,52.371264 c 0.02082,0.01109 0.04235,0.02137 0.06235,0.03173 -0.02226,-0.0095 -0.04235,-0.02137 -0.06235,-0.03173 -0.06944,-0.03362 -0.138784,-0.06569 -0.208855,-0.09696 -0.02944,-0.01289 -0.06052,-0.02721 -0.08998,-0.04009 0.03026,0.0136 0.06053,0.02721 0.08998,0.04009 0.06925,0.03054 0.139415,0.06334 0.208855,0.09696 z"
   id="path3667"
   inkscape:connector-curvature="0"
   style="fill:#ffffff;fill-opacity:1" />
	<path
   d="m 46.744729,53.049798 c 0.09923,0.07737 0.196275,0.157189 0.292884,0.242441 -0.09661,-0.08525 -0.19366,-0.165071 -0.292884,-0.242441 -0.03184,-0.02663 -0.06575,-0.04929 -0.09822,-0.07357 -0.02929,-0.02294 -0.0592,-0.04351 -0.08911,-0.06409 0.02919,0.02139 0.0591,0.04197 0.08911,0.06409 0.03174,0.0251 0.06565,0.04775 0.09822,0.07357 z"
   id="path3669"
   inkscape:connector-curvature="0"
   style="fill:#ffffff;fill-opacity:1" />
	<path
   d="m 40.938333,51.81134 c 7.24e-4,-8.15e-4 7.24e-4,-8.15e-4 0,0 0.0314,-0.0058 0.06126,-0.01145 0.09193,-0.01641 0.01606,-0.0033 0.03376,-0.0051 0.05137,-0.0085 -0.0176,0.0034 -0.0353,0.0052 -0.05137,0.0085 -0.08205,0.01349 -0.161641,0.02914 -0.24205,0.04408 -0.02369,0.0053 -0.04592,0.0089 -0.06879,0.015 0.02287,-0.006 0.0451,-0.0097 0.06879,-0.015 0.05055,-0.0093 0.101108,-0.01851 0.150111,-0.02767 z"
   id="path3671"
   inkscape:connector-curvature="0"
   style="fill:#ffffff;fill-opacity:1" />
	<path
   d="m 41.812601,51.694832 c 0.0393,-0.0032 0.08025,-0.0049 0.120376,-0.0073 0.0061,-3.75e-4 0.01316,-2.9e-5 0.02088,-4.99e-4 0.03396,-0.0021 0.06809,-0.0011 0.10277,-0.0039 0.107306,-0.0058 0.215335,-0.01233 0.321379,-0.01338 -0.147807,0.0021 -0.295332,0.0087 -0.44503,0.0178 -0.04012,0.0024 -0.08025,0.0049 -0.120376,0.0073 -0.07862,0.0063 -0.157858,0.01501 -0.236283,0.02441 -0.03004,0.0026 -0.05928,0.0059 -0.09004,0.0094 0.03004,-0.0026 0.06,-0.0068 0.09004,-0.0094 0.07924,-0.0087 0.158393,-0.0189 0.236283,-0.02441 z"
   id="path3673"
   inkscape:connector-curvature="0"
   style="fill:#ffffff;fill-opacity:1" />
	<path
   d="m 40.341282,51.93956 c -0.0275,0.0063 -0.05726,0.01352 -0.08539,0.02218 -0.05417,0.01333 -0.109078,0.02748 -0.162336,0.04308 0.05407,-0.01487 0.10816,-0.02975 0.162336,-0.04308 0.02813,-0.0086 0.05789,-0.01588 0.08539,-0.02218 z"
   id="path3675"
   inkscape:connector-curvature="0"
   style="fill:#ffffff;fill-opacity:1" />
	<path
   d="m 42.760798,51.672678 c 0.06519,0.0022 0.128845,0.0045 0.193316,0.0075 0.05285,0.0029 0.105787,0.0074 0.158732,0.01197 -0.05294,-0.0045 -0.105885,-0.009 -0.158732,-0.01197 -0.06375,-0.0038 -0.12894,-0.0061 -0.193316,-0.0075 -0.06437,-0.0015 -0.130389,-0.0045 -0.195489,-0.0051 -0.0217,-2.24e-4 -0.04104,1.8e-4 -0.06192,6.77e-4 0.0217,2.25e-4 0.04104,-1.79e-4 0.06192,-6.77e-4 0.06583,-1.43e-4 0.130294,0.0028 0.195489,0.0051 z"
   id="path3677"
   inkscape:connector-curvature="0"
   style="fill:#ffffff;fill-opacity:1" />
	<path
   d="m 43.521235,51.733767 c 0.06639,0.009 0.133599,0.0189 0.199264,0.02881 0.05786,0.0088 0.116528,0.0184 0.173752,0.02959 0.07049,0.0127 0.139612,0.02857 0.210189,0.04282 0.0526,0.01148 0.105099,0.02141 0.157058,0.03524 0.03061,0.0067 0.05905,0.01571 0.08812,0.02245 -0.02907,-0.0068 -0.05751,-0.01581 -0.08812,-0.02245 -0.05114,-0.0131 -0.104464,-0.02377 -0.157058,-0.03524 -0.07057,-0.01424 -0.139705,-0.03012 -0.210189,-0.04282 -0.05794,-0.01036 -0.115079,-0.02003 -0.173752,-0.02959 -0.06566,-0.0099 -0.132874,-0.01972 -0.199264,-0.02881 -0.06094,-0.0086 -0.121788,-0.01576 -0.183359,-0.02205 -0.04677,-0.0049 -0.09344,-0.0082 -0.140214,-0.01309 0.04595,0.0041 0.09262,0.0075 0.140214,0.01309 0.06157,0.0063 0.122418,0.01341 0.183359,0.02205 z"
   id="path3679"
   inkscape:connector-curvature="0"
   style="fill:#ffffff;fill-opacity:1" />
	<path
   d="m 27.738199,69.646086 c 0.04766,-0.006 0.09603,-0.01279 0.14296,-0.01796 0,0 0,0 0,0 -0.04848,0.0052 -0.09604,0.0128 -0.14296,0.01796 z"
   id="path3681"
   inkscape:connector-curvature="0"
   style="fill:#ffffff;fill-opacity:1" />
	<path
   d="m 34.7796,69.068708 c 0.0052,0.0089 0.0081,0.01882 0.0125,0.02705 0.06737,0.126415 0.132476,0.253742 0.190776,0.3838 0.0046,0.0113 0.0098,0.02179 0.01432,0.03156 0.07017,0.159455 0.133437,0.3201 0.192266,0.484106 0.0073,0.01808 0.01225,0.03555 0.01791,0.0522 0.03838,0.108098 0.06994,0.218933 0.103043,0.329671 0.0078,0.02578 0.01555,0.05157 0.02323,0.07582 -0.179164,-0.637041 -0.443591,-1.237232 -0.789257,-1.785372 0.06187,0.09973 0.123637,0.197904 0.180244,0.300263 0.01914,0.03436 0.03665,0.06727 0.05497,0.100914 z"
   id="path3683"
   inkscape:connector-curvature="0"
   style="fill:#ffffff;fill-opacity:1" />
	<path
   d="m 31.027137,70.829167 c -0.01906,0.005 -0.03719,0.01231 -0.05544,0.01804 0.0761,0.09191 0.160366,0.177908 0.251244,0.258103 -0.05931,-0.09602 -0.125342,-0.187762 -0.195808,-0.276148 l 0,0 z"
   id="path3685"
   inkscape:connector-curvature="0"
   style="fill:#ffffff;fill-opacity:1" />
	<path
   d="m 35.485189,71.081586 c -0.03839,-0.196912 -0.0852,-0.392539 -0.137917,-0.583174 0.0077,0.02425 0.01382,0.04859 0.02077,0.07365 0.04431,0.167205 0.08335,0.337048 0.117146,0.509526 z"
   id="path3687"
   inkscape:connector-curvature="0"
   style="fill:#ffffff;fill-opacity:1" />
	<path
   d="m 30.860192,70.632353 c -8.19e-4,-7.23e-4 -8.19e-4,-7.23e-4 0,0 l 0,0 c 0.05806,0.06288 0.114772,0.128938 0.166945,0.196814 -0.05053,-0.06643 -0.105514,-0.129503 -0.163481,-0.190847 -9.13e-4,-0.0023 -0.0019,-0.0045 -0.0035,-0.006 z"
   id="path3689"
   inkscape:connector-curvature="0"
   style="fill:#ffffff;fill-opacity:1" />
	<path
   d="m 33.108569,79.442403 c 0.07769,-0.09739 0.153833,-0.194703 0.226797,-0.29336 -0.07007,0.09539 -0.144037,0.190248 -0.218102,0.283564 -0.003,0.0033 -0.0066,0.0073 -0.0087,0.0098 z"
   id="path3691"
   inkscape:connector-curvature="0"
   style="fill:#ffffff;fill-opacity:1" />
	<path
   d="m 33.458833,78.977038 c -0.01286,0.01777 -0.02488,0.03627 -0.03774,0.05404 0.07712,-0.106637 0.153523,-0.212447 0.226741,-0.319614 -0.0014,0.0016 -0.0021,0.004 -0.0035,0.0057 -0.05974,0.08704 -0.123372,0.173544 -0.185468,0.259955 z"
   id="path3693"
   inkscape:connector-curvature="0"
   style="fill:#ffffff;fill-opacity:1" />
	<path
   d="m 34.407838,68.461145 c 0.01867,0.02666 0.03971,0.05396 0.05837,0.08063 0.01017,0.01483 0.01968,0.03047 0.02916,0.04611 -0.120523,-0.184965 -0.251472,-0.363118 -0.392029,-0.533737 0.02504,0.02937 0.04924,0.05802 0.07356,0.0882 0.08148,0.103934 0.156169,0.210599 0.230946,0.318802 z"
   id="path3695"
   inkscape:connector-curvature="0"
   style="fill:#ffffff;fill-opacity:1" />
	<path
   d="m 25.098996,70.676985 c 0.01039,-0.0068 0.02095,-0.01209 0.03138,-0.0189 -0.01125,0.0061 -0.02167,0.01291 -0.03138,0.0189 l 0,0 z"
   id="path3697"
   inkscape:connector-curvature="0"
   style="fill:#ffffff;fill-opacity:1" />
	<path
   d="m 33.755465,67.65982 c 0.03221,0.03279 0.06215,0.0665 0.09364,0.100107 -0.03149,-0.03361 -0.06225,-0.06803 -0.09364,-0.100107 -8.19e-4,-7.23e-4 -8.19e-4,-7.23e-4 0,0 l 0,0 z"
   id="path3699"
   inkscape:connector-curvature="0"
   style="fill:#ffffff;fill-opacity:1" />
	<polygon
   points="20.818,45.466 20.815,45.464 20.814,45.464 "
   id="polygon3701"
   transform="matrix(0.72456632,-0.81635171,0.81871633,0.72247363,-26.365457,54.340807)"
   style="fill:#ffffff;fill-opacity:1" />
	<path
   d="m 27.159893,69.751542 c 0.04573,-0.01205 0.09175,-0.01948 0.138397,-0.02927 -0.04592,0.0089 -0.09267,0.01722 -0.138397,0.02927 7.25e-4,-8.16e-4 7.25e-4,-8.16e-4 0,0 z"
   id="path3703"
   inkscape:connector-curvature="0"
   style="fill:#ffffff;fill-opacity:1" />
	<polygon
   points="23.267,47.668 23.264,47.662 23.264,47.661 "
   id="polygon3705"
   transform="matrix(0.72456632,-0.81635171,0.81871633,0.72247363,-26.365457,54.340807)"
   style="fill:#ffffff;fill-opacity:1" />
	<path
   d="m 26.668381,69.895738 c 0.0083,-0.0028 0.01742,-0.0064 0.02649,-0.01014 -7.25e-4,8.17e-4 -7.25e-4,8.17e-4 -0.0014,0.0016 -0.0092,0.0021 -0.01824,0.0058 -0.02504,0.0085 z"
   id="path3707"
   inkscape:connector-curvature="0"
   style="fill:#ffffff;fill-opacity:1" />
	<path
   d="m 33.742032,78.567495 c 0.06443,-0.09891 0.128953,-0.19628 0.190296,-0.295001 -0.05438,0.08595 -0.109578,0.17116 -0.164776,0.256379 -0.007,0.01278 -0.01701,0.02575 -0.02552,0.03862 z"
   id="path3709"
   inkscape:connector-curvature="0"
   style="fill:#ffffff;fill-opacity:1" />
	<path
   d="m 27.997442,69.617188 c -7.25e-4,8.16e-4 -7.25e-4,8.16e-4 0,0 0.113384,-0.0076 0.226862,-0.0138 0.339993,-0.01296 l 0,0 c -0.112312,-1.19e-4 -0.225885,0.0045 -0.339993,0.01296 z"
   id="path3711"
   inkscape:connector-curvature="0"
   style="fill:#ffffff;fill-opacity:1" />
	<path
   d="m 28.358316,69.603731 c 0.05502,5.15e-4 0.109601,0.0064 0.164718,0.0085 -0.05521,-0.0036 -0.108881,-0.0073 -0.164718,-0.0085 0,0 0,0 0,0 z"
   id="path3713"
   inkscape:connector-curvature="0"
   style="fill:#ffffff;fill-opacity:1" />
	<path
   d="m 48.633573,62.072472 c -0.133832,0.04057 -0.267851,0.07807 -0.401241,0.113219 -0.0023,9.11e-4 -0.0054,0.0011 -0.0077,0.002 -0.04637,0.0144 -0.0959,0.02746 -0.143186,0.0396 h 0 c -0.314875,0.08171 -0.631068,0.141873 -0.944109,0.190262 -0.0015,9.4e-5 -0.0038,0.001 -0.0054,0.0011 -0.0353,0.0052 -0.07134,0.01129 -0.107372,0.01734 -0.334835,0.04662 -0.668438,0.07542 -1.000084,0.08555 -8.19e-4,-7.23e-4 -0.0015,9.4e-5 -0.0024,-6.29e-4 -0.01924,0.002 -0.0394,0.0016 -0.05874,0.0021 -0.163145,0.0045 -0.324306,0.0035 -0.48493,-0.0014 0,0 0,0 -7.25e-4,8.17e-4 -0.02334,-0.0016 -0.04431,-0.0027 -0.06765,-0.0044 0,0 0,0 -8.18e-4,-7.23e-4 -0.332965,-0.01141 -0.663436,-0.04537 -0.988139,-0.09898 0,0 0,0 -8.19e-4,-7.23e-4 0,0 0,0 -7.24e-4,8.17e-4 -7.25e-4,8.16e-4 -0.0022,0.0024 -0.0036,0.004 -0.05482,0.09137 -0.112099,0.180581 -0.17092,0.269882 -0.01286,0.01777 -0.02488,0.03627 -0.0361,0.05549 -0.04906,0.07172 -0.100473,0.142805 -0.153428,0.213986 -0.01711,0.02421 -0.03576,0.04851 -0.05359,0.07354 -0.05088,0.0672 -0.101852,0.132848 -0.154276,0.200136 -0.01874,0.02276 -0.03739,0.04707 -0.05686,0.07065 -0.07136,0.08697 -0.143434,0.174765 -0.21879,0.259665 l -5.739223,6.466369 c -0.672398,0.757574 -1.446487,1.3468 -2.245859,1.750673 7.24e-4,-8.16e-4 -9.4e-5,-0.0015 -9.4e-5,-0.0015 -7.25e-4,8.17e-4 -0.0023,9.1e-4 -0.0038,0.001 -7.25e-4,8.17e-4 -7.25e-4,8.17e-4 -0.0014,0.0016 -0.16162,0.08011 -0.323615,0.154062 -0.486082,0.220321 l 0,0 0,0 c -0.09371,0.03813 -0.186782,0.07391 -0.280047,0.106616 -0.0038,0.001 -0.0077,0.002 -0.0106,0.0037 0,0 -8.19e-4,-7.21e-4 -8.19e-4,-7.21e-4 -0.418508,0.147476 -0.837855,0.243262 -1.246703,0.282806 0,0 -7.24e-4,8.17e-4 -0.0023,9.1e-4 -0.01316,2.9e-5 -0.02696,0.0024 -0.03848,0.0039 -7.23e-4,8.16e-4 -0.0024,-6.28e-4 -0.0031,1.88e-4 -0.07162,0.0066 -0.143337,0.01181 -0.215146,0.0154 -0.0085,-2.53e-4 -0.01626,2.17e-4 -0.02396,6.86e-4 0,0 0,0 0,0 -0.40563,0.01618 -0.798397,-0.02325 -1.165862,-0.117516 l -8.19e-4,-7.23e-4 c -0.0056,-0.002 -0.01263,-0.0038 -0.01971,-0.0058 -0.07477,-0.01939 -0.1489,-0.04114 -0.220956,-0.06688 -8.19e-4,-7.23e-4 -0.0024,-6.28e-4 -0.004,-0.0021 h 0 c -0.105219,-0.03607 -0.206812,-0.07623 -0.306421,-0.121914 -0.02862,-0.01215 -0.05808,-0.02504 -0.08524,-0.03883 -0.03436,-0.01721 -0.06881,-0.03597 -0.103983,-0.05391 -0.02564,-0.01389 -0.05281,-0.02768 -0.07854,-0.0431 -0.03609,-0.0202 -0.07073,-0.04204 -0.104552,-0.06314 -0.02336,-0.01479 -0.04746,-0.02878 -0.07092,-0.04511 -0.03801,-0.02626 -0.07447,-0.05262 -0.111759,-0.0797 -0.01864,-0.01354 -0.03801,-0.02626 -0.05674,-0.04134 -0.0552,-0.04144 -0.109045,-0.08604 -0.161447,-0.132279 -0.05649,-0.04985 -0.110714,-0.100608 -0.162859,-0.155359 -0.0067,-0.0073 -0.0141,-0.01536 -0.02075,-0.02268 -0.0455,-0.04743 -0.08945,-0.09495 -0.13124,-0.144927 -0.0033,-0.0029 -0.0058,-0.0065 -0.0084,-0.01036 -0.09285,-0.112509 -0.179,-0.229289 -0.256263,-0.352788 l 0,0 c -8.18e-4,-7.21e-4 -0.0016,-0.0014 -0.0024,-0.0022 -0.05813,-0.05129 -0.119062,-0.09779 -0.180626,-0.141923 -0.0171,-0.01364 -0.03483,-0.02491 -0.05101,-0.03628 -0.05101,-0.03628 -0.104202,-0.07012 -0.157201,-0.100871 -0.01281,-0.007 -0.02491,-0.01471 -0.03855,-0.02237 -0.02491,-0.01471 -0.052,-0.02696 -0.07754,-0.0393 -0.04236,-0.02137 -0.08399,-0.04354 -0.126251,-0.06337 -0.01355,-0.0061 -0.02944,-0.01289 -0.04371,-0.0182 -0.04689,-0.01955 -0.09524,-0.03746 -0.144392,-0.05609 -0.01109,-0.0039 -0.02227,-0.0095 -0.0349,-0.01332 -0.01663,-0.0059 -0.03398,-0.01107 -0.05143,-0.01772 -0.07504,-0.02401 -0.150725,-0.04567 -0.227758,-0.06414 l 0,0 c -0.06213,-0.01552 -0.126983,-0.02471 -0.189656,-0.03635 -0.01571,-0.0037 -0.03061,-0.0066 -0.04706,-0.0095 -0.01644,-0.0028 -0.03279,-0.0041 -0.04768,-0.0071 -0.0703,-0.0096 -0.139677,-0.01698 -0.211233,-0.0219 -0.0078,4.69e-4 -0.01635,-0.0013 -0.02488,-0.0015 -0.0024,-6.28e-4 -0.0055,-4.41e-4 -0.0085,-2.53e-4 -0.08554,-0.0056 -0.174702,-0.0071 -0.262952,-0.0064 -0.0094,-9.76e-4 -0.01934,4.04e-4 -0.02787,1.5e-4 -0.05411,0.0017 -0.108947,0.0044 -0.163682,0.0084 -0.0285,0.0025 -0.05719,0.002 -0.08497,0.0036 -0.0078,4.69e-4 -0.01388,8.45e-4 -0.0216,0.0013 -0.0069,0.0012 -0.01452,0.0032 -0.02224,0.0037 -0.175558,0.01685 -0.355087,0.04477 -0.535405,0.08508 -0.0061,0.002 -0.01298,0.0031 -0.01906,0.005 -0.110806,0.02451 -0.222778,0.05526 -0.333743,0.08981 -0.03276,0.0089 -0.0646,0.02015 -0.09418,0.03044 -0.0813,0.02579 -0.163944,0.05477 -0.245681,0.08599 -0.03629,0.01457 -0.07339,0.02841 -0.111219,0.04306 -0.08009,0.03267 -0.160104,0.06689 -0.239921,0.104173 -0.03392,0.0152 -0.06785,0.03038 -0.101775,0.04558 -0.11056,0.05383 -0.222474,0.11084 -0.333382,0.171645 0.28049,1.470342 0.971301,2.785981 2.086393,3.769991 0.124445,0.109816 0.253049,0.211655 0.383733,0.309508 0.03738,0.02862 0.07538,0.05488 0.11349,0.08268 0.101207,0.07184 0.204687,0.142777 0.309426,0.208999 0.03546,0.02256 0.07092,0.04511 0.107919,0.06758 0.138371,0.08426 0.280271,0.162891 0.424881,0.235184 0.01836,0.0089 0.03663,0.01631 0.05498,0.02523 0.128518,0.06245 0.259115,0.120931 0.390974,0.174693 0.04289,0.01746 0.08415,0.0335 0.125403,0.04952 0.124489,0.04726 0.250429,0.09289 0.377534,0.132263 0.02998,0.0089 0.05933,0.02033 0.08849,0.02859 0.159449,0.04899 0.319246,0.09101 0.482572,0.127417 0.01807,0.0044 0.03606,0.0071 0.05414,0.01138 l 0,0 c 0.0047,0.0013 0.01017,0.0017 0.01489,0.0029 8.19e-4,7.22e-4 0.0016,0.0014 0.0024,6.28e-4 0.142068,0.03074 0.284578,0.05605 0.429263,0.07891 0.0078,0.0011 0.0148,0.0014 0.02271,0.004 0.01408,0.0022 0.02733,0.0037 0.03977,0.0046 0.01644,0.0028 0.03361,0.0049 0.05004,0.0077 0.157755,0.02129 0.318407,0.03932 0.479408,0.05039 0.007,3.48e-4 0.01408,0.0022 0.02261,0.0025 0.176528,0.01165 0.35586,0.01851 0.53554,0.01839 0.0217,2.24e-4 0.04258,-2.74e-4 0.06347,-7.71e-4 0.15943,-0.002 0.318764,-0.0055 0.478447,-0.01598 0.02778,-0.0016 0.05329,-0.0025 0.08025,-0.0049 0.364027,-0.02524 0.730452,-0.07456 1.09937,-0.14642 0.01688,-0.0026 0.03367,-0.0066 0.04973,-0.01003 0.175153,-0.03614 0.349298,-0.07608 0.524704,-0.12073 0.01298,-0.0031 0.02595,-0.0062 0.03893,-0.0093 0.373398,-0.09994 0.749287,-0.222431 1.122221,-0.367909 0.01515,-0.0056 0.03031,-0.01111 0.04608,-0.01902 0.183159,-0.06984 0.364305,-0.14727 0.543531,-0.230766 1.429739,-0.658456 2.800626,-1.658539 3.970801,-2.976947 l 5.739289,-6.466322 c 0.125351,-0.141229 0.245157,-0.284437 0.362509,-0.429814 0.03531,-0.04308 0.069,-0.0876 0.103492,-0.131404 0.08112,-0.104555 0.163157,-0.206854 0.241194,-0.311225 0.03576,-0.04851 0.06915,-0.09765 0.104092,-0.146886 0.07486,-0.105721 0.149806,-0.209905 0.220755,-0.316161 0.03059,-0.04434 0.06109,-0.09021 0.09014,-0.134454 0.07564,-0.118126 0.149747,-0.236158 0.222401,-0.352557 0.02036,-0.03445 0.04152,-0.06817 0.06034,-0.102528 0.08929,-0.148302 0.174581,-0.298678 0.253603,-0.450218 0.003,-0.0033 0.0035,-0.0057 0.0056,-0.0096 0.265581,-0.494967 0.491101,-0.999081 0.676938,-1.506186 -0.0013,0.0032 -6.31e-4,0.0024 -0.0023,9.1e-4 l 0,0 c 0.0015,-9.4e-5 0.0015,-9.4e-5 0,0 l 0,0 z"
   id="path3715"
   inkscape:connector-curvature="0"
   style="fill:#ffffff;fill-opacity:1" />
	<path
   d="m 72.728277,37.494876 c 0.107613,-0.114665 0.2105,-0.230587 0.314114,-0.347324 0.0326,-0.03674 0.0643,-0.07573 0.09835,-0.114102 0.06793,-0.07982 0.135023,-0.160352 0.201212,-0.24315 0.03605,-0.0439 0.07208,-0.08779 0.10793,-0.134764 0.06112,-0.07708 0.122047,-0.157245 0.182251,-0.236591 0.03305,-0.04217 0.06754,-0.08597 0.09887,-0.131122 0.0794,-0.107542 0.156326,-0.217252 0.230899,-0.32759 0.03484,-0.05078 0.06742,-0.100631 0.103087,-0.150687 0.05095,-0.07878 0.10488,-0.15929 0.154189,-0.239517 0.03809,-0.06102 0.07546,-0.121203 0.112824,-0.181397 0.03645,-0.06245 0.07291,-0.124911 0.10936,-0.187366 0.03844,-0.06798 0.07924,-0.135335 0.116954,-0.2025 0.02921,-0.05429 0.05624,-0.106136 0.08545,-0.160426 0.03879,-0.07496 0.08075,-0.148555 0.117904,-0.224953 0.0034,-0.0087 0.0082,-0.01749 0.01166,-0.02465 0.09881,-0.195218 0.193529,-0.394049 0.278893,-0.593855 0.01082,-0.02537 0.02322,-0.05083 0.03479,-0.07703 0.0392,-0.09351 0.07686,-0.186932 0.112971,-0.280258 0.0121,-0.03009 0.02347,-0.05935 0.03494,-0.08708 0.0381,-0.09885 0.07403,-0.195254 0.109133,-0.29238 0.0031,-0.01331 0.0061,-0.02663 0.01299,-0.04095 0.06848,-0.197234 0.129247,-0.393999 0.187557,-0.592933 -1.42179,0.598507 -2.896137,0.869677 -4.297433,0.790424 -0.05217,0.09662 -0.106717,0.192609 -0.167429,0.288975 -0.0013,0.0032 -0.0027,0.0063 -0.0056,0.0096 -0.08866,0.145948 -0.183491,0.292272 -0.287047,0.435264 -0.005,0.0073 -0.01082,0.01378 -0.01348,0.02012 -0.09993,0.138909 -0.206039,0.278196 -0.318413,0.416319 -0.0058,0.0065 -0.01232,0.01388 -0.01812,0.02041 -0.112469,0.136584 -0.231109,0.273544 -0.356929,0.407078 l -5.932065,6.290386 c -0.52294,0.554641 -1.101574,1.009185 -1.700216,1.364551 0.328716,1.435744 0.296177,2.752138 -0.141687,4.140296 1.599738,-0.601608 3.158906,-1.613145 4.487679,-3.023061 l 5.934426,-6.289757 z"
   id="path3717"
   inkscape:connector-curvature="0"
   style="fill:#ffffff;fill-opacity:1" />
	<path
   d="M 57.434269,42.968514 C 57.29952,42.880184 57.171735,42.779058 57.052551,42.666606 55.351876,41.07414 55.77061,37.86689 57.980853,35.521413 l 5.933607,-6.290479 c 2.211062,-2.344754 5.394756,-2.957764 7.0948,-1.362943 0.02057,0.0196 0.04132,0.04228 0.06197,0.06342 1.204448,0.532971 2.84861,0.151075 4.267485,-0.950779 -0.158245,-0.371105 -0.351863,-0.725387 -0.575216,-1.059325 -0.02387,-0.03561 -0.04619,-0.07133 -0.07068,-0.104588 -0.03816,-0.05406 -0.07777,-0.106473 -0.116655,-0.159714 -0.03633,-0.04954 -0.07403,-0.09589 -0.111808,-0.143794 -0.03451,-0.04501 -0.07046,-0.08839 -0.106334,-0.130224 -0.04852,-0.05884 -0.100036,-0.115935 -0.152273,-0.172222 -0.02831,-0.03226 -0.05825,-0.06596 -0.0881,-0.09812 -0.08445,-0.08908 -0.171168,-0.177251 -0.263147,-0.262785 -3.156901,-2.961941 -8.804387,-2.109473 -12.586536,1.900115 l -5.933515,6.292018 c -3.782149,4.009589 -4.288473,9.684184 -1.129306,12.645214 0.09945,0.09358 0.201688,0.182346 0.305287,0.267944 0.05548,0.04605 0.11223,0.08739 0.170707,0.131715 0.04875,0.0372 0.09605,0.07602 0.145514,0.112396 0.08102,0.0584 0.16331,0.112086 0.247044,0.16414 0.02828,0.01913 0.05665,0.0398 0.08484,0.0574 0.09911,0.0627 0.200283,0.12142 0.303637,0.177688 0.01355,0.0061 0.02482,0.01316 0.03691,0.02092 0.112991,0.06186 0.228787,0.118915 0.346031,0.174337 0.0016,0.0014 0.0033,0.0029 0.0072,0.0034 0.355545,0.165263 0.726276,0.300256 1.110463,0.401994 0.0024,0.0022 0.0056,0.002 0.0094,0.0025 0.250492,-0.627652 1.122602,-2.982086 0.462075,-4.233152 z"
   id="path3719"
   inkscape:connector-curvature="0"
   style="fill:#ffffff;fill-opacity:1" />
	<path
   d="m 73.070629,11.924063 -5.429025,6.727013 c -0.130394,0.160071 -0.253607,0.323565 -0.372915,0.487595 -0.03213,0.04443 -0.06354,0.08804 -0.09341,0.131563 -0.09187,0.131469 -0.184462,0.263755 -0.271512,0.398021 -0.02416,0.03545 -0.04752,0.07162 -0.07086,0.107792 -0.698359,1.092778 -1.19784,2.246051 -1.493862,3.395443 1.389307,-0.547106 2.816029,-0.799161 4.174245,-0.740455 l 0,0 c 0.185023,-0.381175 0.408279,-0.757725 0.667879,-1.122586 0.01071,-0.01533 0.02073,-0.02829 0.03069,-0.0428 0.08437,-0.114795 0.170282,-0.229684 0.260918,-0.343317 l 5.42975,-6.727829 c 2.023764,-2.507123 5.150095,-3.361455 6.96733,-1.90196 1.818684,1.457863 1.651402,4.686113 -0.373085,7.194053 l -5.42975,6.727828 c -2.024487,2.507939 -5.150725,3.363811 -6.968054,1.902777 -0.08386,-0.06672 -0.162643,-0.139156 -0.236892,-0.213412 -1.188384,-0.536264 -2.83634,-0.229048 -4.304425,0.790076 0.307288,0.769029 0.741359,1.470881 1.306219,2.069787 0.005,0.0059 0.01006,0.01175 0.01502,0.01762 0.08272,0.0861 0.166887,0.170561 0.254773,0.252482 0.01483,0.01454 0.02812,0.02918 0.04368,0.04291 0.101709,0.09266 0.206411,0.183602 0.315554,0.27118 3.379973,2.708967 8.944626,1.426747 12.404578,-2.861341 l 5.42975,-6.727829 c 3.46222,-4.288998 3.528971,-9.98319 0.150353,-12.6953283 -3.38016,-2.7120435 -8.945539,-1.429007 -12.40694,2.8607123 z"
   id="path3721"
   inkscape:connector-curvature="0"
   style="fill:#ffffff;fill-opacity:1" />
	<path
   d="m 28.135046,62.815104 c -0.07523,0.09956 -0.146558,0.199667 -0.217067,0.30049 -0.02436,0.03238 -0.04871,0.06474 -0.07142,0.09856 -0.08336,0.118595 -0.162,0.238447 -0.240544,0.35984 -0.0099,0.01451 -0.01991,0.02901 -0.02833,0.04343 -0.08633,0.133449 -0.167203,0.267338 -0.245719,0.401857 -0.0014,0.0016 -0.0036,0.004 -0.005,0.0073 -0.241154,0.413164 -0.454782,0.833148 -0.638712,1.257504 0.531602,-0.121921 1.061116,-0.202013 1.586461,-0.236286 0.0139,-8.45e-4 0.0286,-9.68e-4 0.04249,-0.0019 0.153509,-0.01014 0.307302,-0.0156 0.459833,-0.01638 0.02788,-1.51e-4 0.05348,6.08e-4 0.08135,4.57e-4 0.142547,5.96e-4 0.285188,0.0027 0.427386,0.01025 0.02715,6.65e-4 0.05511,0.0021 0.08308,0.0035 0.150009,0.0086 0.299482,0.02117 0.449238,0.03832 0.0148,0.0014 0.02806,0.0029 0.04287,0.0044 0.33702,0.03974 0.668273,0.09913 0.992215,0.178277 0.0953,-0.138628 0.194511,-0.276722 0.298538,-0.41202 0.005,-0.0057 0.01017,-0.01143 0.0144,-0.01787 0.105666,-0.133852 0.213783,-0.265539 0.32899,-0.395338 l 5.73929,-6.466322 c 0.129698,-0.146127 0.265125,-0.287196 0.40175,-0.421389 0,0 7.24e-4,-8.17e-4 0.0014,-0.0016 7.25e-4,-8.17e-4 0,0 7.25e-4,-8.17e-4 7.25e-4,-8.16e-4 7.25e-4,-8.16e-4 0.0014,-0.0016 0.0365,-0.0362 0.07466,-0.07096 0.113532,-0.106528 0,0 7.25e-4,-8.17e-4 0.0014,-0.0016 7.24e-4,-8.17e-4 0.0014,-0.0016 0.0022,-0.0024 0.02855,-0.02722 0.0579,-0.05372 0.08644,-0.08094 7.24e-4,-8.17e-4 0.0014,-0.0016 0.0014,-0.0016 7.25e-4,-8.17e-4 7.25e-4,-8.17e-4 0.0014,-0.0016 0.03443,-0.03221 0.06895,-0.06289 0.105022,-0.09365 0.0022,-0.0024 0.0059,-0.005 0.0081,-0.0074 0.003,-0.0017 0.0051,-0.0041 0.0067,-0.0058 0.12361,-0.106365 0.248227,-0.208941 0.375489,-0.306266 0.01405,-0.0109 0.02738,-0.02097 0.04069,-0.03105 0.0014,-0.0016 0.0037,-0.0025 0.0051,-0.0041 0.0014,-0.0016 0.0037,-0.0025 0.0051,-0.0041 0.105875,-0.07981 0.212028,-0.154997 0.320639,-0.22802 0,0 0,0 7.24e-4,-8.17e-4 0,0 0,0 7.25e-4,-8.16e-4 0.03717,-0.02543 0.07443,-0.04932 0.111697,-0.07321 0.0023,-9.1e-4 0.0037,-0.0025 0.0045,-0.0034 0.0014,-0.0016 0.003,-0.0017 0.0045,-0.0034 0.192936,-0.12526 0.389711,-0.238399 0.587144,-0.340765 0,0 7.25e-4,-8.17e-4 0.0015,-9.4e-5 0.0037,-0.0025 0.009,-0.0052 0.01424,-0.0078 0,0 0,0 7.25e-4,-8.16e-4 0.163793,-0.08256 0.327143,-0.159683 0.492602,-0.227668 7.25e-4,-8.16e-4 0.0023,-9.1e-4 0.0037,-0.0025 0,0 8.19e-4,7.23e-4 0.0015,-9.4e-5 7.25e-4,-8.17e-4 7.25e-4,-8.17e-4 0.0023,-9.1e-4 1.100696,-0.453867 2.222135,-0.556064 3.170201,-0.263894 l 0,0 0,0 c 8.18e-4,7.23e-4 8.18e-4,7.23e-4 8.18e-4,7.23e-4 0.0268,0.0076 0.05288,0.01609 0.07823,0.02536 0.04106,0.01295 0.07996,0.02834 0.119578,0.04292 l 0,0 0,0 c 0.02936,0.01135 0.05788,0.02197 0.08651,0.03412 0,0 0,0 8.19e-4,7.23e-4 v 0 c 0.128678,0.05241 0.253197,0.112796 0.372832,0.181974 0,0 0,0 8.19e-4,7.22e-4 l 0,0 0,0 c 0.03609,0.0202 0.07073,0.04204 0.105371,0.06387 0,0 0,0 8.19e-4,7.23e-4 v 0 c 0.0048,0.0028 0.009,0.0064 0.01291,0.0085 0.136198,0.08671 0.267512,0.182203 0.390319,0.290574 0.02948,0.02601 0.05668,0.05293 0.08471,0.08057 0,0 0,0 8.19e-4,7.23e-4 0.0888,0.08418 0.171705,0.173356 0.248628,0.265984 v 0 c 0.202165,0.152197 0.423866,0.269226 0.659934,0.355262 0.01673,0.0075 0.03162,0.01047 0.04907,0.01709 0.230969,0.07862 0.474762,0.126348 0.729207,0.145623 0.0094,9.74e-4 0.01953,0.0027 0.02879,0.0021 0.07773,0.0046 0.155993,0.0052 0.234259,0.0058 0.02633,-5.8e-5 0.05102,-0.0015 0.07663,-8.01e-4 0.07962,-0.0025 0.157602,-0.0065 0.238484,-0.01373 0,0 8.19e-4,7.21e-4 0.0015,-9.4e-5 0.167935,-0.01485 0.338929,-0.04302 0.511626,-0.08132 0.02832,-0.0056 0.05509,-0.01108 0.08177,-0.0181 0.07559,-0.01773 0.152539,-0.03862 0.227849,-0.06097 0.03584,-0.0092 0.07077,-0.02053 0.107253,-0.03201 0.07522,-0.02388 0.152698,-0.04868 0.227631,-0.07717 0.0106,-0.0037 0.02041,-0.0082 0.02949,-0.01183 0.161205,-0.06155 0.323389,-0.132424 0.483559,-0.2109 0.03538,-0.01682 0.06993,-0.03437 0.106028,-0.05201 0.072,-0.03836 0.145461,-0.07835 0.218822,-0.119884 0.03736,-0.02235 0.0739,-0.04543 0.112799,-0.06787 0.07399,-0.04389 0.147984,-0.08778 0.22015,-0.136183 -0.249474,-0.86213 -0.651243,-1.656304 -1.209123,-2.343674 -0.0033,-0.0028 -0.005,-0.0059 -0.0083,-0.0087 -0.09121,-0.111066 -0.184609,-0.219682 -0.283984,-0.324845 -0.0033,-0.0029 -0.005,-0.0059 -0.0091,-0.0095 -0.10101,-0.106605 -0.205019,-0.211489 -0.31419,-0.312195 -0.03366,-0.03116 -0.06669,-0.06468 -0.101895,-0.09575 -0.09578,-0.08453 -0.19284,-0.164348 -0.292883,-0.242441 -0.03184,-0.02663 -0.06575,-0.04929 -0.09822,-0.07357 -0.02929,-0.02293 -0.0592,-0.04351 -0.08911,-0.06408 -0.03892,-0.02853 -0.07712,-0.05786 -0.116671,-0.08403 -0.0412,-0.02761 -0.08156,-0.05451 -0.122656,-0.08058 -0.06374,-0.04169 -0.128199,-0.08256 -0.193291,-0.121074 -0.03382,-0.02112 -0.06746,-0.03915 -0.101185,-0.05871 -0.01049,-0.0063 -0.02009,-0.0119 -0.03055,-0.01822 -0.01201,-0.0062 -0.024,-0.01244 -0.03681,-0.01938 -0.0529,-0.02922 -0.105087,-0.05925 -0.159441,-0.08684 -0.02482,-0.01317 -0.04962,-0.02633 -0.07435,-0.03795 -0.02082,-0.01109 -0.04236,-0.02137 -0.06235,-0.03173 -0.06943,-0.03362 -0.138785,-0.0657 -0.208855,-0.09696 -0.03016,-0.01207 -0.06052,-0.02721 -0.08997,-0.0401 -0.01355,-0.0061 -0.0279,-0.01297 -0.04145,-0.0191 -0.07789,-0.03233 -0.157211,-0.06303 -0.236446,-0.09219 -0.03172,-0.01197 -0.06116,-0.02485 -0.09123,-0.03539 -0.0079,-0.0026 -0.01427,-0.0053 -0.0199,-0.0088 -0.115578,-0.04085 -0.230969,-0.07862 -0.347714,-0.113225 -0.04024,-0.01222 -0.08112,-0.0221 -0.12128,-0.03278 -0.05042,-0.01392 -0.101567,-0.02702 -0.151987,-0.04096 -0.02907,-0.0068 -0.05751,-0.01581 -0.08812,-0.02244 -0.05114,-0.0131 -0.104464,-0.02376 -0.157059,-0.03525 -0.07057,-0.01424 -0.139706,-0.03012 -0.21019,-0.04282 -0.05794,-0.01036 -0.115078,-0.02003 -0.173752,-0.02959 -0.06566,-0.0099 -0.133692,-0.02044 -0.199263,-0.02881 -0.06094,-0.0086 -0.121788,-0.01576 -0.18336,-0.02205 -0.04677,-0.0049 -0.09344,-0.0082 -0.140214,-0.01309 -0.01943,-0.0011 -0.03741,-0.0039 -0.05685,-0.005 -0.0094,-9.76e-4 -0.02025,-0.0019 -0.03033,-0.002 -0.05295,-0.0045 -0.105886,-0.009 -0.158734,-0.01197 -0.06365,-0.0023 -0.128121,-0.0053 -0.193315,-0.0075 -0.06437,-0.0015 -0.130389,-0.0045 -0.19549,-0.0051 -0.02088,4.98e-4 -0.04104,1.8e-4 -0.06192,6.78e-4 -0.03786,0.0015 -0.07735,0.0016 -0.115304,0.0016 -0.0031,1.88e-4 -0.007,-3.46e-4 -0.01006,-1.59e-4 -0.106039,10e-4 -0.214074,0.0076 -0.32138,0.01338 -0.03314,0.0028 -0.068,0.0026 -0.102769,0.0039 -0.0069,0.0012 -0.01389,8.45e-4 -0.02088,4.98e-4 -0.04012,0.0024 -0.08025,0.0049 -0.120376,0.0073 -0.07862,0.0063 -0.157858,0.01501 -0.236283,0.02441 -0.03004,0.0026 -0.06,0.0068 -0.09004,0.0094 -0.0207,0.0036 -0.0423,0.0049 -0.06382,0.0077 -0.07996,0.0095 -0.162834,0.02226 -0.243433,0.03411 -0.03232,0.0035 -0.06444,0.01014 -0.09748,0.01442 -0.0176,0.0034 -0.0353,0.0052 -0.05137,0.0085 -0.03068,0.0049 -0.06054,0.01068 -0.09039,0.01631 0,0 0,0 -7.25e-4,8.17e-4 -0.05055,0.0093 -0.100375,0.01769 -0.150112,0.02767 -0.02368,0.0053 -0.04592,0.0089 -0.06879,0.015 -0.02604,0.0047 -0.052,0.0109 -0.07723,0.01629 -0.08413,0.01747 -0.16816,0.03649 -0.252099,0.05704 -0.01524,0.004 -0.03203,0.0082 -0.04882,0.01224 -0.0275,0.0063 -0.05726,0.01352 -0.08539,0.02218 -0.05417,0.01333 -0.108258,0.02821 -0.162335,0.04308 -0.0343,0.009 -0.06706,0.01798 -0.09982,0.02693 -0.01742,0.0064 -0.03575,0.01068 -0.05244,0.01632 -0.01669,0.0057 -0.03275,0.0089 -0.04935,0.01613 -0.03049,0.0081 -0.0607,0.02068 -0.09109,0.03025 -0.136823,0.04231 -0.272829,0.08532 -0.408552,0.132971 0,0 0,0 -7.25e-4,8.16e-4 -7.24e-4,8.17e-4 -6.3e-4,0.0024 -5.35e-4,0.0039 -0.275889,0.09865 -0.55058,0.204165 -0.822693,0.326519 -0.003,0.0017 -0.0068,0.0027 -0.0105,0.0052 -0.01815,0.0073 -0.03547,0.01528 -0.05279,0.0233 -0.0068,0.0027 -0.01361,0.0055 -0.02041,0.0082 -0.02177,0.01136 -0.04362,0.02119 -0.06539,0.03255 -0.07528,0.03547 -0.150562,0.07095 -0.22493,0.108676 -0.03011,0.01418 -0.06013,0.02991 -0.09024,0.04411 -0.09396,0.04665 -0.186189,0.09628 -0.278417,0.145906 -7.25e-4,8.16e-4 -0.0015,9.4e-5 -0.0023,9.1e-4 l 0,0 c 0,0 -7.25e-4,8.17e-4 -7.25e-4,8.17e-4 -0.03074,0.01654 -0.06139,0.03462 -0.09213,0.05117 -0.09213,0.05117 -0.18345,0.103061 -0.273853,0.157212 -0.003,0.0017 -0.006,0.0035 -0.0082,0.0044 -0.0037,0.0025 -0.0082,0.0044 -0.01269,0.0077 -0.02095,0.01209 -0.04262,0.02499 -0.06274,0.0378 -0.101644,0.06024 -0.200116,0.121836 -0.299308,0.184246 -0.0014,0.0016 -0.0037,0.0025 -0.0059,0.005 -7.24e-4,8.16e-4 -0.0014,0.0016 -0.003,0.0017 -0.0014,0.0016 -0.0037,0.0025 -0.0051,0.0041 -0.151953,0.09883 -0.302806,0.202994 -0.453471,0.310238 -0.03635,0.02615 -0.07279,0.05077 -0.109056,0.07846 -0.151294,0.109599 -0.300039,0.222904 -0.447683,0.341549 -0.263566,0.211418 -0.521655,0.436405 -0.772723,0.674865 -0.0067,0.0058 -0.01251,0.01079 -0.0183,0.01733 -0.111988,0.10643 -0.221426,0.216577 -0.330046,0.327442 -0.01676,0.01723 -0.03361,0.03293 -0.05037,0.05017 -0.123835,0.128008 -0.243671,0.25809 -0.361776,0.391156 l -5.739331,6.46611 c -0.113032,0.127351 -0.222884,0.256053 -0.329555,0.386106 -0.05768,0.06992 -0.11146,0.140384 -0.165962,0.21166 -0.04445,0.05831 -0.09344,0.118435 -0.139343,0.178377 z"
   id="path3723"
   inkscape:connector-curvature="0"
   style="fill:#ffffff;fill-opacity:1" />
	<path
   d="m 34.690159,76.847881 c 0.01645,-0.03498 0.03218,-0.06915 0.0478,-0.104849 6.31e-4,-0.0024 0.0021,-0.004 0.002,-0.0056 0,0 0,0 -8.19e-4,-7.23e-4 -0.535319,0.124464 -1.069462,0.204838 -1.59862,0.240116 -0.04094,0.0017 -0.08117,0.0026 -0.122926,0.0036 -0.135903,0.0068 -0.270263,0.01336 -0.40418,0.01454 -0.03559,6.2e-4 -0.07137,-0.0019 -0.107777,-0.002 -0.312243,-0.0019 -0.62297,-0.01694 -0.927931,-0.05167 -0.340107,-0.03955 -0.675265,-0.09947 -1.003207,-0.180697 -7.25e-4,8.17e-4 -7.25e-4,8.17e-4 -0.0014,0.0016 -0.0022,0.0024 -0.0035,0.0057 -0.0057,0.0081 -6.31e-4,0.0024 -0.0021,0.004 -0.0028,0.0048 -0.05186,0.07652 -0.106082,0.152413 -0.16184,0.228399 -0.0143,0.0194 -0.0286,0.03881 -0.04291,0.05821 -0.0172,0.02268 -0.03595,0.04544 -0.05387,0.06892 h 0 c -0.02436,0.03238 -0.04799,0.06393 -0.07243,0.09477 -0.0115,0.0146 -0.02227,0.02839 -0.03305,0.04217 -0.01657,0.02032 -0.03305,0.04217 -0.0488,0.06321 -0.07063,0.08615 -0.143624,0.171687 -0.218255,0.255771 l -5.739289,6.466322 c -2.139644,2.410687 -5.301251,3.118888 -7.04921,1.576407 -1.747959,-1.54248 -1.428118,-4.758388 0.711527,-7.169076 l 5.73929,-6.466321 c 0.121002,-0.136331 0.244744,-0.265877 0.371128,-0.390179 l 7.25e-4,-8.17e-4 c 7.25e-4,-8.16e-4 7.25e-4,-8.16e-4 0.0014,-0.0016 0.0395,-0.03793 0.08064,-0.07441 0.120965,-0.111616 0.172062,-0.162605 0.346957,-0.316886 0.528054,-0.458418 0.0051,-0.0041 0.01039,-0.0084 0.01477,-0.01171 0.153723,-0.120559 0.30927,-0.236594 0.467745,-0.342769 l 0,0 c 0.01039,-0.0068 0.02013,-0.01281 0.03138,-0.0189 0.12729,-0.0842 0.254862,-0.16378 0.384355,-0.237301 7.24e-4,-8.17e-4 7.24e-4,-8.17e-4 0.0014,-0.0016 0,0 0,0 7.25e-4,-8.16e-4 0.04416,-0.02508 0.09005,-0.04718 0.135035,-0.07155 0.09523,-0.05136 0.190348,-0.10425 0.286671,-0.15027 h 0 c 7.24e-4,-8.17e-4 0.0023,-9.11e-4 0.003,-0.0017 0.241529,-0.115859 0.482551,-0.214699 0.726059,-0.298245 0.0068,-0.0027 0.01587,-0.0063 0.02423,-0.0092 0,0 7.25e-4,-8.15e-4 0.0014,-0.0016 0.154873,-0.05113 0.310847,-0.09691 0.465748,-0.134905 7.25e-4,-8.17e-4 7.25e-4,-8.17e-4 7.25e-4,-8.17e-4 0.04501,-0.01123 0.09103,-0.01866 0.137671,-0.02845 0.146743,-0.03209 0.294681,-0.05731 0.43991,-0.07619 0.04766,-0.006 0.09448,-0.0127 0.142141,-0.01869 0,0 0,0 0,0 0.03848,-0.0039 0.0777,-0.0086 0.116283,-0.01093 0,0 0,0 0,0 0.114108,-0.0085 0.226862,-0.0138 0.339993,-0.01296 l 0,0 c 0.0061,-3.75e-4 0.01389,-8.45e-4 0.02006,-0.0012 0,0 0,0 0,0 0.05585,0.0012 0.109508,0.0049 0.164718,0.0085 0.344869,0.01609 0.675021,0.07015 0.988658,0.17077 0,0 0,0 0,0 0.0024,6.29e-4 0.004,0.0021 0.0072,0.0034 0.1043,0.03382 0.208073,0.07152 0.309131,0.115572 0.01663,0.0059 0.03326,0.01188 0.04935,0.02172 0.03508,0.0164 0.06943,0.03362 0.103075,0.05165 0.02881,0.01524 0.05908,0.02884 0.08635,0.04417 0,0 0,0 0,0 0.07208,0.03886 0.142718,0.07936 0.211273,0.12384 0,0 0,0 8.19e-4,7.23e-4 0.05565,0.036 0.109111,0.07445 0.162585,0.112901 0.0024,0.0022 0.004,0.0036 0.0066,0.0058 8.19e-4,7.23e-4 0.0016,0.0014 0.0024,0.0022 0.0049,0.0044 0.0105,0.0078 0.01537,0.01068 0,0 0,0 8.19e-4,7.22e-4 0.06012,0.04576 0.11878,0.09317 0.17609,0.143745 0.07614,0.06718 0.147115,0.138555 0.215097,0.211648 l 0,0 c 0,0 0,0 8.19e-4,7.21e-4 0.0016,0.0014 0.0025,0.0037 0.005,0.0059 0.05715,0.06062 0.111403,0.124511 0.163482,0.190848 h 0 c 0.07046,0.08839 0.136492,0.180132 0.195808,0.276148 l 0,0 c 8.18e-4,7.22e-4 0.0016,0.0014 0.0016,0.0014 1.037313,0.915374 2.702666,0.841873 4.259786,-0.02589 -0.03379,-0.17248 -0.07356,-0.341505 -0.117964,-0.51025 -0.007,-0.02506 -0.01309,-0.04941 -0.02077,-0.07365 -0.004,-0.0152 -0.0095,-0.02877 -0.01353,-0.04397 -0.0085,-0.02496 -0.01627,-0.05076 -0.02322,-0.07582 -0.0331,-0.110738 -0.06468,-0.22157 -0.103043,-0.329671 -0.0057,-0.01665 -0.0106,-0.03411 -0.01791,-0.0522 -0.05811,-0.164822 -0.122099,-0.324652 -0.192267,-0.484106 -0.0052,-0.01046 -0.0106,-0.02097 -0.01432,-0.03156 -0.05831,-0.130058 -0.122681,-0.258201 -0.190777,-0.383801 -0.0052,-0.0089 -0.0081,-0.01882 -0.0125,-0.02705 -0.01832,-0.03364 -0.03583,-0.06655 -0.05497,-0.100914 -0.05661,-0.102364 -0.118379,-0.200541 -0.180245,-0.300263 -0.01785,-0.02595 -0.03199,-0.05443 -0.04911,-0.08119 -0.01017,-0.01483 -0.01896,-0.03129 -0.02916,-0.04611 -0.01867,-0.02667 -0.03971,-0.05396 -0.05837,-0.08063 -0.07478,-0.108207 -0.149461,-0.21487 -0.230947,-0.318803 -0.0243,-0.03019 -0.04852,-0.05884 -0.07356,-0.0882 -0.0813,-0.10086 -0.166314,-0.19917 -0.254228,-0.294218 -0.03149,-0.03361 -0.06143,-0.06732 -0.09364,-0.100108 l 0,0 c 0,0 0,0 0,0 -0.114113,-0.118166 -0.231218,-0.234607 -0.355663,-0.344423 -3.247848,-2.866054 -8.866363,-1.843903 -12.525424,2.278674 l -5.73929,6.466322 c -3.658334,4.121759 -3.99358,9.807571 -0.745733,12.673624 3.247848,2.866053 8.86627,1.842363 12.524606,-2.279396 l 5.739289,-6.466322 c 0.120278,-0.135514 0.236556,-0.273102 0.34893,-0.411225 0.03677,-0.04472 0.07198,-0.08933 0.106388,-0.13467 0.003,-0.0033 0.0058,-0.0065 0.0087,-0.0098 0.07325,-0.09404 0.147219,-0.188896 0.218103,-0.283564 0.0286,-0.03881 0.05711,-0.07916 0.08572,-0.117967 0.01286,-0.01777 0.02489,-0.03627 0.03774,-0.05404 0.0621,-0.08642 0.124915,-0.173638 0.185468,-0.259955 0.0014,-0.0016 0.0021,-0.004 0.0035,-0.0057 0.03195,-0.04751 0.06307,-0.09574 0.09502,-0.143245 0.0085,-0.01287 0.01701,-0.02575 0.02552,-0.03862 0.05592,-0.08603 0.111121,-0.171254 0.164775,-0.256379 0.0098,-0.01605 0.019,-0.03128 0.02886,-0.04732 0.0056,-0.0096 0.01194,-0.02004 0.01683,-0.02882 0.02234,-0.03997 0.04631,-0.0785 0.07029,-0.117028 0.05066,-0.08339 0.09978,-0.166704 0.146445,-0.252176 0.01601,-0.02954 0.03201,-0.0591 0.04812,-0.0871 0.02089,-0.03834 0.04177,-0.07668 0.06277,-0.113481 0.05009,-0.09263 0.09638,-0.184259 0.143394,-0.276703 0.0042,-0.008 0.0091,-0.01677 0.01321,-0.02475 0.0028,-0.0048 0.0056,-0.0096 0.0084,-0.01441 0.02341,-0.04776 0.04765,-0.0948 0.07033,-0.141743 0.0548,-0.104501 0.103229,-0.211705 0.150931,-0.318092 z"
   id="path3725"
   inkscape:connector-curvature="0"
   style="fill:#ffffff;fill-opacity:1" />
	<path
   d="m 41.199079,51.098114 c 0.01152,-0.0015 0.02306,-0.0029 0.03386,-0.0036 0.163559,-0.02308 0.328944,-0.04163 0.491526,-0.05538 0.0078,-4.7e-4 0.01462,-0.0016 0.02234,-0.0022 0.332877,-0.02797 0.665343,-0.03738 0.992764,-0.02795 0.01006,1.59e-4 0.02016,3.18e-4 0.03096,-3.39e-4 0.01398,6.94e-4 0.02642,0.0015 0.03887,0.0023 0.007,3.48e-4 0.0147,-1.22e-4 0.02252,9.47e-4 0.134294,0.005 0.268052,0.01381 0.401904,0.0242 0.0055,4.42e-4 0.01093,8.82e-4 0.01789,0.0012 0.02098,10e-4 0.04359,0.0035 0.06538,0.0053 0.160465,0.01495 0.31885,0.03389 0.475974,0.05754 l 0,0 c 0.212011,-0.370462 0.460083,-0.733849 0.744592,-1.084006 l 5.468129,-6.69541 c 0.471231,-0.576981 1.0014,-1.064102 1.559107,-1.455592 7.25e-4,-8.16e-4 -9.4e-5,-0.0015 -9.13e-4,-0.0023 -0.02434,-0.169964 -0.04497,-0.342471 -0.06014,-0.514539 -3.77e-4,-0.0061 -7.54e-4,-0.01231 -0.0012,-0.02 -0.05881,-0.695333 -0.03777,-1.414828 0.06342,-2.140746 0.0051,-0.03043 0.01017,-0.0624 0.01451,-0.09201 0.02211,-0.144988 0.04659,-0.289348 0.07424,-0.432357 0.0075,-0.04139 0.01662,-0.08287 0.02487,-0.125076 0.02866,-0.13921 0.06031,-0.280145 0.09505,-0.421267 0.01006,-0.03769 0.01791,-0.07446 0.02799,-0.112138 0.04429,-0.174912 0.09402,-0.349383 0.147668,-0.52332 -1.733738,0.690078 -3.405163,1.892244 -4.761266,3.551724 l -5.468134,6.695411 c -0.949613,1.163665 -1.643412,2.432244 -2.089034,3.718933 0,0 0,0 -7.24e-4,8.17e-4 0.520806,-0.159107 1.045699,-0.276759 1.567873,-0.350225 z"
   id="path3727"
   inkscape:connector-curvature="0"
   style="fill:#ffffff;fill-opacity:1" />
	<path
   d="m 56.825232,38.849943 c -0.002,0.0056 -0.0039,0.01105 -0.0044,0.01648 -0.04681,0.184333 -0.08436,0.368103 -0.109754,0.548043 -9.79e-4,0.0094 -0.0026,0.02101 -0.0036,0.03034 -0.01061,0.07942 -0.01981,0.157206 -0.02519,0.233987 -7.91e-4,0.01241 -0.0031,0.02645 -0.0031,0.03804 -0.01342,0.173034 -0.0156,0.339978 -0.0078,0.505542 0.0017,0.01611 0.002,0.03231 0.0045,0.04761 0.0025,0.06627 0.01039,0.131429 0.01741,0.195872 0.0019,0.01765 0.0045,0.03448 0.0071,0.05285 0.01896,0.157936 0.05143,0.308872 0.09215,0.455444 0.0065,0.01737 0.01225,0.03555 0.01719,0.05301 0.01655,0.05537 0.0362,0.110551 0.05575,0.164193 0.0066,0.0189 0.01243,0.03863 0.01973,0.05672 0.02729,0.0663 0.05622,0.134045 0.08814,0.200063 l 8.19e-4,7.23e-4 c 0.0033,0.0029 0.0057,0.005 0.009,0.008 0.510163,0.413798 0.861654,0.968535 1.058612,1.605266 0.220467,0.717162 0.242964,1.540584 0.07575,2.39022 -0.212196,1.076333 -0.730913,2.193707 -1.550951,3.196578 l -5.466497,6.696857 c -0.16155,0.195173 -0.328295,0.381395 -0.503508,0.555777 l 0,0 c -0.08606,0.0871 -0.173134,0.170392 -0.261024,0.252966 -0.01468,0.01324 -0.02936,0.0265 -0.04332,0.03893 -7.24e-4,8.16e-4 -0.0014,0.0016 -0.003,0.0033 -0.06016,0.05463 -0.121155,0.108534 -0.181416,0.16163 -7.25e-4,8.16e-4 -0.0022,0.0024 -0.003,0.0033 -0.0089,0.0068 -0.01767,0.01498 -0.02502,0.02161 -0.09516,0.07761 -0.189509,0.155943 -0.28568,0.229754 -8.19e-4,-7.23e-4 -0.0015,9.4e-5 -0.0023,9.1e-4 -0.0067,0.0058 -0.01405,0.0109 -0.02148,0.01598 -0.07614,0.05947 -0.155548,0.116036 -0.235054,0.171071 0,0 -0.0015,9.3e-5 -0.0015,9.3e-5 -0.0059,0.005 -0.01187,0.0084 -0.01777,0.01344 -0.09645,0.06919 -0.196369,0.13242 -0.294018,0.194736 -0.006,0.0035 -0.01197,0.0069 -0.01869,0.01117 -7.24e-4,8.17e-4 -0.0014,0.0016 -0.0014,0.0016 -0.09774,0.06078 -0.195673,0.118478 -0.296155,0.172471 -0.0052,0.0026 -0.01125,0.0061 -0.01723,0.0096 -0.0014,0.0016 -0.003,0.0017 -0.0037,0.0025 -0.08398,0.04526 -0.169589,0.08909 -0.254478,0.132095 -0.01049,0.0052 -0.02259,0.01068 -0.0331,0.01592 0,0 -7.24e-4,8.15e-4 -7.24e-4,8.15e-4 -0.0955,0.04675 -0.191196,0.09041 -0.286981,0.132527 l 0,0 c -0.0634,0.02702 -0.128449,0.05261 -0.192768,0.07737 0,0 -7.25e-4,8.16e-4 -0.0015,9.4e-5 -0.0105,0.0052 -0.02195,0.0083 -0.03175,0.01274 l 0,0 c -0.01515,0.0056 -0.02721,0.01092 -0.04164,0.01566 -0.0031,1.88e-4 -0.0061,3.76e-4 -0.0084,0.0013 -0.05824,0.02285 -0.116667,0.04262 -0.175095,0.06239 -8.19e-4,-7.23e-4 -0.0015,9.4e-5 -0.0023,9.1e-4 -0.05471,0.01722 -0.108608,0.03518 -0.164133,0.05168 0,0 -7.25e-4,8.16e-4 -0.0015,9.4e-5 -0.01896,0.0065 -0.03729,0.01079 -0.05471,0.01723 -0.0015,9.3e-5 -0.0023,9.1e-4 -0.0031,1.87e-4 -0.0015,9.4e-5 -0.0023,9.1e-4 -0.003,0.0017 -0.05635,0.01579 -0.111972,0.03075 -0.168321,0.04654 -8.19e-4,-7.22e-4 -8.19e-4,-7.22e-4 -0.0015,9.4e-5 -7.25e-4,8.17e-4 -0.0015,9.4e-5 -0.0023,9.1e-4 -0.01915,0.0035 -0.03594,0.0076 -0.05345,0.01252 l 0,0 c -0.0549,0.01415 -0.11153,0.02532 -0.166523,0.03794 l 0,0 c 0,0 -0.0015,9.4e-5 -0.0015,9.4e-5 -0.110176,0.02215 -0.218996,0.04112 -0.325735,0.05611 -0.0015,9.4e-5 -0.0015,9.4e-5 -0.0024,-6.29e-4 -0.03686,0.0053 -0.07442,0.01148 -0.11282,0.0169 -0.0055,-4.4e-4 -0.01162,-6.5e-5 -0.01626,2.16e-4 h 0 c -0.08768,0.0099 -0.173289,0.01595 -0.259713,0.0212 -8.19e-4,-7.23e-4 -8.19e-4,-7.23e-4 -8.19e-4,-7.23e-4 -0.0031,1.88e-4 -0.0046,2.82e-4 -0.0078,4.69e-4 -0.09033,0.0047 -0.178579,0.0055 -0.267648,0.0055 0,0 -8.17e-4,-7.22e-4 -0.0015,9.4e-5 0,0 0,0 0,0 -0.0016,-0.0014 -0.0024,-6.28e-4 -0.0039,-5.35e-4 0,0 0,0 0,0 -0.117036,-0.0014 -0.233629,-0.0082 -0.347418,-0.0198 0,0 0,0 -8.19e-4,-7.22e-4 -0.02025,-0.0019 -0.03969,-0.0029 -0.06003,-0.0064 0,0 -0.0015,9.4e-5 -0.0024,-6.29e-4 -0.03351,-0.0034 -0.06784,-0.0074 -0.101447,-0.01236 -8.19e-4,-7.23e-4 -8.19e-4,-7.23e-4 -8.19e-4,-7.23e-4 0,0 0,0 -8.19e-4,-7.23e-4 -0.03279,-0.0041 -0.06803,-0.01057 -0.100911,-0.01625 -8.19e-4,-7.22e-4 -0.0015,9.4e-5 -0.0024,-6.29e-4 -0.03597,-0.0056 -0.07048,-0.0127 -0.105,-0.01987 l 0,0 c -0.03288,-0.0057 -0.06441,-0.01462 -0.09656,-0.02116 0,0 0,0 -8.19e-4,-7.22e-4 -0.03534,-0.0078 -0.07149,-0.01651 -0.106192,-0.02675 0,0 -7.24e-4,8.16e-4 -0.0015,9.4e-5 -0.01345,-0.0046 -0.02762,-0.0084 -0.04179,-0.01213 -0.05442,-0.01599 -0.108837,-0.03199 -0.161906,-0.05116 -8.19e-4,-7.21e-4 -0.0016,-0.0014 -0.0024,-6.28e-4 -0.0269,-0.0092 -0.05533,-0.01826 -0.0815,-0.02825 l 0,0 c -8.18e-4,-7.23e-4 -8.18e-4,-7.23e-4 -8.18e-4,-7.23e-4 -0.0348,-0.01178 -0.06978,-0.02664 -0.104781,-0.04151 -7.25e-4,8.16e-4 -0.0024,-6.28e-4 -0.0024,-6.28e-4 -0.01273,-0.0055 -0.02463,-0.01014 -0.03735,-0.01549 -0.05089,-0.02162 -0.101873,-0.04477 -0.150594,-0.06884 l 0,0 c -0.0016,-0.0014 -0.0024,-0.0022 -0.004,-0.0021 -0.02554,-0.01235 -0.05262,-0.02461 -0.07826,-0.03849 l 0,0 c -0.110348,-0.05661 -0.218173,-0.122649 -0.32165,-0.193582 0,0 0,0 0,0 -0.01127,-0.0071 -0.021,-0.01417 -0.03227,-0.0212 l 0,0 c -0.05592,-0.04062 -0.111947,-0.08277 -0.167243,-0.125748 -0.282052,-0.229971 -0.490767,-0.387948 -0.654531,-0.583412 -1.098754,-0.653696 -2.678311,-0.456443 -4.127062,0.435625 0,0 8.19e-4,7.22e-4 9.4e-5,0.0015 0.09003,0.319651 0.200488,0.631109 0.331064,0.92976 10e-4,0.0038 0.0028,0.0083 0.0055,0.01357 0,0 9.4e-5,0.0015 9.13e-4,0.0023 0.0055,0.01357 0.01168,0.02631 0.01787,0.03907 0.06022,0.136119 0.12397,0.266617 0.192349,0.396834 0.0096,0.01872 0.01933,0.03743 0.02899,0.05615 0.0744,0.139891 0.154045,0.277144 0.238864,0.410222 0.0025,0.0037 0.0059,0.0082 0.0084,0.01184 0.03089,0.04909 0.06549,0.09564 0.09855,0.142283 0.05539,0.08235 0.10922,0.164801 0.1675,0.24389 8.19e-4,7.22e-4 0.0024,0.0022 0.0025,0.0037 0.01757,0.02132 0.03514,0.04266 0.05207,0.06634 0.07493,0.09816 0.153686,0.195305 0.235332,0.289189 0.03004,0.03524 0.06235,0.06957 0.0932,0.105536 0.07554,0.08268 0.153346,0.164434 0.234051,0.242931 0.03294,0.03197 0.06515,0.06477 0.09891,0.09747 0,0 8.19e-4,7.22e-4 8.19e-4,7.22e-4 0.113359,0.105852 0.228073,0.208542 0.349592,0.308496 0.128792,0.104915 0.261649,0.200322 0.39668,0.293276 0.03883,0.02698 0.07674,0.05171 0.117113,0.0786 0.104104,0.06858 0.210296,0.133168 0.317839,0.194587 0.03773,0.02165 0.07391,0.04339 0.110817,0.06431 0.142625,0.07781 0.28651,0.150928 0.43383,0.216877 0.01908,0.0081 0.03653,0.01477 0.05326,0.02225 0.01273,0.0055 0.02463,0.01014 0.03735,0.01549 0.03098,0.01279 0.0627,0.02476 0.09369,0.03754 0.08978,0.03701 0.178027,0.07412 0.269891,0.107149 0.04116,0.01449 0.08396,0.03041 0.125844,0.04409 0.125751,0.04255 0.253581,0.08111 0.382042,0.117315 0.02989,0.0074 0.06078,0.0187 0.09058,0.0246 0.05042,0.01392 0.102102,0.02313 0.152334,0.03398 0.102201,0.02468 0.203575,0.04863 0.306213,0.06787 0.01017,0.0017 0.01962,0.0043 0.02825,0.006 0.02507,0.0047 0.05014,0.0093 0.07429,0.0117 0.09001,0.01538 0.182099,0.02676 0.273465,0.03897 0.05231,0.0069 0.103994,0.01607 0.155486,0.02221 0.03815,0.0031 0.07565,0.0085 0.114608,0.01234 0.01398,6.95e-4 0.02951,0.0013 0.04277,0.0028 0.145567,0.01199 0.291954,0.02471 0.439319,0.0281 0.007,3.48e-4 0.01408,0.0022 0.02025,0.0019 0.176875,0.0047 0.355642,0.0023 0.536582,-0.0025 0.02006,-0.0012 0.04086,-0.0033 0.06246,-0.0046 0.159147,-0.0065 0.31946,-0.01944 0.478766,-0.03607 0.02706,-8.73e-4 0.05238,-0.0047 0.0778,-0.0071 0.345383,-0.03878 0.694805,-0.100183 1.042277,-0.180788 0.01226,-0.0023 0.02368,-0.0053 0.0344,-0.0075 0.0077,-0.002 0.0138,-0.0024 0.02142,-0.0044 0.01298,-0.0031 0.0275,-0.0063 0.03965,-0.01014 0.09311,-0.02265 0.185927,-0.04993 0.278843,-0.07565 0.08375,-0.02363 0.166147,-0.04409 0.249803,-0.06926 0.01144,-0.0031 0.02132,-0.0059 0.03276,-0.0089 0.0038,-10e-4 0.0083,-0.0028 0.01288,-0.0047 0,0 7.24e-4,-8.16e-4 0.0015,-9.4e-5 0.164227,-0.05015 0.327983,-0.107989 0.493912,-0.168282 0.201397,-0.07558 0.404872,-0.155143 0.605516,-0.243031 0.0098,-0.0045 0.01959,-0.0089 0.03093,-0.01346 0.01433,-0.0063 0.02867,-0.01256 0.04372,-0.01966 0.03011,-0.01418 0.05931,-0.03063 0.09096,-0.04492 1.551102,-0.712946 3.032311,-1.834038 4.255122,-3.330182 l 5.46886,-6.696228 c 3.486687,-4.268863 3.58676,-9.962765 0.224083,-12.692862 -0.612945,-0.498675 -1.301318,-0.863018 -2.035355,-1.100247 -0.291243,0.467953 -0.514176,0.951058 -0.665488,1.427489 -0.0021,0.004 -0.0026,0.0078 -0.0047,0.01187 -0.03665,0.09722 -0.06215,0.18681 -0.08611,0.276307 z"
   id="path3729"
   inkscape:connector-curvature="0"
   style="fill:#ffffff;fill-opacity:1" />
</g>
</svg>
