<?xml version="1.0" encoding="UTF-8" standalone="no"?>
<!-- Created with Inkscape (http://www.inkscape.org/) -->

<svg
   xmlns:dc="http://purl.org/dc/elements/1.1/"
   xmlns:cc="http://creativecommons.org/ns#"
   xmlns:rdf="http://www.w3.org/1999/02/22-rdf-syntax-ns#"
   xmlns:svg="http://www.w3.org/2000/svg"
   xmlns="http://www.w3.org/2000/svg"
   version="1.1"
   width="55"
   height="55"
   viewBox="0 0 55 55"
   id="svg2"
   xml:space="preserve"><metadata
     id="metadata17"><rdf:RDF><cc:Work
         rdf:about=""><dc:format>image/svg+xml</dc:format><dc:type
           rdf:resource="http://purl.org/dc/dcmitype/StillImage" /><dc:title></dc:title></cc:Work></rdf:RDF></metadata><defs
     id="defs15" /><g
     transform="matrix(1.3576811,0,0,1.3576811,-8.8093315,-11.060859)"
     id="Eraser"><g
       id="g5"
       style="display:inline"><path
         d="m 15.621,33.853 c -1.1,0 -1.424,-0.691 -0.721,-1.536 L 29.149,15.208 c 0.704,-0.845 2.18,-1.537 3.28,-1.537 h 7.805 c 1.1,0 1.424,0.691 0.721,1.537 L 26.706,32.316 c -0.704,0.845 -2.18,1.536 -3.28,1.536 h -7.805 z"
         id="path7"
         style="fill:#ffffff" /><path
         d="m 24.709,41.155 c -0.166,1.088 -1.2,1.978 -2.301,1.978 h -8.525 c -1.1,0 -1.865,-0.89 -1.7,-1.978 l 0.549,-3.62 c 0.165,-1.088 1.2,-1.978 2.3,-1.978 h 8.525 c 1.101,0 1.865,0.89 1.701,1.978 l -0.549,3.62 z"
         id="path9"
         style="fill:#ffffff" /><path
         d="m 40.446,23.333 c -0.189,1.083 -0.921,2.662 -1.625,3.507 l -11.35,13.627 c -0.705,0.846 -1.125,0.65 -0.936,-0.434 l 0.646,-3.688 c 0.19,-1.083 0.921,-2.661 1.626,-3.506 l 11.35,-13.627 c 0.705,-0.845 1.125,-0.65 0.936,0.434 l -0.647,3.687 z"
         id="path11"
         style="fill:#ffffff" /></g></g></svg>