<?xml version="1.0" encoding="UTF-8" standalone="no"?>
<svg
   xmlns:dc="http://purl.org/dc/elements/1.1/"
   xmlns:cc="http://creativecommons.org/ns#"
   xmlns:rdf="http://www.w3.org/1999/02/22-rdf-syntax-ns#"
   xmlns:svg="http://www.w3.org/2000/svg"
   xmlns="http://www.w3.org/2000/svg"
   version="1.1"
   id="svg2"
   fill="#eee"
   stroke="#000"
   stroke-width="3.5"
   stroke-linejoin="round"
   stroke-linecap="round"
   width="55px"
   viewBox="0 0 55 55"
   height="55px">
  <metadata
     id="metadata22">
    <rdf:RDF>
      <cc:Work
         rdf:about="">
        <dc:format>image/svg+xml</dc:format>
        <dc:type
           rdf:resource="http://purl.org/dc/dcmitype/StillImage" />
        <dc:title></dc:title>
      </cc:Work>
    </rdf:RDF>
  </metadata>
  <defs
     id="defs20" />
  <g
     transform="translate(0.24017599,2.6693953)"
     id="g4603">
    <g
       id="g4592"
       transform="matrix(0.73390463,0,0,0.73390463,13.668358,12.953631)">
      <g
         id="g8">
        <path
           id="path10"
           d="M 31.9688,19.8438 C 30.4562,19.1051 28.8579,18.4137 27.1562,17.8125 24.8359,16.9928 22.3103,16.5624 19.8438,16.5938 14.4172,16.6627 9.21513,18.9671 6.65625,24.375 2.63425,32.869 10.0277,43.085 20.3438,43 27.2097,42.944 34.0765,45.5823 38.1875,48.1562 42.8935,51.1093 50.09,47.4695 49.125,40.1875 48.308,34.0248 44.0348,27.4106 36.5938,22.4688 M 39.125,36 c 0.4172,-0.0294 0.8605,0.0438 1.2812,0.1875 1.68,0.576 2.574,2.4108 2,4.0937 -0.5799,1.6771 -2.4057,2.5751 -4.0937,2 -1.677,-0.576 -2.576,-2.4117 -2,-4.0937 0.4327,-1.2608 1.561,-2.0993 2.8125,-2.1875 z"
           style="fill:#eeeeee;stroke:#000000;stroke-width:3.5" />
      </g>
      <g
         id="g12">
        <path
           id="path14"
           d="m 33.104,26.905 c 0,0 6.854,-8.475 8.649,-11.625 2.637,-4.629 3.951,-9.307 1.935,-10.182 -1.482,-0.644 -5.54,2.84 -7.669,6.662 -1.441,2.594 -6.557,13.261 -6.557,13.261 z"
           style="fill:#eeeeee;stroke:#000000;stroke-width:3.5" />
        <path
           id="path16"
           d="m 33.104,26.905 -3.676,-1.908 c 0,0 -2.889,1.954 -3.99,3.899 -1.101,1.956 -1.143,5.758 -3.071,7.748 -1.159,1.193 -0.01,0.943 -0.01,0.943 0,0 6.959,-2.412 8.337,-4.542 1.368,-2.11 2.41,-6.14 2.41,-6.14 z"
           style="fill:#eeeeee;stroke:#000000;stroke-width:3.5" />
      </g>
    </g>
    <g
       id="g4585"
       transform="matrix(1.1666667,0,0,1.1666667,1.5245824,-2.4944689)">
      <path
         id="path4581"
         d="M 2.5744189,10.719995 C 12.266349,6.2071906 14.871055,8.5393113 14.871055,8.5393113 l 0.99948,-4.5733794 11.35773,-1.9686733 3.997922,7.8444057 -1.696088,8.5410137 -10.176527,1.484076 -0.181723,1.484077 -7.329522,4.45223 -1.8899375,0.244602 -7.3779706,-5.666025 z"
         style="fill:#ffffff;stroke:none;stroke-width:1px;stroke-linecap:butt;stroke-linejoin:miter;stroke-opacity:1" />
      <path
         id="path4577"
         d="m 9.9523895,26.047663 c -0.0894,-0.1116 -0.213749,-0.369734 -0.276374,-0.573628 -0.1089,-0.354868 0.05685,-7.938868 0.171014,-7.824644 0.069,0.069 0.5952425,3.706231 0.8623615,5.960707 0.210959,1.780552 0.113849,2.50403 -0.347909,2.592964 -0.135599,0.0261 -0.319709,-0.0438 -0.4090925,-0.155399 z m 1.5843375,-0.196799 c -0.136049,-0.354359 -0.0453,-0.418154 1.634064,-1.150736 1.504704,-0.656352 3.994184,-2.231331 5.183634,-3.279422 l 0.678177,-0.597582 0.14085,-1.961587 c 0.168149,-2.341281 0.187499,-4.394053 0.05085,-5.391339 l -0.09975,-0.727347 -1.11649,0.614742 c -1.135016,0.624928 -5.361024,2.54228 -6.065571,2.751949 -0.212534,0.0633 0.602217,-0.467068 1.810553,-1.178485 1.208335,-0.711402 2.828733,-1.718108 3.600885,-2.237121 l 1.40392,-0.943631 -0.854682,-0.787737 C 16.885976,10.025042 14.67233,8.3662133 13.072076,7.3422873 L 11.920351,6.6053403 11.110504,6.8732392 C 9.3082465,7.4694118 3.6808995,10.3971 3.3698455,10.900393 c -0.0669,0.10815 0.941546,1.20199 2.546975,2.762794 1.461699,1.421064 2.551715,2.52554 2.42225,2.45438 -0.861116,-0.473293 -3.887129,-2.708554 -5.397818,-3.987284 -0.290999,-0.246314 -0.295349,-0.197189 -0.192915,2.180377 0.0576,1.337799 0.207555,3.205202 0.333149,4.149793 l 0.228374,1.717433 0.827637,0.847137 c 0.455203,0.465928 1.710353,1.558584 2.789224,2.4281 1.915327,1.543674 2.306751,2.020342 1.814228,2.209341 -0.249584,0.09585 -2.313111,-1.461504 -4.346488,-3.280157 -1.766048,-1.579538 -1.835183,-1.698773 -2.102062,-3.62469 -0.334948,-2.41736 -0.493588,-7.66068 -0.240974,-7.965058 0.1065,-0.1284 0.952781,-0.689203 1.880558,-1.2463154 3.003633,-1.8036229 7.0698755,-3.7096203 7.9141175,-3.7096203 0.673737,0 4.856291,2.9230234 7.230916,5.0533897 0.713037,0.639703 0.782097,0.765972 0.889077,1.625559 0.171719,1.379754 0.161939,4.761866 -0.01965,6.814128 -0.157665,1.781303 -0.16617,1.808872 -0.740277,2.39681 -0.955796,0.978836 -3.145173,2.447435 -4.982305,3.342047 -2.078617,1.012226 -2.546615,1.14847 -2.687135,0.782307 z m 1.070786,-2.312916 c -0.452953,-0.452953 0.009,-1.777298 0.679677,-1.945447 0.875427,-0.219719 1.157861,0.812006 0.451949,1.650938 -0.427229,0.507733 -0.816972,0.609163 -1.131626,0.294509 z M 6.9491015,22.615587 c -0.864867,-0.928317 -0.408659,-2.413626 0.578997,-1.885058 0.473323,0.253319 0.858642,1.204555 0.691933,1.708163 -0.1863,0.562783 -0.828192,0.652123 -1.27093,0.176895 z m 7.8553925,-2.530025 c -0.554757,-0.554758 0.249134,-2.070607 1.048886,-1.977832 0.358079,0.04155 0.416503,0.128849 0.457273,0.683562 0.03675,0.500803 -0.0366,0.725862 -0.345598,1.059251 -0.419294,0.452428 -0.854937,0.540642 -1.160561,0.235019 z m 5.722598,-0.230159 c -0.0576,-0.0576 -0.10455,-0.219855 -0.10455,-0.360704 0,-0.216119 0.349139,-0.285299 2.236206,-0.443098 2.144482,-0.17934 5.22919,-0.680713 6.006637,-0.976286 0.289663,-0.1101 0.458278,-0.420644 0.777956,-1.4326 0.423389,-1.340274 1.020206,-4.525527 1.021676,-5.452688 l 8.25e-4,-0.531343 -0.745407,0.10365 c -2.199336,0.305593 -7.414846,0.566292 -7.414816,0.370633 1.5e-5,-0.06465 0.21339,-0.117749 0.474179,-0.117749 0.260774,0 2.071597,-0.317774 4.024049,-0.706168 1.952467,-0.3883929 3.582796,-0.7061817 3.622965,-0.7061817 0.303194,0 -0.899366,-2.749054 -2.28251,-5.2178042 l -1.033001,-1.8438826 -0.951221,1.2e-4 c -1.42144,1.95e-4 -4.165079,0.2783539 -6.286746,0.6373774 -1.762178,0.2981989 -3.492661,0.6843423 -3.615,0.8066668 -0.08025,0.08025 0.500563,2.9587982 0.702477,3.4815461 0.0963,0.2493291 0.142949,0.4853981 0.103799,0.524593 -0.107399,0.1073995 -0.478558,-0.6906723 -0.892541,-1.9194674 -0.271124,-0.8047618 -0.382304,-0.993581 -0.415783,-0.7061672 -0.188505,1.6181486 -0.22011,1.7261931 -0.505108,1.7261931 -0.425594,0 -0.486029,-0.3362236 -0.311114,-1.7311731 0.223094,-1.7791729 0.327178,-1.986967 1.099525,-2.1949412 2.966539,-0.7988068 6.418595,-1.2888549 9.243264,-1.3121798 l 2.270976,-0.01875 0.500323,0.761217 c 0.719832,1.0952056 2.303316,4.2074982 2.886213,5.6727823 0.457904,1.1510655 0.491218,1.3532497 0.400724,2.4323605 -0.267494,3.189527 -1.2967,7.506555 -1.893713,7.943098 -0.789536,0.577318 -8.506226,1.624899 -8.920179,1.210961 z m 0.729492,-1.615359 c -0.18855,-0.07995 -0.418289,-0.286454 -0.510523,-0.458788 -0.13575,-0.253574 -0.0954,-0.397484 0.211544,-0.754257 0.668862,-0.777612 2.289546,-0.537898 2.289546,0.338623 0,0.702838 -1.176626,1.219706 -1.990567,0.874422 z m 5.359044,-0.464278 c -0.882492,-0.371819 -0.857547,-1.153061 0.0489,-1.531794 0.581787,-0.243089 1.328064,-0.187619 1.707008,0.126899 0.295844,0.245519 0.262889,0.826317 -0.06345,1.119206 -0.343019,0.307814 -1.26892,0.464128 -1.692398,0.285704 z M 3.9611435,16.680545 c -0.672643,-0.672642 -0.477434,-2.056027 0.290098,-2.056027 0.654763,0 1.172396,1.27618 0.854082,2.105677 -0.130649,0.340469 -0.782322,0.312194 -1.14418,-0.04965 z M 16.808231,16.498431 c -0.383938,-0.717387 0.370979,-1.954672 1.127291,-1.847618 0.311054,0.0441 0.375928,0.15576 0.416608,0.717297 0.039,0.539038 -0.02655,0.739857 -0.345958,1.059266 -0.478064,0.478048 -0.964677,0.506923 -1.197941,0.0711 z m 4.555797,-2.381706 c -0.483013,-0.253919 -0.587532,-0.829286 -0.223679,-1.231345 0.386369,-0.426943 1.674833,-0.419023 2.106802,0.0135 0.172619,0.172619 0.313844,0.408824 0.313844,0.524923 0,0.631453 -1.44643,1.088021 -2.196967,0.693477 z m 5.535114,-0.466828 c -0.945357,-0.456268 -0.300059,-1.536204 0.917951,-1.536204 0.823017,0 1.23634,0.234104 1.23634,0.700302 0,0.786732 -1.25068,1.27201 -2.154291,0.835902 z M 10.264957,12.137273 c -1.0548545,-0.307934 -1.3080835,-1.24312 -0.4742675,-1.751498 0.8730115,-0.5322877 2.0735465,-0.355243 2.5530045,0.376514 0.331979,0.506653 0.0978,0.978701 -0.638247,1.286215 -0.562903,0.235199 -0.873342,0.254339 -1.44049,0.0888 z M 21.592282,7.0207036 c -0.489853,-0.489868 -0.483598,-0.6390424 0.0492,-1.1718703 0.560833,-0.5608328 1.41028,-0.7257571 2.148802,-0.4171784 0.618582,0.258464 0.791067,0.5402979 0.657147,1.0738308 -0.223754,0.8915364 -2.134147,1.236265 -2.855194,0.5152179 z"
         style="fill:#000000;stroke-width:0.54924333" />
    </g>
  </g>
</svg>
