<?xml version="1.0" encoding="UTF-8" standalone="no"?>
<svg
   xmlns:dc="http://purl.org/dc/elements/1.1/"
   xmlns:cc="http://creativecommons.org/ns#"
   xmlns:rdf="http://www.w3.org/1999/02/22-rdf-syntax-ns#"
   xmlns:svg="http://www.w3.org/2000/svg"
   xmlns="http://www.w3.org/2000/svg"
   xmlns:sodipodi="http://sodipodi.sourceforge.net/DTD/sodipodi-0.dtd"
   xmlns:inkscape="http://www.inkscape.org/namespaces/inkscape"
   version="1.1"
   x="0px"
   y="0px"
   width="100px"
   height="100px"
   viewBox="0 0 100 100"
   enable-background="new 0 0 100 100"
   xml:space="preserve"
   id="svg2"
   inkscape:version="0.48.3.1 r9886"
   sodipodi:docname="icon_23173.svg"><metadata
   id="metadata12"><rdf:RDF><cc:Work
       rdf:about=""><dc:format>image/svg+xml</dc:format><dc:type
         rdf:resource="http://purl.org/dc/dcmitype/StillImage" /><dc:title></dc:title></cc:Work></rdf:RDF></metadata><defs
   id="defs10" /><sodipodi:namedview
   pagecolor="#ffffff"
   bordercolor="#666666"
   borderopacity="1"
   objecttolerance="10"
   gridtolerance="10"
   guidetolerance="10"
   inkscape:pageopacity="0"
   inkscape:pageshadow="2"
   inkscape:window-width="761"
   inkscape:window-height="480"
   id="namedview8"
   showgrid="false"
   inkscape:zoom="2.36"
   inkscape:cx="50"
   inkscape:cy="50"
   inkscape:window-x="0"
   inkscape:window-y="27"
   inkscape:window-maximized="0"
   inkscape:current-layer="svg2" />
<g
   id="Your_Icon">
</g>
<g
   id="ICONS"
   style="fill:#ffffff;fill-opacity:1">
	<path
   d="M27.705,98.258c0.728-10.187,1.262-13.813,3.688-19.877c1.021-2.552-11.873-16.319-1.02-30.325   c-2.096,5.91,3.671,12.707,2.85,19.826c1.723-6.641-4.302-18.099-1.308-22.404c0,0,8.205-14.292,15.116-19.112   c-2.001,4.957-1.591,9.14-1.182,11.095c0.5-7.821,2.819-13.187,5.729-15.46c0,0-2.273,3.501-2.318,11.595   c1.416-6.218,2.91-15.051,7.002-17.825c0,0,16.917-13.248,21.161-13.672c-0.282,0.472-0.448,0.588-0.448,1.497   c0,0,1.509-1.891,5.025-1.982c-1.698,1.303-3.032,2.638-2.729,3.365c0.303,0.727,1.334,0.424,1.879-0.152   c0.546-0.576-4.789,11.763-20.25,23.767c-1.365,0.637,8.912-4.547,11.551-9.094c-0.933,5.862-2.365,11.096-8.096,14.916   c-0.637,1.091-0.734,1.8-2,2.364c-2.092,2.41-12.323,5.457-12.959,6.23c0,0,8.684-1.91,12.231-4.82   c0.456-0.682-3.091,8.777-6.639,12.705c-2.728,2.984-0.454,11.713-18.006,19.626c4.367-1.453,6.093-2.183,7.548-3.001   c1.456-0.819,3.615-2.107,3.547-3.093C47.168,74.976,33.49,78.428,32.98,80.16c-2.687,1.195-2.972,13.85-2.638,14.551   C31.252,96.621,27.705,98.258,27.705,98.258z"
   id="path6"
   style="fill:#ffffff;fill-opacity:1" />
</g>
</svg>