<?xml version="1.0" encoding="UTF-8" standalone="no"?>
<!-- Created with Inkscape (http://www.inkscape.org/) -->

<svg
   xmlns:dc="http://purl.org/dc/elements/1.1/"
   xmlns:cc="http://creativecommons.org/ns#"
   xmlns:rdf="http://www.w3.org/1999/02/22-rdf-syntax-ns#"
   xmlns:svg="http://www.w3.org/2000/svg"
   xmlns="http://www.w3.org/2000/svg"
   version="1.1"
   width="55"
   height="55"
   viewBox="0 0 55 55"
   id="svg2"
   xml:space="preserve"><metadata
     id="metadata12"><rdf:RDF><cc:Work
         rdf:about=""><dc:format>image/svg+xml</dc:format><dc:type
           rdf:resource="http://purl.org/dc/dcmitype/StillImage" /><dc:title></dc:title></cc:Work></rdf:RDF></metadata><defs
     id="defs10" /><g
     transform="translate(0,-45)"
     id="Your_Icon" /><g
     transform="matrix(0.55875171,0,0,0.55875171,-0.527494,0.356175)"
     id="ICONS"
     style="fill:#ffffff;fill-opacity:1"><path
       d="m 27.705,98.258 c 0.728,-10.187 1.262,-13.813 3.688,-19.877 1.021,-2.552 -11.873,-16.319 -1.02,-30.325 -2.096,5.91 3.671,12.707 2.85,19.826 1.723,-6.641 -4.302,-18.099 -1.308,-22.404 0,0 8.205,-14.292 15.116,-19.112 -2.001,4.957 -1.591,9.14 -1.182,11.095 0.5,-7.821 2.819,-13.187 5.729,-15.46 0,0 -2.273,3.501 -2.318,11.595 1.416,-6.218 2.91,-15.051 7.002,-17.825 0,0 16.917,-13.248 21.161,-13.672 -0.282,0.472 -0.448,0.588 -0.448,1.497 0,0 1.509,-1.891 5.025,-1.982 -1.698,1.303 -3.032,2.638 -2.729,3.365 0.303,0.727 1.334,0.424 1.879,-0.152 0.546,-0.576 -4.789,11.763 -20.25,23.767 -1.365,0.637 8.912,-4.547 11.551,-9.094 -0.933,5.862 -2.365,11.096 -8.096,14.916 -0.637,1.091 -0.734,1.8 -2,2.364 -2.092,2.41 -12.323,5.457 -12.959,6.23 0,0 8.684,-1.91 12.231,-4.82 0.456,-0.682 -3.091,8.777 -6.639,12.705 -2.728,2.984 -0.454,11.713 -18.006,19.626 4.367,-1.453 6.093,-2.183 7.548,-3.001 1.456,-0.819 3.615,-2.107 3.547,-3.093 C 47.168,74.976 33.49,78.428 32.98,80.16 c -2.687,1.195 -2.972,13.85 -2.638,14.551 0.91,1.91 -2.637,3.547 -2.637,3.547 z"
       id="path6"
       style="fill:#ffffff;fill-opacity:1" /></g></svg>