<?xml version="1.0" encoding="UTF-8" standalone="no"?>
<svg
   xmlns:dc="http://purl.org/dc/elements/1.1/"
   xmlns:cc="http://creativecommons.org/ns#"
   xmlns:rdf="http://www.w3.org/1999/02/22-rdf-syntax-ns#"
   xmlns:svg="http://www.w3.org/2000/svg"
   xmlns="http://www.w3.org/2000/svg"
   xmlns:sodipodi="http://sodipodi.sourceforge.net/DTD/sodipodi-0.dtd"
   xmlns:inkscape="http://www.inkscape.org/namespaces/inkscape"
   version="1.1"
   id="Layer_1"
   x="0px"
   y="0px"
   width="100px"
   height="100px"
   viewBox="0 0 100 100"
   enable-background="new 0 0 100 100"
   xml:space="preserve"
   inkscape:version="0.48.3.1 r9886"
   sodipodi:docname="icon_1694.svg"><metadata
   id="metadata11"><rdf:RDF><cc:Work
       rdf:about=""><dc:format>image/svg+xml</dc:format><dc:type
         rdf:resource="http://purl.org/dc/dcmitype/StillImage" /><dc:title></dc:title></cc:Work></rdf:RDF></metadata><defs
   id="defs9" /><sodipodi:namedview
   pagecolor="#ffffff"
   bordercolor="#666666"
   borderopacity="1"
   objecttolerance="10"
   gridtolerance="10"
   guidetolerance="10"
   inkscape:pageopacity="0"
   inkscape:pageshadow="2"
   inkscape:window-width="761"
   inkscape:window-height="480"
   id="namedview7"
   showgrid="false"
   inkscape:zoom="2.36"
   inkscape:cx="50"
   inkscape:cy="50"
   inkscape:window-x="0"
   inkscape:window-y="27"
   inkscape:window-maximized="0"
   inkscape:current-layer="Layer_1" />
<g
   id="g3"
   style="fill:#ffffff;fill-opacity:1">
	<path
   d="M24.133,75.455c1.672,4.369,5.093,8.401,12.127,8.401h24.675c0,0,5.488,0.176,4.754-5.537   c-0.094-0.734-0.406-1.713-0.852-2.496c-7.48,0.131-13.525-0.302-17.884-3.232c-7.837-5.271-15.544-4.968-15.544-4.968   l-0.102,7.832H24.133L24.133,75.455z M70.914,75.796c0.424,0.872,0.814,1.657,1.146,2.282c2.041,3.837,3.266,5.778,10.531,5.778   c7.264,0,14.127-0.391,7.186-9.213c-0.098-0.126-0.199-0.246-0.303-0.372c-3.057,0.404-7.562,0.872-13.988,1.263   C73.918,75.626,72.395,75.719,70.914,75.796L70.914,75.796z M48.743,13.077c0,0-0.182,14.146,1.385,20.079   c4.181,15.837,18.185,23.736,34.294,26.437c14.861,2.489,10.697,13.685,10.697,13.685s-0.588,0.173-2.062,0.443   c2.195,3.013,4.027,6.214,5.439,9.56c-1.971,1.694-4.293,3.261-6.92,4.673c-14.049,1.158-30.301,1.823-48.922,1.823   c-14.659,0-28.558-0.644-41.596-1.416c-0.271-0.255-0.364-0.965-0.207-1.547c0.932-3.435,4.083-3.348,4.083-3.348l9.813-0.576   c2.798-0.099,5.503-1.812,4.313-5.06c-0.188-0.509-1.089-2.375-1.089-2.375h-5.163h-0.32l-0.474-9.473   c-0.17-1.597-0.368-3.109-0.584-4.27c-2.023-10.896,2.077-17.075,4.024-25.359c0.182-0.771,0.308-1.707,0.391-2.773   c0.083-4.627-0.036-9.637-0.036-16.783l25.477-8.616C46.038,6.647,48.906,8.888,48.743,13.077L48.743,13.077z"
   id="path5"
   style="fill:#ffffff;fill-opacity:1" />
</g>
</svg>