<?xml version="1.0" encoding="UTF-8" standalone="no"?>
<!-- Created with Inkscape (http://www.inkscape.org/) -->

<svg
   xmlns:dc="http://purl.org/dc/elements/1.1/"
   xmlns:cc="http://creativecommons.org/ns#"
   xmlns:rdf="http://www.w3.org/1999/02/22-rdf-syntax-ns#"
   xmlns:svg="http://www.w3.org/2000/svg"
   xmlns="http://www.w3.org/2000/svg"
   version="1.1"
   width="55"
   height="55"
   viewBox="0 0 55 55"
   id="svg3208"
   xml:space="preserve"><metadata
     id="metadata3216"><rdf:RDF><cc:Work
         rdf:about=""><dc:format>image/svg+xml</dc:format><dc:type
           rdf:resource="http://purl.org/dc/dcmitype/StillImage" /><dc:title></dc:title></cc:Work></rdf:RDF></metadata><defs
     id="defs3214" /><rect
     width="53.012661"
     height="53.012657"
     ry="5.6125684"
     x="0.99367082"
     y="0.99367201"
     id="rect2987-6"
     style="fill:#a0a0a0;fill-opacity:1;fill-rule:nonzero;stroke:#a0a0a0;stroke-width:1.98734164;stroke-linecap:round;stroke-linejoin:round;stroke-miterlimit:4;stroke-opacity:1;stroke-dasharray:none;stroke-dashoffset:0" /><rect
     width="53.012661"
     height="53.012657"
     ry="5.6125684"
     x="0.99367082"
     y="572.24365"
     id="rect2987"
     style="fill:#a0a0a0;fill-opacity:1;fill-rule:nonzero;stroke:#a0a0a0;stroke-width:1.98734164;stroke-linecap:round;stroke-linejoin:round;stroke-miterlimit:4;stroke-opacity:1;stroke-dasharray:none;stroke-dashoffset:0" /><g
     transform="matrix(0.55259167,0,0,0.55259167,0.3465882,5.166978)"
     id="g3"
     style="fill:#ffffff"><path
       d="m 24.133,75.455 c 1.672,4.369 5.093,8.401 12.127,8.401 h 24.675 c 0,0 5.488,0.176 4.754,-5.537 C 65.595,77.585 65.283,76.606 64.837,75.823 57.357,75.954 51.312,75.521 46.953,72.591 39.116,67.32 31.409,67.623 31.409,67.623 l -0.102,7.832 h -7.174 l 0,0 z m 46.781,0.341 c 0.424,0.872 0.814,1.657 1.146,2.282 2.041,3.837 3.266,5.778 10.531,5.778 7.264,0 14.127,-0.391 7.186,-9.213 -0.098,-0.126 -0.199,-0.246 -0.303,-0.372 -3.057,0.404 -7.562,0.872 -13.988,1.263 -1.568,0.092 -3.091,0.185 -4.572,0.262 l 0,0 z M 48.743,13.077 c 0,0 -0.182,14.146 1.385,20.079 4.181,15.837 18.185,23.736 34.294,26.437 14.861,2.489 10.697,13.685 10.697,13.685 0,0 -0.588,0.173 -2.062,0.443 2.195,3.013 4.027,6.214 5.439,9.56 -1.971,1.694 -4.293,3.261 -6.92,4.673 -14.049,1.158 -30.301,1.823 -48.922,1.823 -14.659,0 -28.558,-0.644 -41.596,-1.416 C 0.787,88.106 0.694,87.396 0.851,86.814 1.783,83.379 4.934,83.466 4.934,83.466 l 9.813,-0.576 c 2.798,-0.099 5.503,-1.812 4.313,-5.06 -0.188,-0.509 -1.089,-2.375 -1.089,-2.375 h -5.163 -0.32 l -0.474,-9.473 c -0.17,-1.597 -0.368,-3.109 -0.584,-4.27 -2.023,-10.896 2.077,-17.075 4.024,-25.359 0.182,-0.771 0.308,-1.707 0.391,-2.773 0.083,-4.627 -0.036,-9.637 -0.036,-16.783 L 41.286,8.181 c 4.752,-1.534 7.62,0.707 7.457,4.896 l 0,0 z"
       id="path5"
       style="fill:#ffffff" /></g></svg>