<?xml version="1.0" encoding="UTF-8" standalone="no"?>
<!-- Created with Inkscape (http://www.inkscape.org/) -->

<svg
   xmlns:dc="http://purl.org/dc/elements/1.1/"
   xmlns:cc="http://creativecommons.org/ns#"
   xmlns:rdf="http://www.w3.org/1999/02/22-rdf-syntax-ns#"
   xmlns:svg="http://www.w3.org/2000/svg"
   xmlns="http://www.w3.org/2000/svg"
   xmlns:xlink="http://www.w3.org/1999/xlink"
   version="1.1"
   width="55"
   height="55"
   viewBox="0 0 54.999998 55.000001"
   id="Icon"
   xml:space="preserve"
   style="overflow:visible"><metadata
     id="metadata26"><rdf:RDF><cc:Work
         rdf:about=""><dc:format>image/svg+xml</dc:format><dc:type
           rdf:resource="http://purl.org/dc/dcmitype/StillImage" /><dc:title></dc:title></cc:Work></rdf:RDF></metadata><defs
     id="defs24"><linearGradient
       id="linearGradient3166-6"><stop
         id="stop3168-5"
         style="stop-color:#ffffff;stop-opacity:1"
         offset="0" /><stop
         id="stop3170-6"
         style="stop-color:#ff0000;stop-opacity:1"
         offset="1" /></linearGradient><linearGradient
       x1="0"
       y1="22"
       x2="74"
       y2="22"
       id="linearGradient3172-9"
       xlink:href="#linearGradient3166-6"
       gradientUnits="userSpaceOnUse" /><linearGradient
       id="linearGradient3166"><stop
         id="stop3168"
         style="stop-color:#ffffff;stop-opacity:1"
         offset="0" /><stop
         id="stop3170"
         style="stop-color:#ffff00;stop-opacity:1"
         offset="1" /></linearGradient><linearGradient
       x1="0.94254935"
       y1="-31.669659"
       x2="104.37702"
       y2="20.434471"
       id="linearGradient3172"
       xlink:href="#linearGradient3166"
       gradientUnits="userSpaceOnUse"
       gradientTransform="matrix(0.7083638,0,0,1.0012565,0.1338084,32.632067)" /></defs><g
     transform="matrix(0.57355974,0,0,0.57355974,-22.157302,7.7493564)"
     id="g3997"
     style="fill:none;stroke:#ffffff"><g
       transform="translate(82.045586,-14.220946)"
       id="g3223"
       style="fill:none;stroke:#ffffff"><circle
         cx="12"
         cy="17"
         r="9"
         id="circle3218"
         style="fill:none;stroke:#ffffff;stroke-width:3;stroke-miterlimit:4;stroke-dasharray:none" /><path
         d="M 35.185185,29.174601 16.664804,18.174228 35.451598,7.6352942 z"
         transform="matrix(0.8539616,-0.5203361,0.5203361,0.8539616,-7.6318759,40.439437)"
         id="path2210"
         style="fill:none;stroke:#ffffff;stroke-width:3;stroke-linejoin:miter;stroke-miterlimit:4;stroke-opacity:1;stroke-dasharray:none" /><path
         d="M 28.835979,40.608468 10.978836,46.296298 5.2910049,28.439155 23.148148,22.751324 z"
         transform="matrix(0.8992892,-0.4373546,-0.4373546,-0.8992892,36.526622,53.589052)"
         id="path2212"
         style="fill:none;stroke:#ffffff;stroke-width:3;stroke-linejoin:miter;stroke-miterlimit:4;stroke-opacity:1;stroke-dasharray:none" /><rect
         width="45.899471"
         height="4.7037034"
         ry="1.0486668"
         x="-1.8733307"
         y="29.09301"
         transform="matrix(0.9895466,-0.1442134,0.1442134,0.9895466,0,0)"
         id="rect2214"
         style="fill:#ffffff;fill-opacity:1;fill-rule:nonzero;stroke:#ffffff;stroke-width:3;stroke-linejoin:miter;stroke-miterlimit:4;stroke-opacity:1;stroke-dasharray:none" /></g></g><g
     transform="matrix(0.55205508,0,0,0.55205508,44.920152,17.449703)"
     id="g4382"><g
       transform="translate(-80.093659,12.220029)"
       id="g4308"
       style="fill:none;stroke:#ffffff;stroke-opacity:1"><g
         id="g4310"
         style="fill:none;stroke:#ffffff;stroke-opacity:1"><path
           d="m 6.736,49.002 h 24.52 c 2.225,0 3.439,-1.447 3.439,-3.441 v -27.28 c 0,-1.73 -1.732,-3.441 -3.439,-3.441 h -4.389"
           id="path4312"
           style="fill:none;stroke:#ffffff;stroke-width:3.5;stroke-linecap:round;stroke-linejoin:round;stroke-opacity:1" /></g></g><g
       transform="translate(-80.093659,12.220029)"
       id="g4314"
       style="fill:none;stroke:#ffffff;stroke-opacity:1"><g
         id="g4316"
         style="fill:none;stroke:#ffffff;stroke-opacity:1"><path
           d="m 26.867,38.592 c 0,1.836 -1.345,3.201 -3.441,4.047 L 6.736,49.002 V 14.84 l 16.69,-8.599 c 2.228,-0.394 3.441,0.84 3.441,2.834 v 29.517 z"
           id="path4318"
           style="fill:none;stroke:#ffffff;stroke-width:3.5;stroke-linecap:round;stroke-linejoin:round;stroke-opacity:1" /></g></g><path
       d="m -70.669659,54.827029 c 0,0 -1.351,-0.543 -2.702,-0.543 -1.351,0 -2.703,0.543 -2.703,0.543"
       id="path4320"
       style="fill:none;stroke:#ffffff;stroke-width:2.25;stroke-linecap:round;stroke-linejoin:round;stroke-opacity:1" /><path
       d="m -70.669659,44.226029 c 0,0 -1.239,-0.543 -2.815,-0.543 -1.577,0 -2.59,0.543 -2.59,0.543"
       id="path4322"
       style="fill:none;stroke:#ffffff;stroke-width:2.25;stroke-linecap:round;stroke-linejoin:round;stroke-opacity:1" /><path
       d="m -70.669659,33.898029 c 0,0 -1.125,-0.544 -2.927,-0.544 -1.802,0 -2.478,0.544 -2.478,0.544"
       id="path4324"
       style="fill:none;stroke:#ffffff;stroke-width:2.25;stroke-linecap:round;stroke-linejoin:round;stroke-opacity:1" /><line
       style="fill:none;stroke:#ffffff;stroke-width:2.25;stroke-linecap:round;stroke-linejoin:round;stroke-opacity:1"
       x1="-66.884659"
       x2="-66.884659"
       y1="58.753029"
       y2="23.725029"
       id="line4326" /></g><g
     transform="matrix(0,-1,-1,0,44.239288,88.600301)"
     id="g4770"><g
       transform="translate(34.0803,-1006.42)"
       id="g4772"><polyline
         transform="matrix(-0.469241,0.469241,-0.469241,-0.469241,66.2906,1019.03)"
         style="fill:none;stroke:#ffffff;stroke-width:3.5;stroke-linecap:round;stroke-linejoin:round"
         points="51.562,15.306 41.17,16.188 42.053,5.794"
         id="polyline4774" /><path
         d="m 39.363241,1033.1291 -0.05636,9.9115 -8.750608,0.067"
         id="path4776"
         style="fill:none;stroke:#ffffff;stroke-width:2.5;stroke-linecap:round;stroke-linejoin:round;stroke-miterlimit:4;stroke-opacity:1;stroke-dasharray:none" /></g></g></svg>