<?xml version="1.0" encoding="UTF-8" standalone="no"?>
<svg
   xmlns:dc="http://purl.org/dc/elements/1.1/"
   xmlns:cc="http://creativecommons.org/ns#"
   xmlns:rdf="http://www.w3.org/1999/02/22-rdf-syntax-ns#"
   xmlns:svg="http://www.w3.org/2000/svg"
   xmlns="http://www.w3.org/2000/svg"
   xmlns:sodipodi="http://sodipodi.sourceforge.net/DTD/sodipodi-0.dtd"
   xmlns:inkscape="http://www.inkscape.org/namespaces/inkscape"
   version="1.1"
   id="Layer_1"
   x="0px"
   y="0px"
   width="100px"
   height="84px"
   viewBox="0 0 100 84"
   enable-background="new 0 0 100 84"
   xml:space="preserve"
   inkscape:version="0.48.3.1 r9886"
   sodipodi:docname="motor-turtle.svg"><metadata
   id="metadata3876"><rdf:RDF><cc:Work
       rdf:about=""><dc:format>image/svg+xml</dc:format><dc:type
         rdf:resource="http://purl.org/dc/dcmitype/StillImage" /><dc:title>Slice 1</dc:title></cc:Work></rdf:RDF></metadata><defs
   id="defs3874" /><sodipodi:namedview
   pagecolor="#ffffff"
   bordercolor="#666666"
   borderopacity="1"
   objecttolerance="10"
   gridtolerance="10"
   guidetolerance="10"
   inkscape:pageopacity="0"
   inkscape:pageshadow="2"
   inkscape:window-width="1360"
   inkscape:window-height="711"
   id="namedview3872"
   showgrid="false"
   inkscape:zoom="2.8095238"
   inkscape:cx="50"
   inkscape:cy="42"
   inkscape:window-x="0"
   inkscape:window-y="27"
   inkscape:window-maximized="1"
   inkscape:current-layer="Layer_1" />
<title
   id="title3864">Slice 1</title>
<description
   id="description3866">Created with Sketch (http://www.bohemiancoding.com/sketch)</description>
<g
   id="Page_1"
   style="fill:#ffffff;fill-opacity:1">
	<g
   id="Path_1"
   style="fill:#ffffff;fill-opacity:1">
	</g>
	<path
   id="Path_1_1_"
   d="M88,33c0,0,11,6,11,11c-2,8-11,3-13,8c-2,14-13,17-13,17s0,2,1,3s9,9,3,9c-7,0-9-10-15-8c-3,1-5,2-8,3   c1,0,2,0,2,0c7,3,5,5,5,5H20c-1-1-1-3,0-4c-3-2-7-6-8-10l0,0C5,67,0,62,0,56c0-5,5-10,12-10c1,0,1,0,2,1c0-1,1-1,1-1   c17-28,47-8,47-8s8,3,11-3C55,17,52,2,55,2c5,0,18,18,18,18S56-8,70,2C84,13,88,33,88,33z"
   style="fill:#ffffff;fill-opacity:1" />
	<path
   id="Path_1_decoration"
   d="M0,0"
   style="fill:#ffffff;fill-opacity:1" />
</g>
</svg>