<?xml version="1.0" encoding="UTF-8" standalone="no"?>
<!-- Created with Inkscape (http://www.inkscape.org/) -->

<svg
   xmlns:dc="http://purl.org/dc/elements/1.1/"
   xmlns:cc="http://creativecommons.org/ns#"
   xmlns:rdf="http://www.w3.org/1999/02/22-rdf-syntax-ns#"
   xmlns:svg="http://www.w3.org/2000/svg"
   xmlns="http://www.w3.org/2000/svg"
   version="1.1"
   width="55"
   height="55"
   viewBox="0 0 55 55"
   id="Layer_1"
   xml:space="preserve"><title
     id="title3">Slice 1</title><metadata
     id="metadata15"><rdf:RDF><cc:Work
         rdf:about=""><dc:format>image/svg+xml</dc:format><dc:type
           rdf:resource="http://purl.org/dc/dcmitype/StillImage" /><dc:title>Slice 1</dc:title></cc:Work></rdf:RDF></metadata><defs
     id="defs13" /><description
     id="description5">Created with Sketch (http://www.bohemiancoding.com/sketch)</description><g
     id="g4737"><g
       transform="matrix(0.86912825,0,0,0.86912825,-5.176439,-1.041288)"
       id="g3"
       style="fill:#ffffff;fill-opacity:1"><g
         id="g5"
         style="fill:#ffffff;fill-opacity:1"><g
           id="g7"
           style="fill:#ffffff;fill-opacity:1"><path
             d="m 65.119,40.201 c -0.226,-1.667 -0.738,-4.278 -2.628,-5.18 -1.198,-0.571 -6.32,0.277 -10.784,0.334 0.156,2.686 0.139,5.113 -3.274,10.137 -4.22,6.21 -13.874,5.828 -14.294,5.805 L 9.008,51.365 c 1.262,1.779 3.906,2.602 6.908,2.98 -0.805,0.71 -3.344,3.537 -3.533,7.212 -0.005,0.082 0.002,0.442 0,0.442 h 8.025 c 0.275,-2 1.053,-5.692 3.126,-7.032 1.546,-0.009 2.956,-0.18 4.056,-0.125 2.539,0.126 7.678,-0.051 11.134,-0.298 0.026,0.014 0.042,0.295 0.069,0.311 C 41.052,56.05 41.873,60 42.16,62 h 8.025 c -0.001,0 0.006,-0.36 10e-4,-0.442 -0.187,-3.629 -3.394,-7.091 -4.476,-8.11 3.062,-1.361 7.689,-5.893 8.898,-7.209 0.318,-0.344 1.502,-1.812 2.403,-2.486 0.845,-0.631 3.603,-0.965 4.638,-1.01 1.037,-0.045 3.243,0.44 3.243,0.44 0,0 0.331,-2.224 0.227,-2.982 z"
             id="path9"
             style="fill:#ffffff;fill-opacity:1" /><circle
             cx="59.484001"
             cy="37.223999"
             r="1.109"
             id="circle11"
             style="fill:#ffffff;fill-opacity:1" /><g
             id="g13"
             style="fill:#ffffff;fill-opacity:1"><path
               d="M 15.643,50.043 22.741,34.9 17.34,28.712 c -1.643,1.915 -2.276,3.921 -2.662,5.409 -0.521,2.004 0,8.875 0.676,11.305 l -3.01,4.626 3.299,-0.009 z"
               id="path15"
               style="fill:#ffffff;fill-opacity:1" /><path
               d="m 23.816,34.137 14.598,-0.361 3.6,-4.431 C 41.01,27.897 39.69,26.494 38.002,25.65 32.974,23.135 28.457,22.184 21.881,25.337 c -1.514,0.727 -2.689,1.558 -3.626,2.43 l 5.561,6.37 z"
               id="path17"
               style="fill:#ffffff;fill-opacity:1" /><path
               d="m 38.174,35.094 -14.24,0.352 -6.842,14.594 17.076,-0.045 c 0.095,0.006 5.133,0.199 9.303,-1.933 L 38.174,35.094 z"
               id="path19"
               style="fill:#ffffff;fill-opacity:1" /><path
               d="m 44.568,34.621 c 0,0 -0.56,-1.951 -1.814,-4.109 l -3.35,4.125 5.212,12.762 c 1.048,-0.686 1.997,-1.548 2.738,-2.64 3.197,-4.704 3.2,-6.784 3.048,-9.384 -3.233,0.059 -5.834,-0.754 -5.834,-0.754 z"
               id="path21"
               style="fill:#ffffff;fill-opacity:1" /></g></g><g
           id="g23"
           style="fill:#ffffff;fill-opacity:1"><path
             d="m 65.119,40.201 c -0.226,-1.667 -0.738,-4.278 -2.628,-5.18 -1.198,-0.571 -6.32,0.277 -10.784,0.334 0.156,2.686 0.139,5.113 -3.274,10.137 -4.22,6.21 -13.874,5.828 -14.294,5.805 L 9.008,51.365 c 1.262,1.779 3.906,2.602 6.908,2.98 -0.805,0.71 -3.344,3.537 -3.533,7.212 -0.005,0.082 0.002,0.442 0,0.442 h 8.025 c 0.275,-2 1.053,-5.692 3.126,-7.032 1.546,-0.009 2.956,-0.18 4.056,-0.125 2.539,0.126 7.678,-0.051 11.134,-0.298 0.026,0.014 0.042,0.295 0.069,0.311 C 41.052,56.05 41.873,60 42.16,62 h 8.025 c -0.001,0 0.006,-0.36 10e-4,-0.442 -0.187,-3.629 -3.394,-7.091 -4.476,-8.11 3.062,-1.361 7.689,-5.893 8.898,-7.209 0.318,-0.344 1.502,-1.812 2.403,-2.486 0.845,-0.631 3.603,-0.965 4.638,-1.01 1.037,-0.045 3.243,0.44 3.243,0.44 0,0 0.331,-2.224 0.227,-2.982 z"
             id="path25"
             style="fill:#ffffff;fill-opacity:1" /></g><circle
           cx="58.564999"
           cy="38.144001"
           r="1.478"
           id="circle27"
           style="fill:#ffffff;fill-opacity:1" /></g><g
         id="g29"
         style="fill:#ffffff;fill-opacity:1"><path
           d="M 15.643,50.043 22.741,34.9 17.34,28.712 c -1.643,1.915 -2.276,3.921 -2.662,5.409 -0.521,2.004 0,8.875 0.676,11.305 l -3.01,4.626 3.299,-0.009 z"
           id="path31"
           style="fill:#ffffff;fill-opacity:1" /><path
           d="m 23.816,34.137 14.598,-0.361 3.6,-4.431 C 41.01,27.897 39.69,26.494 38.002,25.65 32.974,23.135 28.457,22.184 21.881,25.337 c -1.514,0.727 -2.689,1.558 -3.626,2.43 l 5.561,6.37 z"
           id="path33"
           style="fill:#ffffff;fill-opacity:1" /><path
           d="m 38.174,35.094 -14.24,0.352 -6.842,14.594 17.076,-0.045 c 0.095,0.006 5.133,0.199 9.303,-1.933 L 38.174,35.094 z"
           id="path35"
           style="fill:#ffffff;fill-opacity:1" /><path
           d="m 44.568,34.621 c 0,0 -0.56,-1.951 -1.814,-4.109 l -3.35,4.125 5.212,12.762 c 1.048,-0.686 1.997,-1.548 2.738,-2.64 3.197,-4.704 3.2,-6.784 3.048,-9.384 -3.233,0.059 -5.834,-0.754 -5.834,-0.754 z"
           id="path37"
           style="fill:#ffffff;fill-opacity:1" /></g></g><path
       d="m -4.1509433,12.400944 a 3.9433961,3.3726416 0 1 1 -7.8867917,0 3.9433961,3.3726416 0 1 1 7.8867917,0 z"
       transform="matrix(1.9901663,0,0,2.3269635,36.316629,3.030249)"
       id="path4735"
       style="fill:#ffffff;fill-opacity:1;fill-rule:nonzero;stroke:#ffffff;stroke-width:2;stroke-linecap:round;stroke-linejoin:round;stroke-miterlimit:4;stroke-opacity:1;stroke-dasharray:none;stroke-dashoffset:0" /><g
       transform="matrix(1.1767635,0,0,1.1767635,6.575233,18.453076)"
       id="g3935"
       style="fill:none;stroke:#000000;stroke-width:2;stroke-miterlimit:4;stroke-opacity:1;stroke-dasharray:none"><path
         d="m 9.769744,17.559712 c -3.044496,-0.6084 -5.33832,-3.295344 -5.33832,-6.51768 0,-3.67224 2.97648,-6.649344 6.646848,-6.649344 3.672864,0 6.649344,2.977104 6.649344,6.649344 0,3.166176 -2.215824,5.816928 -5.18232,6.48648"
         id="path3220"
         style="fill:none;stroke:#000000;stroke-width:2;stroke-miterlimit:4;stroke-opacity:1;stroke-dasharray:none" /><polyline
         points="    22.936,31.578 25.5,37.994 18.746,39.439   "
         id="polyline3222"
         style="fill:none;stroke:#000000;stroke-width:3.20512819;stroke-miterlimit:4;stroke-opacity:1;stroke-dasharray:none"
         transform="matrix(0.624,0,0,0.624,-6.142256,-6.148544)" /></g></g></svg>