<?xml version="1.0" encoding="UTF-8" standalone="no"?>
<!-- Created with Inkscape (http://www.inkscape.org/) -->

<svg
   xmlns:dc="http://purl.org/dc/elements/1.1/"
   xmlns:cc="http://creativecommons.org/ns#"
   xmlns:rdf="http://www.w3.org/1999/02/22-rdf-syntax-ns#"
   xmlns:svg="http://www.w3.org/2000/svg"
   xmlns="http://www.w3.org/2000/svg"
   version="1.1"
   width="55"
   height="55"
   viewBox="0 0 55 55"
   id="Layer_1"
   xml:space="preserve"><metadata
     id="metadata3510"><rdf:RDF><cc:Work
         rdf:about=""><dc:format>image/svg+xml</dc:format><dc:type
           rdf:resource="http://purl.org/dc/dcmitype/StillImage" /><dc:title></dc:title></cc:Work></rdf:RDF></metadata><defs
     id="defs3508" /><rect
     width="5.941"
     height="21.757999"
     x="-455.255"
     y="371.258"
     id="rect3454" /><g
     transform="matrix(0.47392866,0,0,0.47392866,4.0165979,7.5521477)"
     id="g4228"><path
       d="m 87.205,11.326 c 0,4.564 -3.7,8.271 -8.264,8.271 -4.573,0 -8.279,-3.707 -8.279,-8.271 0,-4.565 3.706,-8.271 8.279,-8.271 4.564,0 8.264,3.705 8.264,8.271 z"
       id="path3490"
       style="fill:#ffffff" /><path
       d="M 73.154,41.471 66.908,20.12 39.808,6.44 14.58,12.617 v 6.98 L 37.603,14.076 49.27,21.062 27.113,34.477 c 0,0 -3.79,5.528 0.29,11.07 l 8.159,17.197 H 8.17 l 0.886,10.777 h 41.952 l -8.742,-23.02 -2.321,-8.166 17.47,-10.19 4.286,-2.094 5.813,20.408 28.079,-6.079 v -6.408 l -22.439,3.499 z"
       id="path3492"
       style="fill:#ffffff" /><polygon
       points="35.562,77.611 9.919,98.006 3.508,88.975 19.537,77.611 "
       id="polygon3494"
       style="fill:#ffffff" /></g></svg>