<?xml version="1.0" encoding="UTF-8" standalone="no"?>
<!-- Created with Inkscape (http://www.inkscape.org/) -->

<svg
   xmlns:dc="http://purl.org/dc/elements/1.1/"
   xmlns:cc="http://creativecommons.org/ns#"
   xmlns:rdf="http://www.w3.org/1999/02/22-rdf-syntax-ns#"
   xmlns:svg="http://www.w3.org/2000/svg"
   xmlns="http://www.w3.org/2000/svg"
   version="1.1"
   width="55"
   height="55"
   viewBox="0 0 55 55"
   id="svg2"
   xml:space="preserve"><metadata
     id="metadata43"><rdf:RDF><cc:Work
         rdf:about=""><dc:format>image/svg+xml</dc:format><dc:type
           rdf:resource="http://purl.org/dc/dcmitype/StillImage" /><dc:title></dc:title></cc:Work></rdf:RDF></metadata><defs
     id="defs41" /><rect
     width="53.012661"
     height="53.012657"
     ry="5.6125684"
     x="0.99366951"
     y="0.99367142"
     id="rect2987-0"
     style="fill:#a0a0a0;fill-opacity:1;fill-rule:nonzero;stroke:#a0a0a0;stroke-width:1.98734164;stroke-linecap:round;stroke-linejoin:round;stroke-miterlimit:4;stroke-opacity:1;stroke-dasharray:none;stroke-dashoffset:0" /><rect
     width="53.012661"
     height="53.012657"
     ry="5.6125684"
     x="0.99367082"
     y="572.24365"
     id="rect2987"
     style="fill:#a0a0a0;fill-opacity:1;fill-rule:nonzero;stroke:#a0a0a0;stroke-width:1.98734164;stroke-linecap:round;stroke-linejoin:round;stroke-miterlimit:4;stroke-opacity:1;stroke-dasharray:none;stroke-dashoffset:0" /><g
     transform="translate(0,-45)"
     id="Captions" /><g
     transform="translate(0,-45)"
     id="Your_Icon"
     style="display:none"><path
       d="m 95,25.581 v 19.542 c 0,1.424 -0.717,2.581 -1.597,2.581 h -0.46 c -0.881,0 -1.596,-1.157 -1.596,-2.581 v -5.692 h -1.34 v 3.855 c 0,0.998 -0.81,1.808 -1.808,1.808 h -0.447 c -0.998,0 -1.809,-0.81 -1.809,-1.808 v -3.695 h -2.536 v 0.646 c 0.014,0.613 0.014,1.182 0,1.706 v 5.578 c 0,0.505 -0.858,0.96 -2.242,1.293 l 0.038,26.301 h 10.451 c 0.839,0 1.519,0.684 1.519,1.521 v 2.318 c 0,0.842 -0.68,1.523 -1.519,1.523 H 7.346 c -0.842,0 -1.525,-0.682 -1.525,-1.523 v -2.318 c 0,-0.838 0.684,-1.521 1.525,-1.521 H 53.6 c 0,0 0,0 5.957,-18.053 3.914,-12.902 0.081,-17.358 -24.01,-16.814 -13.76,0 -17.377,9.972 -17.377,12.832 v 4.004 c 0,0.986 -0.8,1.785 -1.785,1.785 H 14.64 v 5.08 h -0.288 v 1.959 h -0.577 v -1.959 h -0.288 -2.57 v -1.158 h 2.57 v -3.922 h -0.06 -1.76 c -0.988,0 -1.788,-0.799 -1.788,-1.785 V 26.833 c 0,-0.989 0.8,-1.787 1.788,-1.787 h 4.717 c 0.985,0 26.805,9.478 45.529,-0.481 0,-0.013 -0.099,-0.936 0.692,-0.936 h 6.947 4.795 1.13 c 0.005,0 0.007,0.004 0.012,0.004 0.06,-10e-4 0.114,-0.004 0.173,-0.004 5.574,0 7.746,0 7.746,1.842 v 5.8 h 1.543 0.993 v -3.804 c 0,-0.998 0.812,-1.807 1.809,-1.807 H 88.2 c 0.998,0 1.808,0.81 1.808,1.807 v 3.804 h 1.34 v -5.69 C 91.348,24.155 92.063,23 92.944,23 h 0.46 C 94.283,23 95,24.155 95,25.581 z"
       id="path6"
       style="fill:#000000;display:inline" /></g><g
     transform="translate(0,-45)"
     id="Layer_9"
     style="display:none"><path
       d="m 88.041,75.968 v -1.26 C 87.83,64.559 83.812,61.177 83.812,61.177 H 59.42 c 0,0 -0.951,-0.847 -1.162,-3.383 V 43.206 c 0,0 0.211,-14.164 -12.473,-11.415 0,0 -8.139,1.479 -11.959,1.151 -0.169,-1.159 -0.804,-2.164 -1.714,-2.819 l 0.018,-1.058 c 0,-0.6 -0.601,-0.584 -0.601,-0.584 l 0.01,-1.393 c 0.863,0 1.56,-0.701 1.56,-1.563 0,-0.863 -0.697,-1.562 -1.56,-1.562 h -0.583 -0.591 c -0.144,0 -0.257,-0.021 -0.349,-0.056 0.211,-0.099 0.404,-0.225 0.578,-0.375 3.489,-0.386 16.739,-2.412 16.739,-2.412 1.383,-0.19 2.351,-1.464 2.163,-2.848 -0.188,-1.383 -1.464,-2.353 -2.848,-2.165 -0.079,0.012 -0.155,0.026 -0.23,0.044 v -0.002 l -15.646,3.85 c -0.451,-0.48 -1.086,-0.779 -1.793,-0.779 -1.36,0 -2.459,1.101 -2.459,2.459 0,0.104 0.008,0.205 0.021,0.304 v 6.497 h -1.425 c -0.678,0 -0.529,0.609 -0.529,0.609 v 0.994 c -1.098,0.765 -1.816,2.032 -1.816,3.47 v 16.63 c 0,2.113 1.552,3.86 3.579,4.172 v 1.93 h -1.024 v -0.421 c 0,-0.238 -0.234,-0.428 -0.524,-0.428 -0.288,0 -0.521,0.189 -0.521,0.428 v 2.021 c 0,0.238 0.233,0.429 0.521,0.429 0.29,0 0.524,-0.19 0.524,-0.429 v -0.422 h 1.024 v 1.509 l 0.702,0.812 h 0.303 v 1.395 H 16.187 c 0,0 -4.017,3.382 -4.228,13.531 v 1.26 l -2.325,2.257 v 5.692 H 90.368 V 78.226 L 88.041,75.968 z M 27.888,21.676 c 0,-0.572 0.465,-1.033 1.033,-1.033 0.575,0 1.037,0.461 1.037,1.033 0,0.572 -0.462,1.035 -1.037,1.035 -0.568,-10e-4 -1.033,-0.463 -1.033,-1.035 z m 17.116,36.205 c 0,0 -0.276,3.296 -1.968,3.296 H 28.954 v -1.395 h 0.303 l 0.702,-0.832 v -1.488 h 1.025 v 0.422 c 0,0.238 0.233,0.429 0.521,0.429 0.288,0 0.524,-0.19 0.524,-0.429 v -2.021 c 0,-0.238 -0.236,-0.428 -0.524,-0.428 -0.288,0 -0.521,0.189 -0.521,0.428 v 0.421 h -1.025 v -1.89 c 2.19,-0.161 3.916,-1.983 3.916,-4.212 v -6.764 h 9.373 c 0,0 2.148,-0.029 2.148,2.889 l -0.392,11.574 z"
       id="path9"
       style="fill:#000000;display:inline" /></g><g
     transform="matrix(0.62961599,0,0,0.62961599,-3.9799927,11.153203)"
     id="Layer_11"
     style="fill:#ffffff;fill-opacity:1"><path
       d="m 92.882,58.144 v 2.353 c 0,0.161 -0.088,0.308 -0.23,0.382 -0.075,0.04 -7.535,3.954 -17.096,5.022 -3.344,0.374 -6.72,0.563 -10.033,0.563 -1.617,0 -3.219,-0.046 -4.76,-0.136 -4.136,-0.246 -7.914,-0.825 -10.926,-1.674 -5.812,-1.637 -9.728,-2.298 -10.79,-2.461 -0.008,0 -3.821,-0.69 -8.621,-0.719 l -1.355,3.982 C 29.012,65.632 28.847,65.75 28.66,65.75 L 8.31,65.746 c -0.239,0 -0.435,-0.195 -0.435,-0.435 v -8.204 c 0,-0.193 0.127,-0.362 0.312,-0.418 0.183,-0.052 0.383,0.022 0.487,0.183 L 8.658,56.861 c 0.038,0.057 1.027,1.614 3.952,1.781 2.704,0.161 12.021,-0.133 12.021,-0.133 2.216,0 9.509,-0.046 14.744,0.87 1.13,0.17 5.212,0.845 11.271,2.555 3.942,1.111 9.073,1.699 14.837,1.699 3.206,0 6.484,-0.186 9.744,-0.548 8.416,-0.939 15.94,-4.818 16.795,-5.247 l 0.213,-0.073 c 0.132,-0.068 0.302,-0.065 0.431,0.014 0.13,0.077 0.216,0.213 0.216,0.365 z M 13.881,57.776 c 0,0 4.432,0.111 11.47,-0.124 0,0 2.877,-0.059 6.927,0.191 2.229,0.113 4.59,0.31 6.674,0.648 3.071,0.413 6.269,1.027 9.177,1.939 0.798,0.208 1.631,0.43 2.517,0.681 3.926,1.106 9.032,1.695 14.767,1.699 3.132,-0.082 6.318,-0.328 9.394,-0.673 9.253,-1.031 15.825,-4.533 15.825,-4.533 1.005,-0.461 0.861,-1.611 0.861,-1.611 -0.142,-2.652 -1.944,-3.983 -1.944,-3.983 -0.772,-0.957 -4.812,-1.182 -6.64,-0.957 -5.335,0.68 -11.907,-1.093 -11.907,-1.093 -3.02,-0.611 -8.3,-3.916 -11.891,-6.349 l -2.804,2.804 C 56.222,46.5 56.112,46.542 56,46.542 c -0.109,0 -0.223,-0.042 -0.307,-0.127 -0.17,-0.169 -0.17,-0.444 0,-0.614 l 2.688,-2.689 c -1.814,-1.247 -3.056,-2.168 -3.056,-2.168 -0.002,-0.002 -0.006,-0.003 -0.008,-0.005 l -3.234,3.235 c -0.085,0.085 -0.195,0.128 -0.308,0.128 -0.113,0 -0.223,-0.042 -0.308,-0.128 -0.17,-0.17 -0.17,-0.444 0,-0.614 l 3.137,-3.135 C 53.546,39.66 52.518,38.98 51.526,38.374 l -3.5,3.501 c -0.085,0.084 -0.195,0.127 -0.308,0.127 -0.113,0 -0.223,-0.042 -0.308,-0.127 -0.169,-0.17 -0.169,-0.445 0,-0.615 l 3.35,-3.348 c -6.372,-3.713 -11.008,-4.286 -11.008,-4.286 -0.905,-0.331 -1.089,0.36 -1.089,0.36 l 0.011,1.121 c -2.021,0.755 -7.055,1.494 -12.138,1.968 -6.566,0.611 -13.234,-1.176 -15.626,-1.56 -0.736,-0.117 -0.998,0.536 -0.998,0.536 l -0.621,1.464 c 0,0 -3.081,8.128 -1.91,13.742 0,0 0.044,0.79 0.305,2.007 0.26,1.222 1.058,4.751 6.195,4.512 z"
       id="path12"
       style="fill:#ffffff;fill-opacity:1" /></g><g
     transform="translate(0,-45)"
     id="Your_Icon_copy"
     style="display:none"><path
       d="M 96.11,56.706 C 95.745,53.879 93.707,52.594 93.707,52.594 92.801,51.631 88.454,51.719 86.516,52.104 80.852,53.263 73.669,51.89 73.669,51.89 68.356,51.224 56.598,41.662 56.598,41.662 47.403,34.93 43.325,33.601 43.325,33.601 c -0.997,-0.282 -1.139,0.475 -1.139,0.475 l -2.161,18.43 0.277,0.125 c 0.911,0.248 1.697,0.831 2.235,1.618 0.017,0.025 0.035,0.049 0.051,0.074 0.02,0.029 0.037,0.06 0.057,0.088 0.367,0.584 0.599,1.271 0.645,2.007 0.009,0.109 0.014,0.22 0.014,0.331 0.006,2.054 -1.354,3.771 -3.162,4.174 l -0.479,2.297 c 0.015,0.122 0.03,0.24 0.052,0.354 0.67,0.049 5.069,0.398 11.955,1.797 7.49,1.513 17.729,1.019 27.049,-0.733 9.835,-1.852 16.601,-6.134 16.601,-6.134 1.038,-0.574 0.79,-1.798 0.79,-1.798 z M 43.975,44.068 c -0.483,0 -0.872,-0.39 -0.872,-0.872 0,-0.48 0.389,-0.87 0.872,-0.87 0.481,0 0.87,0.39 0.87,0.87 0,0.483 -0.388,0.872 -0.87,0.872 z m 1.713,14.136 c -0.483,0 -0.872,-0.39 -0.872,-0.87 0,-0.481 0.389,-0.871 0.872,-0.871 0.481,0 0.871,0.39 0.871,0.871 -10e-4,0.48 -0.391,0.87 -0.871,0.87 z m 20.854,5.384 c -0.48,0 -0.87,-0.39 -0.87,-0.869 0,-0.484 0.39,-0.872 0.87,-0.872 0.482,0 0.871,0.388 0.871,0.872 0,0.479 -0.389,0.869 -0.871,0.869 z M 36.671,53.498 c -0.212,0.007 -0.421,0.033 -0.621,0.077 L 35.918,53.101 28.47,42.71 26.392,40.219 24.022,40.856 C 18.263,42.862 9.835,43.056 7.237,42.972 6.43,42.946 6.24,43.678 6.24,43.678 L 5.78,45.32 c 0,0 -2.192,9.089 -0.184,14.911 0,0 0.156,0.835 0.597,2.099 0.439,1.266 1.764,4.926 7.209,3.976 0,0 4.741,-0.48 12.21,-1.684 0,0 6.459,-0.887 11.218,-0.98 l 0.604,-3.451 0.241,0.044 v -0.003 c 1.502,-0.405 2.582,-1.797 2.531,-3.419 -0.06,-1.892 -1.642,-3.374 -3.535,-3.315 z m -11.607,-9.03 c -0.48,0.015 -0.883,-0.364 -0.897,-0.845 -0.015,-0.48 0.362,-0.883 0.845,-0.897 0.48,-0.016 0.882,0.362 0.897,0.843 0.015,0.481 -0.363,0.882 -0.845,0.899 z m 8.224,13.881 c -0.481,0.016 -0.884,-0.361 -0.899,-0.845 -0.017,-0.479 0.362,-0.883 0.842,-0.896 0.482,-0.016 0.884,0.36 0.9,0.843 0.015,0.48 -0.363,0.881 -0.843,0.898 z"
       id="path15"
       style="display:inline" /></g><g
     transform="translate(0,-45)"
     id="Your_Icon_copy_2"
     style="display:none"><path
       d="m 95.318,58.505 c 0,0 -6.766,4.282 -16.601,6.134 -9.32,1.752 -19.559,2.246 -27.049,0.733 -6.886,-1.398 -11.285,-1.748 -11.955,-1.797 -0.021,-0.114 -0.037,-0.232 -0.052,-0.354 l 0.479,-2.297 c 1.809,-0.402 3.168,-2.12 3.162,-4.174 0,-0.111 -0.005,-0.222 -0.014,-0.331 -0.045,-0.736 -0.277,-1.423 -0.645,-2.007 -0.02,-0.028 -0.037,-0.059 -0.057,-0.088 C 42.57,54.299 42.552,54.275 42.535,54.25 41.997,53.463 41.211,52.88 40.3,52.632 l -0.277,-0.125 2.161,-18.43 c 0,0 0.142,-0.757 1.139,-0.475 0,0 4.078,1.329 13.273,8.061 0,0 11.758,9.562 17.071,10.228 0,0 7.183,1.373 12.847,0.214 1.938,-0.385 6.285,-0.473 7.191,0.49 0,0 2.038,1.285 2.403,4.112 0.002,-10e-4 0.25,1.223 -0.79,1.798 z M 36.671,53.498 c -0.212,0.007 -0.421,0.033 -0.621,0.077 L 35.918,53.101 28.47,42.71 26.392,40.219 24.022,40.856 C 18.263,42.862 9.835,43.056 7.237,42.972 6.43,42.946 6.24,43.678 6.24,43.678 L 5.78,45.32 c 0,0 -2.192,9.089 -0.184,14.911 0,0 0.156,0.835 0.597,2.099 0.439,1.266 1.764,4.926 7.209,3.976 0,0 4.741,-0.48 12.21,-1.684 0,0 6.459,-0.887 11.218,-0.98 L 37.597,60.191 38,60.234 v -0.003 c 1,-0.405 2.419,-1.797 2.369,-3.419 -0.06,-1.891 -1.805,-3.373 -3.698,-3.314 z"
       id="path18"
       style="display:inline" /></g><g
     transform="translate(0,-45)"
     id="Layer_5"
     style="display:none"><path
       d="m 85.617,55.809 c -0.906,-7.248 -8.412,-6.544 -8.412,-6.544 0,0 -3.605,-0.019 -7.364,2.488 -3.757,2.505 -9.827,7.803 -16.448,3.072 0,0 -1.245,-0.79 -0.896,-2.785 0.287,-1.652 5.07,-5.802 14.175,-3.729 0,0 9.289,2.911 13.597,-0.837 L 90.56,36.375 c 0,0 1.646,-1.463 2.707,-1.523 0.181,-0.009 0.345,0.021 0.482,0.105 -0.078,-0.048 -0.137,-0.084 -0.137,-0.084 0,0 0.812,0.471 1.024,-0.337 0.211,-0.811 -1.58,-2.622 -4.817,0.289 l -8.908,8.959 c 0,0 -3.022,4.066 -8.168,2.985 -4.898,-1.027 -14.304,-5.173 -21.54,2.59 l 0.05,-0.176 -31.527,-6.392 c 0,0 -10.122,-1.771 -14.48,1.372 l 38.083,8.476 -37.338,6.118 c 4.054,3.523 14.294,2.678 14.294,2.678 l 30.461,-4.852 c 0.418,0.424 0.757,0.67 0.757,0.67 1.311,1.714 6.669,3.237 6.669,3.237 7.169,9.754 18.896,5.234 18.896,5.234 0,0 9.453,-2.669 8.549,-9.915 z M 46.999,54.21 c -0.612,-0.526 -0.681,-1.448 -0.155,-2.059 0.526,-0.61 1.448,-0.68 2.059,-0.154 0.61,0.526 0.68,1.449 0.155,2.061 -0.526,0.61 -1.449,0.678 -2.059,0.152 z m 31.799,8.569 C 68.584,67.098 62.953,62.331 62.953,62.331 59.641,60.082 60.11,59.102 62.06,58.756 c 1.946,-0.345 5.057,-1.645 7.593,-3.659 2.536,-2.013 3.933,-2.521 3.933,-2.521 7.125,-3.228 9.156,2.074 9.156,2.074 1.97,4.849 -3.944,8.129 -3.944,8.129 z"
       id="path21"
       style="display:inline" /></g><g
     transform="translate(0,-45)"
     id="Layer_6"
     style="display:none"><path
       d="m 76.043,42.034 v 13.901 c 0,0 -2.647,-1.528 -6.221,-1.652 V 51.929 H 68.534 V 54.3 c -1.264,0.084 -2.607,0.374 -3.973,0.963 v -3.981 h -1.289 v 4.559 c -1.741,0.802 -3.105,0.988 -4.021,0.946 0.079,-0.262 0.146,-0.528 0.146,-0.819 V 44.034 c 0,-0.643 -0.227,-1.211 -0.599,-1.725 1.384,0.122 3.122,0.033 5.015,-0.708 4.738,-1.859 11.287,-0.869 12.23,0.433 z m -18.075,1.337 c 0.091,0.21 0.141,0.432 0.141,0.663 v 11.933 c 0,0.21 -0.052,0.408 -0.127,0.602 -0.465,1.192 -2.311,2.063 -4.759,2.689 v -3.18 h -1.287 v 3.476 c -1.473,0.306 -3.094,0.537 -4.733,0.71 V 54.95 h -1.289 v 5.438 c -2.004,0.173 -3.976,0.261 -5.673,0.285 v -3.465 h -1.289 v 3.474 C 37.311,60.677 35.335,60.611 33.28,60.459 v -5.51 h -1.288 v 5.402 c -1.889,-0.174 -3.778,-0.428 -5.484,-0.773 v -3.5 H 25.22 v 3.208 c -2.909,-0.729 -5.006,-1.79 -5.006,-3.319 V 44.034 c 0,-3.731 12.395,-4.716 18.947,-4.716 4.93,0 13.164,0.559 16.94,2.424 10e-4,0 10e-4,0 10e-4,0 0.025,0.012 0.045,0.027 0.067,0.039 0.282,0.143 0.544,0.29 0.771,0.448 0.017,0.011 0.028,0.026 0.046,0.038 0.223,0.159 0.424,0.327 0.585,0.504 0.038,0.041 0.052,0.088 0.087,0.131 0.122,0.153 0.238,0.305 0.31,0.469 z m -23.66,0.663 c 0,0.399 2.173,0.725 4.852,0.725 2.679,0 4.852,-0.325 4.852,-0.725 0,-0.4 -2.172,-0.725 -4.852,-0.725 -2.68,0 -4.852,0.326 -4.852,0.725 z m 21.841,2.201 -0.402,-0.759 c -2.671,1.416 -9.338,2.369 -16.587,2.369 -7.224,0 -13.689,-0.907 -16.474,-2.312 l -0.386,0.77 c 2.896,1.46 9.514,2.402 16.86,2.402 7.492,0 14.161,-0.97 16.989,-2.47 z m 21.104,-3.717 v 13.854 l 2.534,1.683 V 44.2 l -2.534,-1.682 z"
       id="path24"
       style="display:inline" /></g><g
     transform="translate(0,-45)"
     id="Layer_7"
     style="display:none"><path
       d="M 37.994,67.719 61.13,47.605 V 58.026 L 43.985,72.933 h -4.486 c -0.831,0 -1.505,-0.676 -1.505,-1.505 V 67.719 z M 61.13,28.801 c 0,-0.83 -0.681,-1.506 -1.511,-1.506 H 58.088 L 37.994,44.768 V 54.34 L 61.13,34.226 v -5.425 z m -1.511,44.132 c 0.83,0 1.511,-0.676 1.511,-1.505 v -2.267 l -4.339,3.771 h 2.828 z M 45.26,76.176 h 7.87 v -3.243 h 1.954 L 61.13,67.679 V 59.513 L 45.26,73.31 v 2.866 z M 39.499,27.295 c -0.831,0 -1.505,0.676 -1.505,1.506 v 3.062 l 5.254,-4.568 h -3.749 z m 13.631,0 v -3.471 h -7.87 v 3.471 h -0.307 l -6.959,6.051 v 9.937 L 56.381,27.296 H 53.13 z m 20.343,6.731 c -0.342,0.3 -0.693,0.581 -1.039,0.842 L 71.524,35.73 61.13,44.137 V 46.12 L 37.994,66.234 v -3.36 L 22.759,75.228 37.993,60.461 V 55.824 L 61.13,35.712 v 2.441 l 6.288,-6.035 2.355,-2.052 c 0.048,-0.043 0.085,-0.083 0.129,-0.123 0.052,-0.046 0.105,-0.079 0.159,-0.124 l 1.254,-1.092 0.719,-0.512 c 0,0 3.117,-2.603 4.721,-1.039 0.043,0.042 0.071,0.103 0.105,0.153 0.027,0.024 0.063,0.034 0.084,0.058 0.987,1.127 -0.567,4.098 -3.471,6.639 z m 1.881,-5.29 c -0.435,-0.493 -1.918,0.094 -3.312,1.316 -1.4,1.224 -2.177,2.612 -1.747,3.107 0.436,0.496 1.918,-0.095 3.314,-1.315 1.399,-1.22 2.176,-2.613 1.745,-3.108 z"
       id="path27"
       style="fill:#000000;display:inline" /></g><g
     transform="translate(0,-45)"
     id="Layer_8"
     style="display:none"><g
       id="g30"
       style="display:inline"><path
         d="m 93.928,44.49 c -3.945,-6.07 -12.553,-6.879 -12.553,-6.879 -9.439,-0.682 -13.14,5.765 -13.14,5.765 h -5.059 c 0,0 -2.784,0.269 -8.299,-2.189 -6.766,-2.777 -17.786,-11.194 -33.88,-12.68 0,0 -5.524,-0.89 -14.63,0.93 0,0 -2.062,1.194 0.062,1.599 14.262,-1.517 22.859,1.618 27.31,3.136 4.452,1.518 12.645,6.878 12.645,6.878 4.156,2.875 9.884,4.917 9.884,4.917 l 5.593,2.265 0.293,0.146 c -1.027,1.067 -3.804,2.439 -3.804,2.439 -4.946,1.996 -18.828,10.759 -18.828,10.759 l -4.078,2.083 c -9.026,4.425 -14.148,5.006 -14.148,5.006 -2.426,0.909 -12.847,0.606 -12.847,0.606 -2.022,1.111 0,2.123 0,2.123 8.194,0.709 13.151,0 13.151,0 10.401,-1.094 27.206,-10.509 27.206,-10.509 0,0 6.869,-4.376 12.32,-6.075 3.751,-1.169 5.302,-2.483 5.891,-3.152 h 6.17 l -1.216,7.549 0.317,0.355 c 0,0 7.866,0 8.215,0 0.184,0 0.23,-0.271 0.23,-0.271 l -1.243,-8.01 1.416,-0.02 c 0,0 5.322,0.02 10.493,5.266 0,0 0.875,1.116 1.617,0.606 0.87,-0.598 -2.84,-8.064 -12.051,-9.582 L 74.843,47.045 73.097,45.67 c 0,0 1.207,-0.914 1.51,-1.079 2.319,-1.583 5.562,-1.821 5.562,-1.821 0,0 5.841,-0.821 10.135,1.562 l 2.898,1.776 c 2.189,1.272 0.726,-1.618 0.726,-1.618 z M 68.285,43.349 c 0.134,-0.075 0.465,-0.258 0,0 l 0,0 z m 0.616,5.731 c -0.86,0 -1.559,-0.695 -1.559,-1.556 0,-0.861 0.698,-1.557 1.559,-1.557 0.857,0 1.554,0.697 1.554,1.557 0,0.86 -0.696,1.556 -1.554,1.556 z"
         id="path32" /></g></g><g
     transform="translate(0,-45)"
     id="Layer_10"
     style="display:none"><g
       id="g35"
       style="display:inline"><path
         d="m 86.349,81.758 c 0.005,0.218 -0.071,0.428 -0.218,0.586 l -4.819,4.789 c -0.153,0.165 -0.354,0.252 -0.562,0.26 -0.21,0.008 -0.42,-0.064 -0.586,-0.217 L 32.169,34.083 24.787,42.187 c -2.076,2.124 -1.647,5.161 -1.647,5.161 l 0.199,0.746 c 0.058,0.197 0.035,0.409 -0.063,0.588 l -0.661,1.422 c -0.101,0.189 -0.267,0.318 -0.455,0.373 -0.195,0.06 -0.404,0.041 -0.592,-0.062 l -7.51,-4.267 c -0.181,-0.098 -0.317,-0.264 -0.375,-0.458 -0.06,-0.199 -0.034,-0.411 0.064,-0.591 l 1.333,-1.77 c 0.096,-0.18 0.264,-0.319 0.461,-0.375 l 0.906,-0.269 c 0,0 3.387,-0.775 5.814,-7.502 0,0 2.048,-6.133 4.501,-8.844 2.454,-2.709 6.024,-4.383 11.919,-5.196 5.894,-0.814 11.137,-3.207 11.137,-3.207 0,0 3.425,-1.544 6.249,-5.071 l 0.757,-0.257 0.61,0.674 -0.443,2.412 -3.401,3.165 c 0,0 -5.302,4.503 -12.903,7.852 -2.226,0.979 -4.099,2.541 -4.162,2.594 L 86.09,81.19 c 0.157,0.15 0.251,0.35 0.259,0.568 z"
         id="path37" /></g></g></svg>