<?xml version="1.0" encoding="UTF-8" standalone="no"?>
<!-- Created with Inkscape (http://www.inkscape.org/) -->

<svg
   xmlns:dc="http://purl.org/dc/elements/1.1/"
   xmlns:cc="http://creativecommons.org/ns#"
   xmlns:rdf="http://www.w3.org/1999/02/22-rdf-syntax-ns#"
   xmlns:svg="http://www.w3.org/2000/svg"
   xmlns="http://www.w3.org/2000/svg"
   version="1.1"
   width="55"
   height="55"
   viewBox="0 0 36.338167 36.244711"
   id="svg2"
   xml:space="preserve"
   style="fill-rule:evenodd"><metadata
     id="metadata14"><rdf:RDF><cc:Work
         rdf:about=""><dc:format>image/svg+xml</dc:format><dc:type
           rdf:resource="http://purl.org/dc/dcmitype/StillImage" /><dc:title></dc:title></cc:Work></rdf:RDF></metadata><defs
     id="defs4"><style
       type="text/css"
       id="style6" /></defs><g
     transform="matrix(0.54545584,0,0,0.54545584,0.33031929,14.481229)"
     id="Layer_x0020_1"
     style="fill:#ffffff;fill-opacity:1"><metadata
       id="CorelCorpID_0Corel-Layer" /><path
       d="m 2.84696,3.07074 c 0.09185,0.553889 0.180623,1.11175 0.263435,1.67241 0.643704,4.35682 0.929379,8.88371 -0.487593,13.0439 -1.26758,3.72168 -2.42694,7.31498 -2.19871,11.2255 -0.0362004,0.811219 -0.28894,1.23715 -0.346104,2.07402 -0.0346388,0.507231 -0.0562644,1.00381 -0.0687097,1.40405 -0.0343075,1.06628 0.0254586,1.35356 0.206034,2.15366 0.0771801,0.346435 0.225625,0.476993 0.446424,0.594585 2.31616,1.30052 7.56678,1.88867 11.1192997,1.74235 0.863414,-0.03558 1.62537,-0.06701 2.20013,-0.07141 0.0074,1.42e-4 0.01495,1.89e-4 0.02248,-9.5e-5 2.85604,-0.106424 6.9394,-0.16832 10.8813,-0.136662 3.22278,0.02593 6.35877,0.114942 8.65936,0.294146 l 4.7e-5,-5.67e-4 c 2.42221,0.24479 4.32308,0.379418 6.21123,0.44472 1.88228,0.06511 3.75041,0.06095 6.11233,0.02844 3.19571,0.03918 6.85867,-0.460336 10.1593,-1.16783 3.73744,-0.80114 7.02964,-1.87542 8.66911,-2.7412 0.472781,-0.233197 0.563069,-0.566997 0.624634,-0.906523 0.08205,-0.721641 0.119012,-1.47967 0.05551,-2.30996 -0.06521,-0.851584 -0.235799,-1.77822 -0.571303,-2.8179 -0.100509,-0.298026 -0.294382,-0.725758 -0.725332,-1.02123 -2.3207,-1.67269 -5.45599,-1.30421 -8.15871,-1.26389 -0.457875,0.01249 -0.97741,0.06881 -1.47343,0.08631 l -0.0053,-0.0082 c -0.09535,0.0036 -0.190655,0.0071 -0.286007,0.01008 -0.452008,-0.09545 -1.41536,-0.313878 -2.23264,-0.500038 -0.749229,-0.170639 -1.18979,0.550482 -1.3175,1.23602 -0.005,0.04406 -0.0132,0.08707 -0.02087,0.130653 -0.154502,0.753299 -0.857121,1.26663 -1.64279,1.15335 -0.785666,-0.113286 -1.31651,-0.856079 -1.21482,-1.65802 0.120289,-0.94826 -0.04841,-1.93972 -1.51251,-2.42661 -0.439704,-0.146174 -0.833129,-0.30943 -1.2266,-0.478555 -1.20952,-0.51996 -1.98061,-0.324005 -2.69387,1.4005 -0.01661,0.04112 -0.03611,0.08035 -0.05518,0.120242 -0.351262,0.684069 -1.16598,0.989761 -1.89231,0.669494 -0.726326,-0.320267 -1.08738,-1.1965 -0.748709,-1.93021 0.593213,-1.28495 0.932455,-2.29368 -0.521427,-3.11446 -0.325141,-0.18351 -0.620659,-0.390585 -0.927865,-0.574994 -1.05667,-0.634334 -1.88644,-1.1913 -3.21644,0.323721 l -0.600926,0.741374 c -0.02702,0.03516 -0.05631,0.06772 -0.08537,0.10103 -0.521711,0.564962 -1.39994,0.631874 -2.00252,0.138035 -0.625391,-0.512484 -0.716767,-1.43481 -0.204189,-2.0602 0.161032,-0.196476 0.320125,-0.39456 0.482719,-0.589806 0.788837,-0.947314 1.36383,-2.08434 -0.327507,-3.69655 -1.13939,-1.08611 -1.8793,-1.56669 -3.76957,0.0016 l -0.628798,0.528289 c -0.03317,0.02939 -0.06809,0.05579 -0.10297,0.083 -0.619428,0.455699 -1.49439,0.354764 -1.99235,-0.244412 -0.51679,-0.621842 -0.431518,-1.54474 0.190419,-2.06153 0.321166,-0.266889 0.631968,-0.546744 0.962693,-0.801803 1.96693,-1.5171 0.893605,-2.7498597 0.122892,-3.5959497 -0.903921,-0.992316 -1.55212,-1.80178 -3.56055,-0.288704 l -0.745869,0.603529 c -0.03369,0.028771 -0.06913,0.054561 -0.104484,0.081108 -0.62771,0.4442 -1.50068,0.327128 -1.98752,-0.281133 -0.505196,-0.631259 -0.402936,-1.5524 0.228417,-2.05765 0.448648,-0.359022 0.877279,-0.744592 1.34452,-1.07929 1.52288,-1.09084 0.226146,-3.50486 -0.641291,-4.52447999 -0.81103,-0.953276 -1.30809,-0.886649 -2.37086,-0.397589 -0.838476,0.385853 -1.88124,1.20014999 -2.44681,2.12838999 -2.06583,2.98622 -5.12379,-0.214552 -8.1067997,-0.630454 -1.74311,-0.243087 -6.71997,-1.56224999 -5.7392,1.22348 z m -0.778994,27.1581 c 1.69091,0.31615 4.38124,1.66238 8.61777,1.57266 6.63385,-0.140448 13.799,-1.07058 21.0342,-0.100131 11.4616,1.53731 18.0553,0.86649 23.4683,-1.579 0.535103,-0.07884 0.855038,-0.952188 0.741942,-1.3617 -0.209584,-0.790446 -0.510827,-1.61435 -0.830479,-2.23732 -0.05697,-0.363613 0.415098,-0.349274 0.892611,-0.369433 3.68207,-0.100509 5.56922,-0.219237 7.31427,0.945942 0.402179,0.268498 0.566335,0.474296 0.671103,0.812734 0.292064,0.943055 0.44931,1.78319 0.508556,2.55735 0.151048,1.97375 -0.130653,2.41629 -1.61392,3.00984 -1.70591,0.682649 -4.17208,1.4103 -7.00063,2.01657 -3.25983,0.698738 -6.86832,1.19206 -10.0002,1.15311 l -0.0088,0 -0.0016,0 c -2.34853,0.03232 -4.20667,-0.105431 -6.08209,-0.170355 -5.03592,-0.174377 -9.66223,-0.554315 -14.8882,-0.596336 -4.33936,-0.03483 -8.81623,0.03024 -13.1391,0.208164 -2.9715496,0.122371 -6.9182896,-0.276874 -9.3390796,-1.08913 -1.14762,-0.385049 -1.22192,-0.4592 -1.29933,-1.60394 -0.062558,-0.923653 -0.068331,-2.31777 0.165765,-2.7323 0.217486,-0.385333 0.557012,-0.449026 0.788931,-0.436723 z m 11.5734,-20.2554 c -3.6516,0 -6.61175,2.96015 -6.61175,6.61175 0,3.65155 2.96015,6.6117 6.61175,6.6117 3.65155,0 6.6117,-2.96015 6.6117,-6.6117 0,-3.6516 -2.96015,-6.61175 -6.6117,-6.61175 z"
       id="path10"
       style="fill:#ffffff;fill-opacity:1" /></g></svg>