<?xml version="1.0" encoding="UTF-8" standalone="no"?>
<!-- Created with Inkscape (http://www.inkscape.org/) -->

<svg
   xmlns:dc="http://purl.org/dc/elements/1.1/"
   xmlns:cc="http://creativecommons.org/ns#"
   xmlns:rdf="http://www.w3.org/1999/02/22-rdf-syntax-ns#"
   xmlns:svg="http://www.w3.org/2000/svg"
   xmlns="http://www.w3.org/2000/svg"
   version="1.1"
   width="55"
   height="55"
   viewBox="0 0 55 55"
   id="Your_Icon"
   xml:space="preserve"><metadata
     id="metadata15"><rdf:RDF><cc:Work
         rdf:about=""><dc:format>image/svg+xml</dc:format><dc:type
           rdf:resource="http://purl.org/dc/dcmitype/StillImage" /><dc:title></dc:title></cc:Work></rdf:RDF></metadata><defs
     id="defs13" /><g
     transform="matrix(0.66666667,0,0,0.66666667,-5.3333333,-6.333333)"
     id="g3"
     style="fill:#ffffff;fill-opacity:1"><path
       d="m 68,50 c 0,8.834 4.242,16.675 10.801,21.601 C 83.32,65.584 86,58.105 86,50 86,41.895 83.32,34.416 78.801,28.399 72.242,33.325 68,41.166 68,50 z"
       id="path5"
       style="fill:#ffffff;fill-opacity:1" /><path
       d="M 21.2,28.399 C 16.68,34.416 14,41.895 14,50 14,58.105 16.68,65.584 21.2,71.601 27.758,66.675 32,58.833 32,50 32,41.167 27.758,33.325 21.2,28.399 z"
       id="path7"
       style="fill:#ffffff;fill-opacity:1" /><path
       d="M 59,50 C 59,38.634 64.273,28.504 72.5,21.906 66.336,16.963 58.516,14 50,14 41.484,14 33.664,16.964 27.5,21.907 35.728,28.504 41,38.634 41,50 41,61.366 35.728,71.496 27.5,78.093 33.664,83.036 41.484,86 50,86 58.516,86 66.336,83.037 72.5,78.094 64.273,71.496 59,61.366 59,50 z"
       id="path9"
       style="fill:#ffffff;fill-opacity:1" /></g></svg>