<?xml version="1.0" encoding="UTF-8" standalone="no"?>
<!-- Created with Inkscape (http://www.inkscape.org/) -->

<svg
   xmlns:dc="http://purl.org/dc/elements/1.1/"
   xmlns:cc="http://creativecommons.org/ns#"
   xmlns:rdf="http://www.w3.org/1999/02/22-rdf-syntax-ns#"
   xmlns:svg="http://www.w3.org/2000/svg"
   xmlns="http://www.w3.org/2000/svg"
   version="1.0"
   width="55"
   height="55"
   viewBox="0 0 54.999998 55"
   id="Layer_1"
   xml:space="preserve"><metadata
     id="metadata3049"><rdf:RDF><cc:Work
         rdf:about=""><dc:format>image/svg+xml</dc:format><dc:type
           rdf:resource="http://purl.org/dc/dcmitype/StillImage" /><dc:title></dc:title></cc:Work></rdf:RDF></metadata><defs
     id="defs3047" /><g
     transform="matrix(0.53,0,0,0.53,0.36223251,24.85)"
     id="g3930"><path
       d="m 54.602333,-31.231 c 3.862,0 6.884,-3.025 6.884,-6.885 0,-3.862 -3.022,-6.884 -6.884,-6.884 -3.86,0 -6.885,3.022 -6.885,6.884 0,3.86 3.025,6.885 6.885,6.885 z"
       id="path3041"
       style="fill:#ffffff" /><path
       d="m 24.582333,6.724 4.512,-0.421 0.102,-16.053 8.224,-5.204 c 0,0 -1.333,10.545 -1.333,16.085 0,4.831 -0.172,8.736 -0.172,8.736 l -10.528,42.051 7.435,3.082 11.791,-38.451 8.195,10.424 9.339,26.337 8.394,-3.355 -9.425,-27.965 -10.337,-16.325 2.901,-21.399 6.46,13.544 16.622,5.708 2.311,-4.199 -15.234,-8.887 c 0,0 -3.691,-9.819 -6.711,-15.962 -1.027,-2.091 -5.196,-2.774 -6.894,-2.901 -4.896,-0.362 -7.428,1.296 -11.488,3.432 -4.055,2.13 -15.413,10.727 -15.413,10.727 l 1.249,20.996 z"
       id="path3043"
       style="fill:#ffffff" /></g></svg>