<?xml version="1.0" encoding="UTF-8" standalone="no"?>
<!-- Generator: Adobe Illustrator 14.0.0, SVG Export Plug-In . SVG Version: 6.00 Build 43363)  -->

<svg
   xmlns:dc="http://purl.org/dc/elements/1.1/"
   xmlns:cc="http://creativecommons.org/ns#"
   xmlns:rdf="http://www.w3.org/1999/02/22-rdf-syntax-ns#"
   xmlns:svg="http://www.w3.org/2000/svg"
   xmlns="http://www.w3.org/2000/svg"
   xmlns:sodipodi="http://sodipodi.sourceforge.net/DTD/sodipodi-0.dtd"
   xmlns:inkscape="http://www.inkscape.org/namespaces/inkscape"
   version="1.0"
   id="Layer_1"
   x="0px"
   y="0px"
   width="100"
   height="100"
   viewBox="0 0 99.999997 100"
   enable-background="new 0 0 55.74 100"
   xml:space="preserve"
   inkscape:version="0.48.5 r10040"
   sodipodi:docname="walking.svg"><metadata
     id="metadata3049"><rdf:RDF><cc:Work
         rdf:about=""><dc:format>image/svg+xml</dc:format><dc:type
           rdf:resource="http://purl.org/dc/dcmitype/StillImage" /></cc:Work></rdf:RDF></metadata><defs
     id="defs3047" /><sodipodi:namedview
     pagecolor="#ffffff"
     bordercolor="#666666"
     borderopacity="1"
     objecttolerance="10"
     gridtolerance="10"
     guidetolerance="10"
     inkscape:pageopacity="0"
     inkscape:pageshadow="2"
     inkscape:window-width="1360"
     inkscape:window-height="702"
     id="namedview3045"
     showgrid="false"
     inkscape:zoom="2.4"
     inkscape:cx="27.870001"
     inkscape:cy="50"
     inkscape:window-x="0"
     inkscape:window-y="27"
     inkscape:window-maximized="1"
     inkscape:current-layer="Layer_1" /><path
     d="m 54.602333,13.769 c 3.862,0 6.884,-3.025 6.884,-6.885 0,-3.862 -3.022,-6.884 -6.884,-6.884 -3.86,0 -6.885,3.022 -6.885,6.884 0,3.86 3.025,6.885 6.885,6.885 z"
     id="path3041"
     style="fill:#ffffff"
     inkscape:connector-curvature="0" /><path
     d="m 24.582333,51.724 4.512,-0.421 0.102,-16.053 8.224,-5.204 c 0,0 -1.333,10.545 -1.333,16.085 0,4.831 -0.172,8.736 -0.172,8.736 l -10.528,42.051 7.435,3.082 11.791,-38.451 8.195,10.424 9.339,26.337 8.394,-3.355 -9.425,-27.965 -10.337,-16.325 2.901,-21.399 6.46,13.544 16.622,5.708 2.311,-4.199 -15.234,-8.887 c 0,0 -3.691,-9.819 -6.711,-15.962 -1.027,-2.091 -5.196,-2.774 -6.894,-2.901 -4.896,-0.362 -7.428,1.296 -11.488,3.432 -4.055,2.13 -15.413,10.727 -15.413,10.727 l 1.249,20.996 z"
     id="path3043"
     style="fill:#ffffff"
     inkscape:connector-curvature="0" /></svg>