<?xml version="1.0" encoding="UTF-8" standalone="no"?>
<svg
   xmlns:dc="http://purl.org/dc/elements/1.1/"
   xmlns:cc="http://creativecommons.org/ns#"
   xmlns:rdf="http://www.w3.org/1999/02/22-rdf-syntax-ns#"
   xmlns:svg="http://www.w3.org/2000/svg"
   xmlns="http://www.w3.org/2000/svg"
   xmlns:sodipodi="http://sodipodi.sourceforge.net/DTD/sodipodi-0.dtd"
   xmlns:inkscape="http://www.inkscape.org/namespaces/inkscape"
   version="1.1"
   id="Calque_1"
   x="0px"
   y="0px"
   width="100px"
   height="100px"
   viewBox="0 0 100 100"
   enable-background="new 0 0 100 100"
   xml:space="preserve"
   inkscape:version="0.48.3.1 r9886"
   sodipodi:docname="icon_8496.svg"><metadata
   id="metadata233"><rdf:RDF><cc:Work
       rdf:about=""><dc:format>image/svg+xml</dc:format><dc:type
         rdf:resource="http://purl.org/dc/dcmitype/StillImage" /><dc:title></dc:title></cc:Work></rdf:RDF></metadata><defs
   id="defs231" /><sodipodi:namedview
   pagecolor="#ffffff"
   bordercolor="#666666"
   borderopacity="1"
   objecttolerance="10"
   gridtolerance="10"
   guidetolerance="10"
   inkscape:pageopacity="0"
   inkscape:pageshadow="2"
   inkscape:window-width="1360"
   inkscape:window-height="711"
   id="namedview229"
   showgrid="false"
   inkscape:zoom="2.36"
   inkscape:cx="-51.177966"
   inkscape:cy="117.79661"
   inkscape:window-x="0"
   inkscape:window-y="27"
   inkscape:window-maximized="1"
   inkscape:current-layer="Calque_1" />
<g
   id="Captions">
	<rect
   x="-744"
   y="-414"
   width="185"
   height="99"
   id="rect4" />
	<rect
   x="-552"
   y="-450"
   width="100"
   height="30"
   id="rect6" />
	<text
   transform="matrix(1 0 0 1 -485.9995 -433.5)"
   fill="#000000"
   font-family="'Helvetica'"
   font-size="2.4"
   id="text8">http://thenounproject.com</text>

	<text
   transform="matrix(1 0 0 1 -544.8335 -438.5)"
   fill="#000000"
   font-family="'Helvetica-Bold'"
   font-size="6.1578"
   id="text10">The Noun Project</text>

	<text
   transform="matrix(1 0 0 1 -543.7144 -433.6992)"
   fill="#000000"
   font-family="'Helvetica-Bold'"
   font-size="4"
   id="text12">Icon Template</text>

	<text
   transform="matrix(1 0 0 1 -730.4995 -403.5)"
   fill="#000000"
   font-family="'Helvetica-Bold'"
   font-size="6.1578"
   id="text14">Reminders</text>

	<line
   fill="#000000"
   stroke="#FFFFFF"
   stroke-miterlimit="10"
   x1="-544"
   y1="-428.5"
   x2="-534"
   y2="-428.5"
   id="line16" />
	<line
   fill="#000000"
   stroke="#FFFFFF"
   stroke-miterlimit="10"
   x1="-731"
   y1="-397.5"
   x2="-714"
   y2="-397.5"
   id="line18" />
	<g
   id="g20">
		<g
   id="g22">
			<g
   id="g24">
				<rect
   x="-722.802"
   y="-382.682"
   fill="#000000"
   width="8.721"
   height="8.642"
   id="rect26" />
				<path
   fill="#000000"
   d="M-716.455-371.688h4.747v-4.703h-4.747V-371.688z M-711.266-371.251h-5.63v-5.579h5.63V-371.251      L-711.266-371.251z M-718.221-369.938h8.279v-8.203h-8.279V-369.938L-718.221-369.938z M-709.5-369.5h-9.163v-9.079h9.163      V-369.5L-709.5-369.5z"
   id="path28" />
				<polygon
   fill="#000000"
   points="-718.149,-369.867 -718.292,-370.009 -710.013,-378.213 -709.871,-378.071     "
   id="polygon30" />
			</g>
		</g>
	</g>
	<rect
   x="-731"
   y="-356"
   fill="none"
   width="35"
   height="32.5"
   id="rect32" />
	<text
   transform="matrix(1 0 0 1 -730.9995 -353.8418)"
   fill="#000000"
   font-family="'Helvetica-Bold'"
   font-size="3"
   id="text34">Strokes</text>

	<text
   transform="matrix(1 0 0 1 -730.9995 -348.8418)"
   fill="#000000"
   font-family="'Helvetica'"
   font-size="2.4"
   id="text36">Try to keep strokes at 4px</text>

	<text
   transform="matrix(1 0 0 1 -730.9995 -343.8418)"
   fill="#000000"
   font-family="'Helvetica'"
   font-size="2.4"
   id="text38">Minimum stroke weight is 2px</text>

	<text
   transform="matrix(1 0 0 1 -730.9995 -339.3418)"
   fill="#000000"
   font-family="'Helvetica'"
   font-size="2.4"
   id="text40">For thicker strokes use even </text>

	<text
   transform="matrix(1 0 0 1 -730.9995 -336.3418)"
   fill="#000000"
   font-family="'Helvetica'"
   font-size="2.4"
   id="text42">numbers: 6px, 8px etc.</text>

	<text
   transform="matrix(1 0 0 1 -730.9995 -331.8418)"
   fill="#000000"
   font-family="'Helvetica-Bold'"
   font-size="2.4"
   id="text44">Remember to expand strokes </text>

	<text
   transform="matrix(1 0 0 1 -730.9995 -328.8418)"
   fill="#000000"
   font-family="'Helvetica-Bold'"
   font-size="2.4"
   id="text46">before saving as an SVG </text>

	<rect
   x="-688.5"
   y="-356"
   fill="none"
   width="35"
   height="32.5"
   id="rect48" />
	<text
   transform="matrix(1 0 0 1 -688.4995 -353.8418)"
   fill="#000000"
   font-family="'Helvetica-Bold'"
   font-size="3"
   id="text50">Size</text>

	<text
   transform="matrix(1 0 0 1 -688.4995 -348.8418)"
   fill="#000000"
   font-family="'Helvetica'"
   font-size="2.4"
   id="text52">Cannot be wider or taller than </text>

	<text
   transform="matrix(1 0 0 1 -688.4995 -345.3418)"
   fill="#000000"
   font-family="'Helvetica'"
   font-size="2.4"
   id="text54">100px (artboard size)</text>

	<text
   transform="matrix(1 0 0 1 -688.4995 -340.3418)"
   fill="#000000"
   font-family="'Helvetica'"
   font-size="2.4"
   id="text56">Scale your icon to fill as much of </text>

	<text
   transform="matrix(1 0 0 1 -688.4995 -337.3418)"
   fill="#000000"
   font-family="'Helvetica'"
   font-size="2.4"
   id="text58">the artboard as possible</text>

	<rect
   x="-646"
   y="-356"
   fill="none"
   width="35"
   height="32.5"
   id="rect60" />
	<text
   transform="matrix(1 0 0 1 -645.9995 -353.8418)"
   fill="#000000"
   font-family="'Helvetica-Bold'"
   font-size="3"
   id="text62">Ungroup</text>

	<text
   transform="matrix(1 0 0 1 -645.9995 -348.8418)"
   fill="#000000"
   font-family="'Helvetica'"
   font-size="2.4"
   id="text64">If your design has more than one </text>

	<text
   transform="matrix(1 0 0 1 -645.9995 -345.8418)"
   fill="#000000"
   font-family="'Helvetica'"
   font-size="2.4"
   id="text66">shape, make sure to ungroup</text>

	<rect
   x="-602"
   y="-356"
   fill="none"
   width="35"
   height="32.5"
   id="rect68" />
	<text
   transform="matrix(1 0 0 1 -601.9995 -353.8418)"
   fill="#000000"
   font-family="'Helvetica-Bold'"
   font-size="3"
   id="text70">Save as</text>

	<text
   transform="matrix(1 0 0 1 -601.9995 -348.8418)"
   fill="#000000"
   font-family="'Helvetica'"
   font-size="2.4"
   id="text72">Save as .SVG and make sure </text>

	<text
   transform="matrix(1 0 0 1 -601.9995 -345.8418)"
   fill="#000000"
   font-family="'Helvetica'"
   font-size="2.4"
   id="text74">“Use Artboards” is checked</text>

	<text
   transform="matrix(1.0074 0 0 1 -677.5425 -383.4062)"
   fill="#000000"
   font-family="'Helvetica'"
   font-size="2.5731"
   id="text76">100px</text>

	<text
   transform="matrix(1.0074 0 0 1 -592.9995 -375)"
   fill="#000000"
   font-family="'Helvetica-Bold'"
   font-size="5.1462"
   id="text78">.SVG</text>

	<rect
   x="-678.514"
   y="-379.185"
   fill="#000000"
   width="10.261"
   height="10.185"
   id="rect80" />
	<rect
   x="-678.477"
   y="-382.234"
   fill="#000000"
   width="0.522"
   height="2.337"
   id="rect82" />
	<rect
   x="-668.812"
   y="-382.234"
   fill="#000000"
   width="0.523"
   height="2.337"
   id="rect84" />
	<rect
   x="-679"
   y="-381.663"
   fill="#000000"
   width="11.233"
   height="0.572"
   id="rect86" />
	<g
   id="g88">
		<rect
   x="-635.805"
   y="-380.156"
   fill="#000000"
   width="10.305"
   height="10.156"
   id="rect90" />
		<rect
   x="-628.809"
   y="-385.293"
   fill="#000000"
   width="3.308"
   height="3.261"
   id="rect92" />
	</g>
	<rect
   x="-730.5"
   y="-391.5"
   fill="#000000"
   stroke="#FFFFFF"
   stroke-miterlimit="10"
   width="30"
   height="30"
   id="rect94" />
	<rect
   x="-688.5"
   y="-391.5"
   fill="#000000"
   stroke="#FFFFFF"
   stroke-miterlimit="10"
   width="30"
   height="30"
   id="rect96" />
	<rect
   x="-645.5"
   y="-391.5"
   fill="#000000"
   stroke="#FFFFFF"
   stroke-miterlimit="10"
   width="30"
   height="30"
   id="rect98" />
	<rect
   x="-601.5"
   y="-391.5"
   fill="#000000"
   stroke="#FFFFFF"
   stroke-miterlimit="10"
   width="30"
   height="30"
   id="rect100" />
</g>

<g
   id="g221"
   style="fill:#ffffff;fill-opacity:1">
	<path
   fill="#000000"
   d="M90.379,32.314c-0.038,0-0.074,0.005-0.112,0.006v-0.001c-0.005,0-0.013,0.001-0.019,0.002   c-0.22,0.005-0.438,0.026-0.652,0.061c-0.61,0.058-1.484,0.143-2.557,0.247c-5.958,0.58-19.909,1.937-22.111,1.826   c-0.005,0-0.01-0.001-0.016-0.001c0.037-0.701,0.815-2.373,1.298-3.409c0.353-0.757,0.717-1.54,0.993-2.265   c0.61-1.604-0.071-3.115-1.777-3.943c-1.945-0.945-5.596-1.072-6.651,0.688c-0.764,1.273-5.367,6.731-8.701,9.51   c-1.375,1.146-9.522,2.393-16.71,3.493c-9.204,1.409-19.635,3.005-26.107,5.414L7.13,43.996c-4.465,2.232-7.326,7.768-7.119,13.775   c0.128,3.718,1.725,12.907,13.756,17.92l0.37,0.154l0.392-0.083c20.645-4.404,58.386-4.4,74.5-4.391h1.351   c5.396,0,9.621-8.578,9.621-19.529C100,40.892,95.774,32.314,90.379,32.314z M90.379,34.88c3.337,0,7.056,6.966,7.056,16.962   c0,4.991-0.927,9.226-2.271,12.217l-0.616-1.285c1.137-2.639,1.959-6.36,1.959-10.932c0-9.389-3.63-15.381-6.128-15.381   c-1.499,0-3.342,2.008-4.614,5.584l-0.632-1.3C86.521,37.066,88.51,34.88,90.379,34.88z M64.015,67.338   c-10.777,1.082-24.398,2.45-35.351,3.322c-5.228,0.259-10.353,0.496-15.17,0.703c11.121-1.282,41.836-3.749,67.074-5.646   C76.72,66.072,71.396,66.597,64.015,67.338z M62.354,34.707c-0.274,0.016-0.586,0.036-0.954,0.062   c0.318-0.051,0.634-0.1,0.952-0.15C62.354,34.648,62.354,34.678,62.354,34.707z M81.506,38.832c0.562-0.024,1.119-0.047,1.673-0.07   c-0.055,0.125-0.109,0.254-0.163,0.383c-0.882,0.077-1.827,0.159-2.837,0.247c-5.281,0.417-12.175,0.824-19.342,1.209   c2.277-0.241,4.533-0.476,6.727-0.695C72.773,39.486,77.633,39.107,81.506,38.832z M74.903,41.426   c2.79-0.16,5.282-0.272,7.398-0.329c-0.089,0.278-0.174,0.561-0.256,0.849c-6.084,0.747-16.822,1.68-35.726,2.725   c-5.764,0.318-11.516,0.604-16.816,0.851c5.516-0.381,12.497-0.943,21.335-1.749C59.413,42.992,67.957,42.141,74.903,41.426z    M80.921,55.492c0.007,0.08,0.013,0.161,0.021,0.241c-6.264,0.488-13.625,1.057-21.297,1.641c0.061-0.007,0.121-0.013,0.181-0.02   L80.921,55.492z M69,45.957c-4.529,0.33-9.409,0.679-14.243,1.023c-2.522,0.18-5.062,0.361-7.592,0.542   c2.96-0.311,5.921-0.617,8.826-0.908c1.275-0.082,2.503-0.163,3.685-0.244c0.241-0.01,0.482-0.021,0.723-0.031   C63.573,46.201,66.43,46.074,69,45.957z M20.136,49.034c-5.452,0.507-10.085,0.843-13.054,0.857   c0.79-0.132,1.736-0.271,2.871-0.416C12.299,49.436,15.567,49.306,20.136,49.034z M54.849,48.26   c9.229-0.659,17.959-1.282,24.454-1.787c-0.394,0.043-0.801,0.088-1.222,0.135c-8.091,0.896-18.979,2.104-30.032,3.204   l-30.367,2.124c-5.637,0.246-10.222,0.428-12.998,0.534c-0.307-0.03-0.569-0.064-0.793-0.1   C10.301,51.438,35.732,49.624,54.849,48.26z M20.823,55.195l-17.301,1.33C6.528,56.01,13.058,55.578,20.823,55.195z M3.806,58.819   c3.906,0.056,12.079-0.558,26.738-1.899c1.336-0.055,2.681-0.108,4.022-0.16C20.262,58.197,6.498,59.44,2.782,59.065   C3.06,58.981,3.402,58.899,3.806,58.819z M15.66,59.966l-5.034,0.444c-1.109,0.039-2.075,0.061-2.916,0.068   C9.898,60.339,12.594,60.166,15.66,59.966z M16.187,66.316c1.357-0.063,2.801-0.131,4.316-0.204   c-5.838,0.479-10.64,0.796-13.308,0.805C9.116,66.837,11.977,66.646,16.187,66.316z M56.717,64.633   c-3.499,0.314-7.22,0.648-10.992,0.983c-6.057,0.42-12.312,0.824-18.459,1.2c5.883-0.527,13.097-1.212,21.871-2.062   c1.463-0.142,2.941-0.285,4.425-0.428c12.323-0.762,20.517-1.411,25.982-1.959c0.943-0.061,1.815-0.122,2.632-0.184   c0.024,0.081,0.05,0.16,0.075,0.24C77.269,62.807,69.352,63.496,56.717,64.633z M84.583,42.396l0.755,0.984   c-0.11,0.386-0.212,0.788-0.309,1.202l-0.809-0.821C84.333,43.29,84.454,42.835,84.583,42.396z M91.859,57.627   c-0.479,0.989-1.029,1.545-1.48,1.545c-1.035,0-2.601-2.924-2.601-7.33c0-4.405,1.565-7.329,2.601-7.329s2.601,2.923,2.601,7.329   c0,2.344-0.444,4.262-1.015,5.55l-0.269-0.561L91.859,57.627z M93.407,51.842c0-4.57-1.596-7.756-3.028-7.756   c-0.814,0-1.683,1.034-2.279,2.764l-0.495-1.02c0.769-2.426,1.904-3.858,2.774-3.858c1.446,0,3.634,3.937,3.634,9.87   c0,2.968-0.547,5.436-1.274,7.161l-0.526-1.097C92.905,56.532,93.407,54.405,93.407,51.842z M88.07,46.943   c-0.435,1.299-0.72,2.974-0.72,4.899c0,4.572,1.596,7.758,3.028,7.758c0.549,0,1.121-0.471,1.618-1.305l0.324,1.571   c-0.639,1.182-1.352,1.847-1.942,1.847c-1.447,0-3.634-3.937-3.634-9.871c0-2.189,0.299-4.104,0.747-5.652L88.07,46.943z    M86.317,51.842c0,5.895,2.145,10.299,4.062,10.299c0.7,0,1.431-0.59,2.076-1.624l0.327,1.588c-0.796,1.382-1.673,2.15-2.403,2.15   c-1.858,0-4.667-4.951-4.667-12.413c0-2.133,0.23-4.061,0.602-5.728l0.25,0.026l-0.207-0.21c0.073-0.315,0.151-0.622,0.233-0.917   l0.577,0.751C86.648,47.444,86.317,49.527,86.317,51.842z M85.986,45.554l-0.578-0.587c0.087-0.389,0.181-0.765,0.28-1.129   l0.562,0.732C86.156,44.886,86.068,45.214,85.986,45.554z M85.868,46.067c-0.363,1.674-0.584,3.61-0.584,5.774   c0,7.956,2.967,12.841,5.095,12.841c0.793,0,1.704-0.681,2.534-1.946l0.328,1.595c-0.953,1.587-1.992,2.466-2.862,2.466   c-2.27,0-5.7-5.965-5.7-14.955c0-2.132,0.194-4.092,0.52-5.845L85.868,46.067z M92.987,59.522c0.851-1.854,1.453-4.558,1.453-7.681   c0-5.894-2.145-10.298-4.062-10.298c-1.088,0-2.248,1.418-3.049,3.722l-0.504-1.036c0.987-3.025,2.44-4.8,3.553-4.8   c1.857,0,4.667,4.951,4.667,12.412c0,3.598-0.653,6.608-1.538,8.765L92.987,59.522z M95.474,51.842   c0-7.955-2.968-12.839-5.095-12.839c-1.244,0-2.774,1.673-3.832,4.652l-0.495-1.019c1.206-3.623,2.973-5.748,4.327-5.748   c2.27,0,5.7,5.964,5.7,14.954c0,4.229-0.759,7.788-1.8,10.372l-0.512-1.067C94.752,58.935,95.474,55.763,95.474,51.842z    M50.85,37.549c1.898-0.22,3.904-0.434,5.593-0.614c2.005-0.213,3.899-0.415,5.271-0.583c0.477-0.058,0.874-0.107,1.21-0.155   c0.131,0.151,0.295,0.3,0.504,0.429c-1.53,0.138-3.073,0.277-4.614,0.417c-2.988,0.271-5.776,0.524-8.359,0.762   c-0.067,0.003-0.13,0.006-0.195,0.009C50.472,37.726,50.669,37.638,50.85,37.549z M90.379,68.805   c-3.338,0-7.056-6.966-7.056-16.963c0-2.15,0.173-4.16,0.476-5.991l0.951,0.1c-0.313,1.759-0.499,3.729-0.499,5.892   c0,9.53,3.569,15.383,6.128,15.383c0.938,0,2.01-0.789,2.994-2.254l0.336,1.631C92.659,68.019,91.497,68.805,90.379,68.805z"
   id="path223"
   style="fill:#ffffff;fill-opacity:1" />
	<path
   fill="#000000"
   d="M90.379,46.627c-1.082,0-1.995,2.388-1.995,5.214c0,2.827,0.913,5.216,1.995,5.216   c1.081,0,1.995-2.389,1.995-5.216C92.374,49.016,91.46,46.627,90.379,46.627z M90.379,56.63c-0.625,0-1.568-1.909-1.568-4.788   c0-2.877,0.943-4.787,1.568-4.787c0.624,0,1.567,1.909,1.567,4.787C91.946,54.721,91.003,56.63,90.379,56.63z"
   id="path225"
   style="fill:#ffffff;fill-opacity:1" />
	<path
   fill="#000000"
   d="M90.379,49.169c-0.661,0-0.962,1.386-0.962,2.673c0,1.288,0.301,2.674,0.962,2.674s0.962-1.386,0.962-2.674   C91.341,50.555,91.04,49.169,90.379,49.169z"
   id="path227"
   style="fill:#ffffff;fill-opacity:1" />
</g>
</svg>