<?xml version="1.0" encoding="UTF-8" standalone="no"?>
<!-- Created with Inkscape (http://www.inkscape.org/) -->

<svg
   xmlns:dc="http://purl.org/dc/elements/1.1/"
   xmlns:cc="http://creativecommons.org/ns#"
   xmlns:rdf="http://www.w3.org/1999/02/22-rdf-syntax-ns#"
   xmlns:svg="http://www.w3.org/2000/svg"
   xmlns="http://www.w3.org/2000/svg"
   version="1.1"
   width="55"
   height="55"
   viewBox="0 0 55 55"
   id="Calque_1"
   xml:space="preserve"><metadata
     id="metadata233"><rdf:RDF><cc:Work
         rdf:about=""><dc:format>image/svg+xml</dc:format><dc:type
           rdf:resource="http://purl.org/dc/dcmitype/StillImage" /><dc:title></dc:title></cc:Work></rdf:RDF></metadata><defs
     id="defs231" /><g
     transform="translate(0,-45)"
     id="Captions"><rect
       width="185"
       height="99"
       x="-744"
       y="-414"
       id="rect4" /><rect
       width="100"
       height="30"
       x="-552"
       y="-450"
       id="rect6" /><text
       transform="translate(-485.9995,-433.5)"
       id="text8"
       style="font-size:2.4000001px;fill:#000000;font-family:Helvetica">http://thenounproject.com</text>
<text
       transform="translate(-544.8335,-438.5)"
       id="text10"
       style="font-size:6.1578002px;fill:#000000;font-family:Helvetica-Bold">The Noun Project</text>
<text
       transform="translate(-543.7144,-433.6992)"
       id="text12"
       style="font-size:4px;fill:#000000;font-family:Helvetica-Bold">Icon Template</text>
<text
       transform="translate(-730.4995,-403.5)"
       id="text14"
       style="font-size:6.1578002px;fill:#000000;font-family:Helvetica-Bold">Reminders</text>
<line
       stroke-miterlimit="10"
       x1="-544"
       y1="-428.5"
       x2="-534"
       y2="-428.5"
       id="line16"
       style="fill:#000000;stroke:#ffffff;stroke-miterlimit:10" /><line
       stroke-miterlimit="10"
       x1="-731"
       y1="-397.5"
       x2="-714"
       y2="-397.5"
       id="line18"
       style="fill:#000000;stroke:#ffffff;stroke-miterlimit:10" /><g
       id="g20"><g
         id="g22"><g
           id="g24"><rect
             width="8.7209997"
             height="8.6420002"
             x="-722.802"
             y="-382.68201"
             id="rect26"
             style="fill:#000000" /><path
             d="m -716.455,-371.688 h 4.747 v -4.703 h -4.747 v 4.703 z m 5.189,0.437 h -5.63 v -5.579 h 5.63 v 5.579 l 0,0 z m -6.955,1.313 h 8.279 v -8.203 h -8.279 v 8.203 l 0,0 z m 8.721,0.438 h -9.163 v -9.079 h 9.163 v 9.079 l 0,0 z"
             id="path28"
             style="fill:#000000" /><polygon
             points="-709.871,-378.071 -718.149,-369.867 -718.292,-370.009 -710.013,-378.213 "
             id="polygon30"
             style="fill:#000000" /></g></g></g><rect
       width="35"
       height="32.5"
       x="-731"
       y="-356"
       id="rect32"
       style="fill:none" /><text
       transform="translate(-730.9995,-353.8418)"
       id="text34"
       style="font-size:3px;fill:#000000;font-family:Helvetica-Bold">Strokes</text>
<text
       transform="translate(-730.9995,-348.8418)"
       id="text36"
       style="font-size:2.4000001px;fill:#000000;font-family:Helvetica">Try to keep strokes at 4px</text>
<text
       transform="translate(-730.9995,-343.8418)"
       id="text38"
       style="font-size:2.4000001px;fill:#000000;font-family:Helvetica">Minimum stroke weight is 2px</text>
<text
       transform="translate(-730.9995,-339.3418)"
       id="text40"
       style="font-size:2.4000001px;fill:#000000;font-family:Helvetica">For thicker strokes use even </text>
<text
       transform="translate(-730.9995,-336.3418)"
       id="text42"
       style="font-size:2.4000001px;fill:#000000;font-family:Helvetica">numbers: 6px, 8px etc.</text>
<text
       transform="translate(-730.9995,-331.8418)"
       id="text44"
       style="font-size:2.4000001px;fill:#000000;font-family:Helvetica-Bold">Remember to expand strokes </text>
<text
       transform="translate(-730.9995,-328.8418)"
       id="text46"
       style="font-size:2.4000001px;fill:#000000;font-family:Helvetica-Bold">before saving as an SVG </text>
<rect
       width="35"
       height="32.5"
       x="-688.5"
       y="-356"
       id="rect48"
       style="fill:none" /><text
       transform="translate(-688.4995,-353.8418)"
       id="text50"
       style="font-size:3px;fill:#000000;font-family:Helvetica-Bold">Size</text>
<text
       transform="translate(-688.4995,-348.8418)"
       id="text52"
       style="font-size:2.4000001px;fill:#000000;font-family:Helvetica">Cannot be wider or taller than </text>
<text
       transform="translate(-688.4995,-345.3418)"
       id="text54"
       style="font-size:2.4000001px;fill:#000000;font-family:Helvetica">100px (artboard size)</text>
<text
       transform="translate(-688.4995,-340.3418)"
       id="text56"
       style="font-size:2.4000001px;fill:#000000;font-family:Helvetica">Scale your icon to fill as much of </text>
<text
       transform="translate(-688.4995,-337.3418)"
       id="text58"
       style="font-size:2.4000001px;fill:#000000;font-family:Helvetica">the artboard as possible</text>
<rect
       width="35"
       height="32.5"
       x="-646"
       y="-356"
       id="rect60"
       style="fill:none" /><text
       transform="translate(-645.9995,-353.8418)"
       id="text62"
       style="font-size:3px;fill:#000000;font-family:Helvetica-Bold">Ungroup</text>
<text
       transform="translate(-645.9995,-348.8418)"
       id="text64"
       style="font-size:2.4000001px;fill:#000000;font-family:Helvetica">If your design has more than one </text>
<text
       transform="translate(-645.9995,-345.8418)"
       id="text66"
       style="font-size:2.4000001px;fill:#000000;font-family:Helvetica">shape, make sure to ungroup</text>
<rect
       width="35"
       height="32.5"
       x="-602"
       y="-356"
       id="rect68"
       style="fill:none" /><text
       transform="translate(-601.9995,-353.8418)"
       id="text70"
       style="font-size:3px;fill:#000000;font-family:Helvetica-Bold">Save as</text>
<text
       transform="translate(-601.9995,-348.8418)"
       id="text72"
       style="font-size:2.4000001px;fill:#000000;font-family:Helvetica">Save as .SVG and make sure </text>
<text
       transform="translate(-601.9995,-345.8418)"
       id="text74"
       style="font-size:2.4000001px;fill:#000000;font-family:Helvetica">“Use Artboards” is checked</text>
<text
       transform="matrix(1.0074,0,0,1,-677.5425,-383.4062)"
       id="text76"
       style="font-size:2.57310009px;fill:#000000;font-family:Helvetica">100px</text>
<text
       transform="matrix(1.0074,0,0,1,-592.9995,-375)"
       id="text78"
       style="font-size:5.14620018px;fill:#000000;font-family:Helvetica-Bold">.SVG</text>
<rect
       width="10.261"
       height="10.185"
       x="-678.51398"
       y="-379.185"
       id="rect80"
       style="fill:#000000" /><rect
       width="0.52200001"
       height="2.3369999"
       x="-678.47699"
       y="-382.23401"
       id="rect82"
       style="fill:#000000" /><rect
       width="0.523"
       height="2.3369999"
       x="-668.81201"
       y="-382.23401"
       id="rect84"
       style="fill:#000000" /><rect
       width="11.233"
       height="0.57200003"
       x="-679"
       y="-381.66299"
       id="rect86"
       style="fill:#000000" /><g
       id="g88"><rect
         width="10.305"
         height="10.156"
         x="-635.80499"
         y="-380.15601"
         id="rect90"
         style="fill:#000000" /><rect
         width="3.3080001"
         height="3.2609999"
         x="-628.80902"
         y="-385.293"
         id="rect92"
         style="fill:#000000" /></g><rect
       width="30"
       height="30"
       x="-730.5"
       y="-391.5"
       id="rect94"
       style="fill:#000000;stroke:#ffffff;stroke-miterlimit:10" /><rect
       width="30"
       height="30"
       x="-688.5"
       y="-391.5"
       id="rect96"
       style="fill:#000000;stroke:#ffffff;stroke-miterlimit:10" /><rect
       width="30"
       height="30"
       x="-645.5"
       y="-391.5"
       id="rect98"
       style="fill:#000000;stroke:#ffffff;stroke-miterlimit:10" /><rect
       width="30"
       height="30"
       x="-601.5"
       y="-391.5"
       id="rect100"
       style="fill:#000000;stroke:#ffffff;stroke-miterlimit:10" /></g><g
     transform="matrix(0.53999713,0,0,0.53999713,2.1541096e-4,1.888918)"
     id="g221"
     style="fill:#ffffff;fill-opacity:1"><path
       d="m 90.379,32.314 c -0.038,0 -0.074,0.005 -0.112,0.006 v -10e-4 c -0.005,0 -0.013,10e-4 -0.019,0.002 -0.22,0.005 -0.438,0.026 -0.652,0.061 -0.61,0.058 -1.484,0.143 -2.557,0.247 -5.958,0.58 -19.909,1.937 -22.111,1.826 -0.005,0 -0.01,-10e-4 -0.016,-10e-4 0.037,-0.701 0.815,-2.373 1.298,-3.409 0.353,-0.757 0.717,-1.54 0.993,-2.265 0.61,-1.604 -0.071,-3.115 -1.777,-3.943 -1.945,-0.945 -5.596,-1.072 -6.651,0.688 -0.764,1.273 -5.367,6.731 -8.701,9.51 -1.375,1.146 -9.522,2.393 -16.71,3.493 -9.204,1.409 -19.635,3.005 -26.107,5.414 L 7.13,43.996 c -4.465,2.232 -7.326,7.768 -7.119,13.775 0.128,3.718 1.725,12.907 13.756,17.92 l 0.37,0.154 0.392,-0.083 c 20.645,-4.404 58.386,-4.4 74.5,-4.391 h 1.351 c 5.396,0 9.621,-8.578 9.621,-19.529 C 100,40.892 95.774,32.314 90.379,32.314 z m 0,2.566 c 3.337,0 7.056,6.966 7.056,16.962 0,4.991 -0.927,9.226 -2.271,12.217 l -0.616,-1.285 c 1.137,-2.639 1.959,-6.36 1.959,-10.932 0,-9.389 -3.63,-15.381 -6.128,-15.381 -1.499,0 -3.342,2.008 -4.614,5.584 l -0.632,-1.3 C 86.521,37.066 88.51,34.88 90.379,34.88 z M 64.015,67.338 c -10.777,1.082 -24.398,2.45 -35.351,3.322 -5.228,0.259 -10.353,0.496 -15.17,0.703 11.121,-1.282 41.836,-3.749 67.074,-5.646 -3.848,0.355 -9.172,0.88 -16.553,1.621 z M 62.354,34.707 c -0.274,0.016 -0.586,0.036 -0.954,0.062 0.318,-0.051 0.634,-0.1 0.952,-0.15 0.002,0.029 0.002,0.059 0.002,0.088 z m 19.152,4.125 c 0.562,-0.024 1.119,-0.047 1.673,-0.07 -0.055,0.125 -0.109,0.254 -0.163,0.383 -0.882,0.077 -1.827,0.159 -2.837,0.247 -5.281,0.417 -12.175,0.824 -19.342,1.209 2.277,-0.241 4.533,-0.476 6.727,-0.695 5.209,-0.42 10.069,-0.799 13.942,-1.074 z m -6.603,2.594 c 2.79,-0.16 5.282,-0.272 7.398,-0.329 -0.089,0.278 -0.174,0.561 -0.256,0.849 -6.084,0.747 -16.822,1.68 -35.726,2.725 -5.764,0.318 -11.516,0.604 -16.816,0.851 5.516,-0.381 12.497,-0.943 21.335,-1.749 8.575,-0.781 17.119,-1.632 24.065,-2.347 z m 6.018,14.066 c 0.007,0.08 0.013,0.161 0.021,0.241 -6.264,0.488 -13.625,1.057 -21.297,1.641 0.061,-0.007 0.121,-0.013 0.181,-0.02 L 80.921,55.492 z M 69,45.957 c -4.529,0.33 -9.409,0.679 -14.243,1.023 -2.522,0.18 -5.062,0.361 -7.592,0.542 2.96,-0.311 5.921,-0.617 8.826,-0.908 1.275,-0.082 2.503,-0.163 3.685,-0.244 0.241,-0.01 0.482,-0.021 0.723,-0.031 3.174,-0.138 6.031,-0.265 8.601,-0.382 z m -48.864,3.077 c -5.452,0.507 -10.085,0.843 -13.054,0.857 0.79,-0.132 1.736,-0.271 2.871,-0.416 2.346,-0.039 5.614,-0.169 10.183,-0.441 z M 54.849,48.26 c 9.229,-0.659 17.959,-1.282 24.454,-1.787 -0.394,0.043 -0.801,0.088 -1.222,0.135 -8.091,0.896 -18.979,2.104 -30.032,3.204 L 17.682,51.936 C 12.045,52.182 7.46,52.364 4.684,52.47 4.377,52.44 4.115,52.406 3.891,52.37 c 6.41,-0.932 31.841,-2.746 50.958,-4.11 z m -34.026,6.935 -17.301,1.33 c 3.006,-0.515 9.536,-0.947 17.301,-1.33 z M 3.806,58.819 c 3.906,0.056 12.079,-0.558 26.738,-1.899 1.336,-0.055 2.681,-0.108 4.022,-0.16 -14.304,1.437 -28.068,2.68 -31.784,2.305 0.278,-0.084 0.62,-0.166 1.024,-0.246 z m 11.854,1.147 -5.034,0.444 c -1.109,0.039 -2.075,0.061 -2.916,0.068 2.188,-0.139 4.884,-0.312 7.95,-0.512 z m 0.527,6.35 c 1.357,-0.063 2.801,-0.131 4.316,-0.204 -5.838,0.479 -10.64,0.796 -13.308,0.805 1.921,-0.08 4.782,-0.271 8.992,-0.601 z m 40.53,-1.683 c -3.499,0.314 -7.22,0.648 -10.992,0.983 -6.057,0.42 -12.312,0.824 -18.459,1.2 5.883,-0.527 13.097,-1.212 21.871,-2.062 1.463,-0.142 2.941,-0.285 4.425,-0.428 12.323,-0.762 20.517,-1.411 25.982,-1.959 0.943,-0.061 1.815,-0.122 2.632,-0.184 0.024,0.081 0.05,0.16 0.075,0.24 -4.982,0.384 -12.899,1.073 -25.534,2.21 z m 27.866,-22.237 0.755,0.984 c -0.11,0.386 -0.212,0.788 -0.309,1.202 L 84.22,43.761 c 0.113,-0.471 0.234,-0.926 0.363,-1.365 z m 7.276,15.231 c -0.479,0.989 -1.029,1.545 -1.48,1.545 -1.035,0 -2.601,-2.924 -2.601,-7.33 0,-4.405 1.565,-7.329 2.601,-7.329 1.036,0 2.601,2.923 2.601,7.329 0,2.344 -0.444,4.262 -1.015,5.55 l -0.269,-0.561 0.163,0.796 z m 1.548,-5.785 c 0,-4.57 -1.596,-7.756 -3.028,-7.756 -0.814,0 -1.683,1.034 -2.279,2.764 l -0.495,-1.02 c 0.769,-2.426 1.904,-3.858 2.774,-3.858 1.446,0 3.634,3.937 3.634,9.87 0,2.968 -0.547,5.436 -1.274,7.161 l -0.526,-1.097 c 0.692,-1.374 1.194,-3.501 1.194,-6.064 z M 88.07,46.943 c -0.435,1.299 -0.72,2.974 -0.72,4.899 0,4.572 1.596,7.758 3.028,7.758 0.549,0 1.121,-0.471 1.618,-1.305 l 0.324,1.571 c -0.639,1.182 -1.352,1.847 -1.942,1.847 -1.447,0 -3.634,-3.937 -3.634,-9.871 0,-2.189 0.299,-4.104 0.747,-5.652 l 0.579,0.753 z m -1.753,4.899 c 0,5.895 2.145,10.299 4.062,10.299 0.7,0 1.431,-0.59 2.076,-1.624 l 0.327,1.588 c -0.796,1.382 -1.673,2.15 -2.403,2.15 -1.858,0 -4.667,-4.951 -4.667,-12.413 0,-2.133 0.23,-4.061 0.602,-5.728 l 0.25,0.026 -0.207,-0.21 c 0.073,-0.315 0.151,-0.622 0.233,-0.917 l 0.577,0.751 c -0.519,1.68 -0.85,3.763 -0.85,6.078 z m -0.331,-6.288 -0.578,-0.587 c 0.087,-0.389 0.181,-0.765 0.28,-1.129 l 0.562,0.732 c -0.094,0.316 -0.182,0.644 -0.264,0.984 z m -0.118,0.513 c -0.363,1.674 -0.584,3.61 -0.584,5.774 0,7.956 2.967,12.841 5.095,12.841 0.793,0 1.704,-0.681 2.534,-1.946 l 0.328,1.595 c -0.953,1.587 -1.992,2.466 -2.862,2.466 -2.27,0 -5.7,-5.965 -5.7,-14.955 0,-2.132 0.194,-4.092 0.52,-5.845 l 0.669,0.07 z m 7.119,13.455 c 0.851,-1.854 1.453,-4.558 1.453,-7.681 0,-5.894 -2.145,-10.298 -4.062,-10.298 -1.088,0 -2.248,1.418 -3.049,3.722 l -0.504,-1.036 c 0.987,-3.025 2.44,-4.8 3.553,-4.8 1.857,0 4.667,4.951 4.667,12.412 0,3.598 -0.653,6.608 -1.538,8.765 l -0.52,-1.084 z m 2.487,-7.68 c 0,-7.955 -2.968,-12.839 -5.095,-12.839 -1.244,0 -2.774,1.673 -3.832,4.652 l -0.495,-1.019 c 1.206,-3.623 2.973,-5.748 4.327,-5.748 2.27,0 5.7,5.964 5.7,14.954 0,4.229 -0.759,7.788 -1.8,10.372 l -0.512,-1.067 c 0.985,-2.212 1.707,-5.384 1.707,-9.305 z M 50.85,37.549 c 1.898,-0.22 3.904,-0.434 5.593,-0.614 2.005,-0.213 3.899,-0.415 5.271,-0.583 0.477,-0.058 0.874,-0.107 1.21,-0.155 0.131,0.151 0.295,0.3 0.504,0.429 -1.53,0.138 -3.073,0.277 -4.614,0.417 -2.988,0.271 -5.776,0.524 -8.359,0.762 -0.067,0.003 -0.13,0.006 -0.195,0.009 0.212,-0.088 0.409,-0.176 0.59,-0.265 z m 39.529,31.256 c -3.338,0 -7.056,-6.966 -7.056,-16.963 0,-2.15 0.173,-4.16 0.476,-5.991 l 0.951,0.1 c -0.313,1.759 -0.499,3.729 -0.499,5.892 0,9.53 3.569,15.383 6.128,15.383 0.938,0 2.01,-0.789 2.994,-2.254 l 0.336,1.631 c -1.05,1.416 -2.212,2.202 -3.33,2.202 z"
       id="path223"
       style="fill:#ffffff;fill-opacity:1" /><path
       d="m 90.379,46.627 c -1.082,0 -1.995,2.388 -1.995,5.214 0,2.827 0.913,5.216 1.995,5.216 1.081,0 1.995,-2.389 1.995,-5.216 0,-2.825 -0.914,-5.214 -1.995,-5.214 z m 0,10.003 c -0.625,0 -1.568,-1.909 -1.568,-4.788 0,-2.877 0.943,-4.787 1.568,-4.787 0.624,0 1.567,1.909 1.567,4.787 0,2.879 -0.943,4.788 -1.567,4.788 z"
       id="path225"
       style="fill:#ffffff;fill-opacity:1" /><path
       d="m 90.379,49.169 c -0.661,0 -0.962,1.386 -0.962,2.673 0,1.288 0.301,2.674 0.962,2.674 0.661,0 0.962,-1.386 0.962,-2.674 0,-1.287 -0.301,-2.673 -0.962,-2.673 z"
       id="path227"
       style="fill:#ffffff;fill-opacity:1" /></g></svg>