<?xml version="1.0" encoding="UTF-8" standalone="no"?>
<svg
   xmlns="http://www.w3.org/2000/svg"
   xmlns:xlink="http://www.w3.org/1999/xlink"
   width="737"
   height="923"
   version="1.0">
  <defs>
    <linearGradient
       id="linearGradient3152">
      <stop
         style="stop-color:#b8ffb4;stop-opacity:1;"
         offset="0" />
      <stop
         offset="0.5"
         style="stop-color:#2eff22;stop-opacity:0.5;" />
      <stop
         style="stop-color:#ffffff;stop-opacity:0;"
         offset="1" />
    </linearGradient>
    <radialGradient
       xlink:href="#linearGradient3152"
       id="radialGradient3158"
       cx="260"
       cy="235"
       fx="260"
       fy="235"
       r="259"
       gradientTransform="matrix(1,0,0,1.2531846,0,-59.560934)"
       gradientUnits="userSpaceOnUse" />
  </defs>
  <g
     transform="translate(-3,-73)">
    <path
       style="opacity:1;color:#000000;fill:url(#radialGradient3158);fill-opacity:1;fill-rule:evenodd;stroke:none;stroke-width:1.5;stroke-linecap:butt;stroke-linejoin:miter;marker:none;marker-start:none;marker-mid:none;marker-end:none;stroke-miterlimit:4;stroke-dasharray:none;stroke-dashoffset:0;stroke-opacity:1;visibility:visible;display:inline;overflow:visible"
       id="path2178"
       d="M 519 235 A 259 324 0 1 1  0,235 A 259 324 0 1 1  519 235 z"
       transform="matrix(1.4203822,0,0,1.4203822,0,200)" />
    <path
       style="fill:#000000;fill-opacity:0.75;fill-rule:nonzero;stroke:none;stroke-width:1pt;stroke-linecap:butt;stroke-linejoin:miter;stroke-opacity:1"
       d="M 420,366 C 438,381 455,400 478,408 C 523,427 576,424 620,405 C 632,400 644,393 655,387 C 652,389 638,397 649,391 C 658,385 666,379 676,376 C 688,370 673,379 669,382 C 637,401 604,421 566,427 C 526,435 482,429 446,408 C 431,398 419,385 405,374 C 410,371 415,368 420,366 z " />
    <path
       style="fill:#000000;fill-opacity:0.75;fill-rule:nonzero;stroke:none;stroke-width:1pt;stroke-linecap:butt;stroke-linejoin:miter;stroke-opacity:1"
       d="M 322,366 C 303,381 286,400 263,408 C 218,427 166,424 121,405 C 109,400 98,393 86,387 C 89,389 103,397 93,391 C 84,385 75,379 65,376 C 53,370 68,379 72,382 C 104,401 137,421 175,427 C 216,435 260,429 295,408 C 310,398 322,385 336,374 C 331,371 326,368 322,366 z " />
    <path
       style="fill:#000000;fill-opacity:0.75;fill-rule:nonzero;stroke:none;stroke-width:1pt;stroke-linecap:butt;stroke-linejoin:miter;stroke-opacity:1"
       d="M 363,383 C 347,418 353,458 345,495 C 339,525 324,551 312,579 C 304,598 298,620 309,639 C 317,655 335,667 353,669 C 379,671 405,664 429,653 C 442,646 405,667 423,656 C 429,652 434,647 441,645 C 455,639 439,650 434,653 C 408,669 378,679 347,679 C 327,679 308,667 297,651 C 285,634 287,613 294,594 C 302,570 316,548 324,523 C 335,493 335,460 338,428 C 340,415 342,401 349,390 C 353,388 358,385 363,383 z " />
    <path
       style="fill:#000000;fill-opacity:0.75;fill-rule:nonzero;stroke:none;stroke-width:1pt;stroke-linecap:butt;stroke-linejoin:miter;stroke-opacity:1"
       d="M 206,735 C 245,737 285,740 324,744 C 357,745 391,746 424,744 C 468,738 510,723 550,703 C 552,703 544,709 541,711 C 531,718 518,722 507,727 C 474,740 440,751 405,754 C 360,756 314,754 268,749 C 243,747 218,746 193,745 C 197,741 201,738 206,735 z " />
  </g>
</svg>
